SourceSerif_1.ufo
<glyph name="numbersign" format="2">
	<unicode hex="0023"/>
	<advance width="526"/>
	<outline>
		<contour>
			<point x="88" y="0" type="line"/>
			<point x="135" y="0" type="line"/>
			<point x="235" y="650" type="line"/>
			<point x="188" y="650" type="line"/>
		</contour>
		<contour>
			<point x="25" y="261" type="line"/>
			<point x="25" y="180" type="line"/>
			<point x="470" y="180" type="line"/>
			<point x="470" y="261" type="line"/>
		</contour>
		<contour>
			<point x="502" y="391" type="line"/>
			<point x="502" y="473" type="line"/>
			<point x="57" y="473" type="line"/>
			<point x="57" y="391" type="line"/>
		</contour>
		<contour>
			<point x="293" y="0" type="line"/>
			<point x="340" y="0" type="line"/>
			<point x="440" y="650" type="line"/>
			<point x="393" y="650" type="line"/>
		</contour>
	</outline>
</glyph>
<glyph name="ampersand" format="2">
	<unicode hex="0026"/>
	<advance width="720"/>
	<outline>
		<contour>
			<point x="312" y="220" type="curve" smooth="yes"/>
			<point x="363" y="161"/>
			<point x="413" y="106"/>
			<point x="479" y="33" type="curve" smooth="yes"/>
			<point x="511" y="-1"/>
			<point x="542" y="-13"/>
			<point x="594" y="-13" type="curve" smooth="yes"/>
			<point x="620" y="-13"/>
			<point x="640" y="-10"/>
			<point x="669" y="-3" type="curve"/>
			<point x="673" y="39" type="line"/>
			<point x="544" y="55" type="line"/>
			<point x="594" y="32" type="line"/>
			<point x="489" y="144"/>
			<point x="429" y="208"/>
			<point x="350" y="294" type="curve" smooth="yes"/>
			<point x="288" y="362"/>
			<point x="258" y="394"/>
			<point x="219" y="442" type="curve" smooth="yes"/>
			<point x="182" y="489"/>
			<point x="174" y="520"/>
			<point x="174" y="556" type="curve" smooth="yes"/>
			<point x="174" y="610"/>
			<point x="215" y="650"/>
			<point x="266" y="650" type="curve" smooth="yes"/>
			<point x="316" y="650"/>
			<point x="354" y="614"/>
			<point x="354" y="555" type="curve" smooth="yes"/>
			<point x="354" y="491"/>
			<point x="301" y="444"/>
			<point x="229" y="398" type="curve"/>
			<point x="245" y="370" type="line"/>
			<point x="365" y="431"/>
			<point x="418" y="483"/>
			<point x="418" y="557" type="curve" smooth="yes"/>
			<point x="418" y="632"/>
			<point x="365" y="685"/>
			<point x="267" y="685" type="curve" smooth="yes"/>
			<point x="174" y="685"/>
			<point x="105" y="631"/>
			<point x="105" y="544" type="curve" smooth="yes"/>
			<point x="105" y="491"/>
			<point x="124" y="440"/>
			<point x="174" y="383" type="curve" smooth="yes"/>
			<point x="221" y="329"/>
			<point x="253" y="288"/>
		</contour>
		<contour>
			<point x="441" y="130" type="curve"/>
			<point x="473" y="110" type="line"/>
			<point x="533" y="194"/>
			<point x="577" y="282"/>
			<point x="602" y="398" type="curve"/>
			<point x="556" y="398" type="line"/>
			<point x="534" y="291"/>
			<point x="496" y="208"/>
		</contour>
		<contour>
			<point x="226" y="362" type="curve"/>
			<point x="206" y="391" type="line"/>
			<point x="89" y="340"/>
			<point x="27" y="268"/>
			<point x="27" y="170" type="curve" smooth="yes"/>
			<point x="27" y="68"/>
			<point x="114" y="-13"/>
			<point x="239" y="-13" type="curve" smooth="yes"/>
			<point x="356" y="-13"/>
			<point x="427" y="43"/>
			<point x="469" y="107" type="curve"/>
			<point x="439" y="132" type="line"/>
			<point x="403" y="81"/>
			<point x="334" y="50"/>
			<point x="263" y="50" type="curve" smooth="yes"/>
			<point x="165" y="50"/>
			<point x="111" y="123"/>
			<point x="111" y="196" type="curve" smooth="yes"/>
			<point x="111" y="251"/>
			<point x="134" y="320"/>
		</contour>
		<contour>
			<point x="587" y="374" type="line"/>
			<point x="674" y="389" type="line"/>
			<point x="674" y="429" type="line"/>
			<point x="472" y="429" type="line"/>
			<point x="472" y="389" type="line"/>
			<point x="567" y="374" type="line"/>
		</contour>
	</outline>
</glyph>
<glyph name="quotesingle" format="2">
	<unicode hex="0027"/>
	<advance width="180"/>
	<outline>
		<contour>
			<point x="90" y="737" type="curve" smooth="yes"/>
			<point x="59" y="737"/>
			<point x="40" y="719"/>
			<point x="40" y="676" type="curve" smooth="yes"/>
			<point x="40" y="637"/>
			<point x="57" y="533"/>
			<point x="62" y="500" type="curve" smooth="yes"/>
			<point x="72" y="431" type="line"/>
			<point x="108" y="431" type="line"/>
			<point x="118" y="500" type="line" smooth="yes"/>
			<point x="123" y="533"/>
			<point x="140" y="637"/>
			<point x="140" y="676" type="curve" smooth="yes"/>
			<point x="140" y="719"/>
			<point x="121" y="737"/>
		</contour>
	</outline>
</glyph>
<glyph name="parenleft" format="2">
	<unicode hex="0028"/>
	<advance width="337"/>
	<outline>
		<contour>
			<point x="158" y="278" type="curve" smooth="yes"/>
			<point x="158" y="438"/>
			<point x="194" y="556"/>
			<point x="312" y="728" type="curve"/>
			<point x="287" y="749" type="line"/>
			<point x="147" y="617"/>
			<point x="80" y="461"/>
			<point x="80" y="278" type="curve" smooth="yes"/>
			<point x="80" y="95"/>
			<point x="147" y="-61"/>
			<point x="287" y="-193" type="curve"/>
			<point x="312" y="-172" type="line"/>
			<point x="194" y="0"/>
			<point x="158" y="118"/>
		</contour>
	</outline>
</glyph>
<glyph name="asterisk" format="2">
	<unicode hex="002A"/>
	<advance width="440"/>
	<outline>
		<contour>
			<point x="230" y="530" type="line"/>
			<point x="241" y="608" type="line" smooth="yes"/>
			<point x="247" y="653"/>
			<point x="255" y="695"/>
			<point x="255" y="713" type="curve" smooth="yes"/>
			<point x="255" y="738"/>
			<point x="240" y="748"/>
			<point x="220" y="748" type="curve" smooth="yes"/>
			<point x="200" y="748"/>
			<point x="186" y="738"/>
			<point x="186" y="713" type="curve" smooth="yes"/>
			<point x="186" y="694"/>
			<point x="193" y="653"/>
			<point x="199" y="608" type="curve" smooth="yes"/>
			<point x="210" y="530" type="line"/>
		</contour>
		<contour>
			<point x="214" y="527" type="line"/>
			<point x="289" y="539" type="line" smooth="yes"/>
			<point x="412" y="559"/>
			<point x="420" y="569"/>
			<point x="420" y="590" type="curve" smooth="yes"/>
			<point x="420" y="615"/>
			<point x="409" y="627"/>
			<point x="389" y="627" type="curve" smooth="yes"/>
			<point x="366" y="627"/>
			<point x="331" y="607"/>
			<point x="278" y="581" type="curve" smooth="yes"/>
			<point x="207" y="546" type="line"/>
		</contour>
		<contour>
			<point x="206" y="542" type="line"/>
			<point x="243" y="473" type="line" smooth="yes"/>
			<point x="282" y="403"/>
			<point x="297" y="363"/>
			<point x="320" y="363" type="curve" smooth="yes"/>
			<point x="337" y="363"/>
			<point x="358" y="379"/>
			<point x="358" y="398" type="curve" smooth="yes"/>
			<point x="358" y="418"/>
			<point x="325" y="446"/>
			<point x="277" y="497" type="curve" smooth="yes"/>
			<point x="222" y="554" type="line"/>
		</contour>
		<contour>
			<point x="233" y="546" type="line"/>
			<point x="162" y="581" type="line" smooth="yes"/>
			<point x="109" y="607"/>
			<point x="71" y="627"/>
			<point x="53" y="627" type="curve" smooth="yes"/>
			<point x="32" y="627"/>
			<point x="20" y="611"/>
			<point x="20" y="593" type="curve" smooth="yes"/>
			<point x="20" y="563"/>
			<point x="43" y="559"/>
			<point x="145" y="541" type="curve" smooth="yes"/>
			<point x="226" y="527" type="line"/>
		</contour>
		<contour>
			<point x="234" y="542" type="line"/>
			<point x="218" y="554" type="line"/>
			<point x="163" y="497" type="line" smooth="yes"/>
			<point x="115" y="445"/>
			<point x="82" y="416"/>
			<point x="82" y="399" type="curve" smooth="yes"/>
			<point x="82" y="380"/>
			<point x="102" y="364"/>
			<point x="119" y="364" type="curve" smooth="yes"/>
			<point x="140" y="364"/>
			<point x="159" y="404"/>
			<point x="197" y="473" type="curve" smooth="yes"/>
		</contour>
	</outline>
</glyph>
<glyph name="plus" format="2">
	<unicode hex="002B"/>
	<advance width="530"/>
	<outline>
		<contour>
			<point x="235" y="77" type="line"/>
			<point x="295" y="77" type="line"/>
			<point x="295" y="578" type="line"/>
			<point x="235" y="578" type="line"/>
		</contour>
		<contour>
			<point x="501" y="302" type="line"/>
			<point x="501" y="358" type="line"/>
			<point x="29" y="358" type="line"/>
			<point x="29" y="302" type="line"/>
		</contour>
	</outline>
</glyph>
<glyph name="comma" format="2">
	<unicode hex="002C"/>
	<advance width="300"/>
	<outline>
		<contour>
			<point x="216" y="27" type="curve" smooth="yes"/>
			<point x="216" y="49"/>
			<point x="215" y="73"/>
			<point x="208" y="95" type="curve"/>
			<point x="188" y="116"/>
			<point x="168" y="123"/>
			<point x="148" y="123" type="curve" smooth="yes"/>
			<point x="104" y="123"/>
			<point x="82" y="93"/>
			<point x="82" y="57" type="curve" smooth="yes"/>
			<point x="82" y="32"/>
			<point x="95" y="14"/>
			<point x="125" y="-5" type="curve" smooth="yes"/>
			<point x="177" y="-37" type="line"/>
			<point x="165" y="0" type="line"/>
			<point x="151" y="-70"/>
			<point x="119" y="-106"/>
			<point x="45" y="-141" type="curve"/>
			<point x="60" y="-177" type="line"/>
			<point x="144" y="-146"/>
			<point x="216" y="-72"/>
		</contour>
	</outline>
</glyph>
<glyph name="hyphen" format="2">
	<unicode hex="002D"/>
	<unicode hex="00AD"/>
	<unicode hex="2010"/>
	<advance width="310"/>
	<outline>
		<contour>
			<point x="40" y="215" type="line"/>
			<point x="270" y="215" type="line"/>
			<point x="270" y="279" type="line"/>
			<point x="40" y="279" type="line"/>
		</contour>
	</outline>
</glyph>
<glyph name="period" format="2">
	<unicode hex="002E"/>
	<advance width="300"/>
	<outline>
		<contour>
			<point x="150" y="-13" type="curve" smooth="yes"/>
			<point x="189" y="-13"/>
			<point x="220" y="19"/>
			<point x="220" y="57" type="curve" smooth="yes"/>
			<point x="220" y="96"/>
			<point x="189" y="128"/>
			<point x="150" y="128" type="curve" smooth="yes"/>
			<point x="111" y="128"/>
			<point x="80" y="96"/>
			<point x="80" y="57" type="curve" smooth="yes"/>
			<point x="80" y="19"/>
			<point x="111" y="-13"/>
		</contour>
	</outline>
</glyph>
<glyph name="one" format="2">
	<unicode hex="0031"/>
	<advance width="500"/>
	<outline>
		<contour>
			<point x="74" y="0" type="line"/>
			<point x="445" y="0" type="line"/>
			<point x="445" y="36" type="line"/>
			<point x="301" y="60" type="line"/>
			<point x="217" y="60" type="line"/>
			<point x="74" y="36" type="line"/>
		</contour>
		<contour>
			<point x="214" y="0" type="curve"/>
			<point x="304" y="0" type="line"/>
			<point x="302" y="70"/>
			<point x="301" y="141"/>
			<point x="301" y="211" type="curve" smooth="yes"/>
			<point x="301" y="502" type="line"/>
			<point x="305" y="645" type="line"/>
			<point x="291" y="655" type="line"/>
			<point x="85" y="602" type="line"/>
			<point x="85" y="561" type="line"/>
			<point x="217" y="572" type="line"/>
			<point x="217" y="211" type="line" smooth="yes"/>
			<point x="217" y="141"/>
			<point x="216" y="70"/>
		</contour>
	</outline>
</glyph>
<glyph name="four" format="2">
	<unicode hex="0034"/>
	<advance width="500"/>
	<outline>
		<contour>
			<point x="296" y="-15" type="line"/>
			<point x="379" y="-15" type="line"/>
			<point x="379" y="656" type="line"/>
			<point x="321" y="656" type="line"/>
			<point x="24" y="216" type="line"/>
			<point x="24" y="163" type="line"/>
			<point x="484" y="163" type="line"/>
			<point x="484" y="226" type="line"/>
			<point x="77" y="226" type="line"/>
			<point x="77" y="245" type="line"/>
			<point x="66" y="201" type="line"/>
			<point x="195" y="396" type="line"/>
			<point x="324" y="591" type="line"/>
			<point x="280" y="570" type="line"/>
			<point x="296" y="570" type="line"/>
			<point x="296" y="203" type="line"/>
			<point x="296" y="184" type="line"/>
		</contour>
	</outline>
</glyph>
<glyph name="five" format="2">
	<unicode hex="0035"/>
	<advance width="500"/>
	<outline>
		<contour>
			<point x="225" y="-13" type="curve" smooth="yes"/>
			<point x="365" y="-13"/>
			<point x="458" y="73"/>
			<point x="458" y="201" type="curve" smooth="yes"/>
			<point x="458" y="334"/>
			<point x="369" y="406"/>
			<point x="239" y="406" type="curve" smooth="yes"/>
			<point x="189" y="406"/>
			<point x="147" y="397"/>
			<point x="99" y="373" type="curve"/>
			<point x="143" y="358" type="line"/>
			<point x="160" y="612" type="line"/>
			<point x="133" y="565" type="line"/>
			<point x="440" y="565" type="line"/>
			<point x="440" y="647" type="line"/>
			<point x="113" y="647" type="line"/>
			<point x="92" y="342" type="line"/>
			<point x="120" y="334" type="line"/>
			<point x="151" y="341"/>
			<point x="183" y="345"/>
			<point x="212" y="345" type="curve" smooth="yes"/>
			<point x="308" y="345"/>
			<point x="368" y="291"/>
			<point x="368" y="191" type="curve" smooth="yes"/>
			<point x="368" y="95"/>
			<point x="316" y="32"/>
			<point x="218" y="32" type="curve" smooth="yes"/>
			<point x="190" y="32"/>
			<point x="161" y="37"/>
			<point x="127" y="52" type="curve"/>
			<point x="166" y="21" type="line"/>
			<point x="147" y="94" type="line" smooth="yes"/>
			<point x="133" y="147"/>
			<point x="119" y="162"/>
			<point x="89" y="162" type="curve" smooth="yes"/>
			<point x="66" y="162"/>
			<point x="47" y="151"/>
			<point x="38" y="128" type="curve"/>
			<point x="59" y="34"/>
			<point x="123" y="-13"/>
		</contour>
	</outline>
</glyph>
<glyph name="question" format="2">
	<unicode hex="003F"/>
	<advance width="416"/>
	<outline>
		<contour>
			<point x="149" y="-13" type="curve" smooth="yes"/>
			<point x="185" y="-13"/>
			<point x="214" y="17"/>
			<point x="214" y="52" type="curve" smooth="yes"/>
			<point x="214" y="87"/>
			<point x="185" y="117"/>
			<point x="149" y="117" type="curve" smooth="yes"/>
			<point x="113" y="117"/>
			<point x="85" y="87"/>
			<point x="85" y="52" type="curve" smooth="yes"/>
			<point x="85" y="17"/>
			<point x="113" y="-13"/>
		</contour>
		<contour>
			<point x="350" y="461" type="curve" smooth="yes"/>
			<point x="350" y="590"/>
			<point x="206" y="676"/>
			<point x="121" y="684" type="curve"/>
			<point x="85" y="675"/>
			<point x="66" y="660"/>
			<point x="66" y="629" type="curve" smooth="yes"/>
			<point x="66" y="604"/>
			<point x="79" y="586"/>
			<point x="138" y="575" type="curve" smooth="yes"/>
			<point x="323" y="542" type="line"/>
			<point x="216" y="613" type="line"/>
			<point x="256" y="576"/>
			<point x="295" y="526"/>
			<point x="295" y="478" type="curve" smooth="yes"/>
			<point x="295" y="445"/>
			<point x="275" y="421"/>
			<point x="239" y="409" type="curve" smooth="yes"/>
			<point x="182" y="391" type="line" smooth="yes"/>
			<point x="123" y="373"/>
			<point x="102" y="355"/>
			<point x="102" y="325" type="curve" smooth="yes"/>
			<point x="102" y="313"/>
			<point x="106" y="294"/>
			<point x="118" y="255" type="curve" smooth="yes"/>
			<point x="130" y="213" type="line"/>
			<point x="169" y="213" type="line"/>
			<point x="169" y="268" type="line" smooth="yes"/>
			<point x="169" y="301"/>
			<point x="174" y="310"/>
			<point x="216" y="323" type="curve" smooth="yes"/>
			<point x="250" y="335" type="line" smooth="yes"/>
			<point x="318" y="357"/>
			<point x="350" y="399"/>
		</contour>
	</outline>
</glyph>
<glyph name="at" format="2">
	<unicode hex="0040"/>
	<advance width="835"/>
	<outline>
		<contour>
			<point x="339" y="47" type="curve" smooth="yes"/>
			<point x="407" y="47"/>
			<point x="462" y="105"/>
			<point x="517" y="178" type="curve"/>
			<point x="519" y="178" type="line"/>
			<point x="511" y="193" type="line"/>
			<point x="440" y="125"/>
			<point x="406" y="106"/>
			<point x="370" y="106" type="curve" smooth="yes"/>
			<point x="323" y="106"/>
			<point x="301" y="138"/>
			<point x="301" y="202" type="curve" smooth="yes"/>
			<point x="301" y="342"/>
			<point x="392" y="428"/>
			<point x="457" y="428" type="curve" smooth="yes"/>
			<point x="485" y="428"/>
			<point x="511" y="413"/>
			<point x="536" y="367" type="curve"/>
			<point x="566" y="414" type="line"/>
			<point x="532" y="460"/>
			<point x="502" y="475"/>
			<point x="465" y="475" type="curve" smooth="yes"/>
			<point x="353" y="475"/>
			<point x="231" y="325"/>
			<point x="231" y="177" type="curve" smooth="yes"/>
			<point x="231" y="85"/>
			<point x="284" y="47"/>
		</contour>
		<contour>
			<point x="584" y="47" type="curve" smooth="yes"/>
			<point x="671" y="47"/>
			<point x="800" y="131"/>
			<point x="800" y="324" type="curve" smooth="yes"/>
			<point x="800" y="521"/>
			<point x="679" y="660"/>
			<point x="475" y="660" type="curve" smooth="yes"/>
			<point x="228" y="660"/>
			<point x="36" y="460"/>
			<point x="36" y="204" type="curve" smooth="yes"/>
			<point x="36" y="-33"/>
			<point x="196" y="-155"/>
			<point x="397" y="-155" type="curve" smooth="yes"/>
			<point x="456" y="-155"/>
			<point x="527" y="-143"/>
			<point x="585" y="-113" type="curve"/>
			<point x="572" y="-83" type="line"/>
			<point x="528" y="-104"/>
			<point x="479" y="-114"/>
			<point x="418" y="-114" type="curve" smooth="yes"/>
			<point x="247" y="-114"/>
			<point x="97" y="-7"/>
			<point x="97" y="213" type="curve" smooth="yes"/>
			<point x="97" y="427"/>
			<point x="249" y="619"/>
			<point x="469" y="619" type="curve" smooth="yes"/>
			<point x="624" y="619"/>
			<point x="741" y="514"/>
			<point x="741" y="333" type="curve" smooth="yes"/>
			<point x="741" y="163"/>
			<point x="664" y="94"/>
			<point x="596" y="94" type="curve" smooth="yes"/>
			<point x="552" y="94"/>
			<point x="532" y="122"/>
			<point x="542" y="172" type="curve" smooth="yes"/>
			<point x="599" y="458" type="line"/>
			<point x="580" y="474" type="line"/>
			<point x="528" y="448" type="line"/>
			<point x="472" y="153" type="line"/>
			<point x="476" y="138" type="line"/>
			<point x="480" y="87"/>
			<point x="518" y="47"/>
		</contour>
	</outline>
</glyph>
<glyph name="A" format="2">
	<unicode hex="0041"/>
	<advance width="663"/>
	<outline>
		<contour>
			<point x="5" y="0" type="line"/>
			<point x="235" y="0" type="line"/>
			<point x="235" y="40" type="line"/>
			<point x="125" y="55" type="line"/>
			<point x="105" y="55" type="line"/>
			<point x="5" y="40" type="line"/>
		</contour>
		<contour>
			<point x="71" y="0" type="line"/>
			<point x="118" y="0" type="line"/>
			<point x="310" y="565" type="line"/>
			<point x="500" y="0" type="line"/>
			<point x="593" y="0" type="line"/>
			<point x="363" y="675" type="line"/>
			<point x="303" y="675" type="line"/>
		</contour>
		<contour>
			<point x="170" y="219" type="line"/>
			<point x="472" y="219" type="line"/>
			<point x="456" y="265" type="line"/>
			<point x="186" y="265" type="line"/>
		</contour>
		<contour>
			<point x="383" y="0" type="line"/>
			<point x="653" y="0" type="line"/>
			<point x="653" y="40" type="line"/>
			<point x="529" y="55" type="line"/>
			<point x="509" y="55" type="line"/>
			<point x="383" y="40" type="line"/>
		</contour>
	</outline>
	<anchor name="aboveUC" x="321" y="691"/>
	<anchor name="belowLC" x="312" y="-22"/>
	<anchor name="ogonek" x="546" y="0"/>
</glyph>
<glyph name="B" format="2">
	<unicode hex="0042"/>
	<advance width="629"/>
	<outline>
		<contour>
			<point x="44" y="0" type="line"/>
			<point x="185" y="0" type="line"/>
			<point x="185" y="56" type="line"/>
			<point x="175" y="56" type="line"/>
			<point x="44" y="41" type="line"/>
		</contour>
		<contour>
			<point x="135" y="0" type="curve"/>
			<point x="236" y="0" type="line"/>
			<point x="233" y="103"/>
			<point x="233" y="207"/>
			<point x="233" y="325" type="curve" smooth="yes"/>
			<point x="233" y="359" type="line" smooth="yes"/>
			<point x="233" y="464"/>
			<point x="233" y="569"/>
			<point x="236" y="670" type="curve"/>
			<point x="135" y="670" type="line"/>
			<point x="138" y="567"/>
			<point x="138" y="462"/>
			<point x="138" y="359" type="curve" smooth="yes"/>
			<point x="138" y="310" type="line" smooth="yes"/>
			<point x="138" y="205"/>
			<point x="138" y="101"/>
		</contour>
		<contour>
			<point x="185" y="0" type="line"/>
			<point x="319" y="0" type="line" smooth="yes"/>
			<point x="511" y="0"/>
			<point x="586" y="92"/>
			<point x="586" y="183" type="curve" smooth="yes"/>
			<point x="586" y="270"/>
			<point x="521" y="339"/>
			<point x="364" y="352" type="curve"/>
			<point x="364" y="343" type="line"/>
			<point x="499" y="359"/>
			<point x="552" y="429"/>
			<point x="552" y="507" type="curve" smooth="yes"/>
			<point x="552" y="602"/>
			<point x="473" y="670"/>
			<point x="334" y="670" type="curve" smooth="yes"/>
			<point x="185" y="670" type="line"/>
			<point x="185" y="624" type="line"/>
			<point x="304" y="624" type="line" smooth="yes"/>
			<point x="406" y="624"/>
			<point x="458" y="591"/>
			<point x="458" y="500" type="curve" smooth="yes"/>
			<point x="458" y="409"/>
			<point x="406" y="369"/>
			<point x="285" y="369" type="curve" smooth="yes"/>
			<point x="185" y="369" type="line"/>
			<point x="185" y="323" type="line"/>
			<point x="288" y="323" type="line" smooth="yes"/>
			<point x="426" y="323"/>
			<point x="486" y="276"/>
			<point x="486" y="183" type="curve" smooth="yes"/>
			<point x="486" y="95"/>
			<point x="424" y="47"/>
			<point x="296" y="47" type="curve" smooth="yes"/>
			<point x="185" y="47" type="line"/>
		</contour>
		<contour>
			<point x="44" y="629" type="line"/>
			<point x="175" y="614" type="line"/>
			<point x="185" y="614" type="line"/>
			<point x="185" y="670" type="line"/>
			<point x="44" y="670" type="line"/>
		</contour>
	</outline>
	<anchor name="aboveUC" x="310" y="690"/>
	<anchor name="belowLC" x="329" y="-20"/>
</glyph>
<glyph name="E" format="2">
	<unicode hex="0045"/>
	<advance width="604"/>
	<outline>
		<contour>
			<point x="45" y="0" type="line"/>
			<point x="185" y="0" type="line"/>
			<point x="185" y="55" type="line"/>
			<point x="175" y="55" type="line"/>
			<point x="45" y="40" type="line"/>
		</contour>
		<contour>
			<point x="140" y="205"/>
			<point x="140" y="101"/>
			<point x="137" y="0" type="curve"/>
			<point x="233" y="0" type="line"/>
			<point x="230" y="103"/>
			<point x="230" y="207"/>
			<point x="230" y="322" type="curve" smooth="yes"/>
			<point x="230" y="360" type="line" smooth="yes"/>
			<point x="230" y="465"/>
			<point x="230" y="569"/>
			<point x="233" y="670" type="curve"/>
			<point x="137" y="670" type="line"/>
			<point x="140" y="567"/>
			<point x="140" y="463"/>
			<point x="140" y="360" type="curve" smooth="yes"/>
			<point x="140" y="310" type="line" smooth="yes"/>
		</contour>
		<contour>
			<point x="185" y="0" type="line"/>
			<point x="562" y="0" type="line"/>
			<point x="569" y="178" type="line"/>
			<point x="513" y="178" type="line"/>
			<point x="486" y="20" type="line"/>
			<point x="521" y="50" type="line"/>
			<point x="185" y="50" type="line"/>
		</contour>
		<contour>
			<point x="185" y="319" type="line"/>
			<point x="411" y="319" type="line"/>
			<point x="411" y="365" type="line"/>
			<point x="185" y="365" type="line"/>
		</contour>
		<contour>
			<point x="394" y="224" type="line"/>
			<point x="439" y="224" type="line"/>
			<point x="439" y="461" type="line"/>
			<point x="394" y="461" type="line"/>
			<point x="379" y="355" type="line"/>
			<point x="379" y="335" type="line"/>
		</contour>
		<contour>
			<point x="45" y="630" type="line"/>
			<point x="175" y="615" type="line"/>
			<point x="185" y="615" type="line"/>
			<point x="185" y="670" type="line"/>
			<point x="45" y="670" type="line"/>
		</contour>
		<contour>
			<point x="493" y="492" type="line"/>
			<point x="549" y="492" type="line"/>
			<point x="542" y="670" type="line"/>
			<point x="185" y="670" type="line"/>
			<point x="185" y="620" type="line"/>
			<point x="501" y="620" type="line"/>
			<point x="466" y="650" type="line"/>
		</contour>
	</outline>
	<anchor name="aboveUC" x="327" y="691"/>
	<anchor name="belowLC" x="352" y="-22"/>
	<anchor name="ogonek" x="482" y="0"/>
</glyph>
<glyph name="G" format="2">
	<unicode hex="0047"/>
	<advance width="682"/>
	<outline>
		<contour>
			<point x="384" y="-15" type="curve" smooth="yes"/>
			<point x="467" y="-15"/>
			<point x="535" y="8"/>
			<point x="604" y="44" type="curve"/>
			<point x="604" y="88" type="line" smooth="yes"/>
			<point x="604" y="166"/>
			<point x="605" y="243"/>
			<point x="607" y="318" type="curve"/>
			<point x="507" y="318" type="line"/>
			<point x="509" y="242"/>
			<point x="510" y="164"/>
			<point x="510" y="88" type="curve" smooth="yes"/>
			<point x="510" y="29" type="line"/>
			<point x="557" y="77" type="line"/>
			<point x="501" y="49"/>
			<point x="460" y="36"/>
			<point x="403" y="36" type="curve" smooth="yes"/>
			<point x="250" y="36"/>
			<point x="156" y="144"/>
			<point x="156" y="335" type="curve" smooth="yes"/>
			<point x="156" y="526"/>
			<point x="259" y="635"/>
			<point x="397" y="635" type="curve" smooth="yes"/>
			<point x="460" y="635"/>
			<point x="514" y="614"/>
			<point x="568" y="564" type="curve"/>
			<point x="568" y="621" type="line"/>
			<point x="505" y="641" type="line"/>
			<point x="531" y="492" type="line"/>
			<point x="593" y="492" type="line"/>
			<point x="589" y="638" type="line"/>
			<point x="533" y="670"/>
			<point x="470" y="685"/>
			<point x="388" y="685" type="curve" smooth="yes"/>
			<point x="184" y="685"/>
			<point x="47" y="536"/>
			<point x="47" y="335" type="curve" smooth="yes"/>
			<point x="47" y="133"/>
			<point x="183" y="-15"/>
		</contour>
		<contour>
			<point x="404" y="278" type="line"/>
			<point x="534" y="267" type="line"/>
			<point x="556" y="267" type="line"/>
			<point x="667" y="278" type="line"/>
			<point x="667" y="318" type="line"/>
			<point x="404" y="318" type="line"/>
		</contour>
	</outline>
	<anchor name="aboveUC" x="390" y="690"/>
	<anchor name="belowLC" x="393" y="-20"/>
</glyph>
<glyph name="I" format="2">
	<unicode hex="0049"/>
	<advance width="370"/>
	<outline>
		<contour>
			<point x="45" y="0" type="line"/>
			<point x="325" y="0" type="line"/>
			<point x="325" y="40" type="line"/>
			<point x="195" y="55" type="line"/>
			<point x="175" y="55" type="line"/>
			<point x="45" y="40" type="line"/>
		</contour>
		<contour>
			<point x="140" y="205"/>
			<point x="140" y="101"/>
			<point x="137" y="0" type="curve"/>
			<point x="233" y="0" type="line"/>
			<point x="230" y="103"/>
			<point x="230" y="207"/>
			<point x="230" y="310" type="curve" smooth="yes"/>
			<point x="230" y="360" type="line" smooth="yes"/>
			<point x="230" y="465"/>
			<point x="230" y="569"/>
			<point x="233" y="670" type="curve"/>
			<point x="137" y="670" type="line"/>
			<point x="140" y="567"/>
			<point x="140" y="463"/>
			<point x="140" y="360" type="curve" smooth="yes"/>
			<point x="140" y="310" type="line" smooth="yes"/>
		</contour>
		<contour>
			<point x="45" y="630" type="line"/>
			<point x="175" y="615" type="line"/>
			<point x="195" y="615" type="line"/>
			<point x="325" y="630" type="line"/>
			<point x="325" y="670" type="line"/>
			<point x="45" y="670" type="line"/>
		</contour>
	</outline>
	<anchor name="aboveUC" x="185" y="691"/>
	<anchor name="belowLC" x="185" y="-22"/>
	<anchor name="ogonek" x="224" y="0"/>
</glyph>
<glyph name="J" format="2">
	<unicode hex="004A"/>
	<advance width="373"/>
	<outline>
		<contour>
			<point x="-6" y="-122"/>
			<point x="33" y="-132"/>
			<point x="70" y="-132" type="curve" smooth="yes"/>
			<point x="116" y="-132"/>
			<point x="154" y="-116"/>
			<point x="187" y="-76" type="curve" smooth="yes"/>
			<point x="235" y="-17"/>
			<point x="243" y="41"/>
			<point x="243" y="216" type="curve" smooth="yes"/>
			<point x="243" y="360" type="line" smooth="yes"/>
			<point x="243" y="465"/>
			<point x="243" y="569"/>
			<point x="246" y="670" type="curve"/>
			<point x="154" y="670" type="line"/>
			<point x="159" y="169"/>
			<point x="159" y="203"/>
			<point x="159" y="119" type="curve" smooth="yes"/>
			<point x="159" y="-13"/>
			<point x="151" y="-57"/>
			<point x="125" y="-94" type="curve"/>
			<point x="125" y="-98" type="line"/>
			<point x="152" y="-98" type="line"/>
			<point x="152" y="-90" type="line"/>
			<point x="119" y="-65" type="line" smooth="yes"/>
			<point x="91" y="-44"/>
			<point x="70" y="-36"/>
			<point x="45" y="-36" type="curve" smooth="yes"/>
			<point x="14" y="-36"/>
			<point x="-9" y="-48"/>
			<point x="-15" y="-84" type="curve"/>
		</contour>
		<contour>
			<point x="48" y="630" type="line"/>
			<point x="188" y="615" type="line"/>
			<point x="208" y="615" type="line"/>
			<point x="338" y="630" type="line"/>
			<point x="338" y="670" type="line"/>
			<point x="48" y="670" type="line"/>
		</contour>
	</outline>
	<anchor name="aboveUC" x="197" y="691"/>
	<anchor name="belowLC" x="144" y="-134"/>
</glyph>
<glyph name="K" format="2">
	<unicode hex="004B"/>
	<advance width="667"/>
	<outline>
		<contour>
			<point x="135" y="0" type="curve"/>
			<point x="232" y="0" type="line"/>
			<point x="229" y="103"/>
			<point x="229" y="207"/>
			<point x="229" y="285" type="curve" smooth="yes"/>
			<point x="229" y="359" type="line" smooth="yes"/>
			<point x="229" y="464"/>
			<point x="229" y="569"/>
			<point x="232" y="670" type="curve"/>
			<point x="135" y="670" type="line"/>
			<point x="138" y="567"/>
			<point x="138" y="462"/>
			<point x="138" y="359" type="curve" smooth="yes"/>
			<point x="138" y="310" type="line" smooth="yes"/>
			<point x="138" y="205"/>
			<point x="138" y="101"/>
		</contour>
		<contour>
			<point x="44" y="0" type="line"/>
			<point x="326" y="0" type="line"/>
			<point x="326" y="41" type="line"/>
			<point x="196" y="56" type="line"/>
			<point x="175" y="56" type="line"/>
			<point x="44" y="41" type="line"/>
		</contour>
		<contour>
			<point x="44" y="629" type="line"/>
			<point x="175" y="614" type="line"/>
			<point x="196" y="614" type="line"/>
			<point x="326" y="629" type="line"/>
			<point x="326" y="670" type="line"/>
			<point x="44" y="670" type="line"/>
		</contour>
		<contour>
			<point x="405" y="0" type="line"/>
			<point x="662" y="0" type="line"/>
			<point x="662" y="41" type="line"/>
			<point x="541" y="56" type="line"/>
			<point x="526" y="56" type="line"/>
			<point x="405" y="41" type="line"/>
		</contour>
		<contour>
			<point x="417" y="629" type="line"/>
			<point x="516" y="610" type="line"/>
			<point x="536" y="614" type="line"/>
			<point x="647" y="629" type="line"/>
			<point x="647" y="670" type="line"/>
			<point x="417" y="670" type="line"/>
		</contour>
		<contour>
			<point x="184" y="175" type="line"/>
			<point x="595" y="670" type="line"/>
			<point x="534" y="670" type="line"/>
			<point x="211" y="274" type="line"/>
			<point x="184" y="241" type="line"/>
			<point x="180" y="241" type="line"/>
		</contour>
		<contour>
			<point x="514" y="0" type="line"/>
			<point x="613" y="0" type="line"/>
			<point x="371" y="436" type="line"/>
			<point x="316" y="371" type="line"/>
		</contour>
	</outline>
	<anchor name="aboveUC" x="346" y="690"/>
	<anchor name="belowLC" x="354" y="-20"/>
</glyph>
<glyph name="L" format="2">
	<unicode hex="004C"/>
	<advance width="597"/>
	<outline>
		<contour>
			<point x="45" y="0" type="line"/>
			<point x="185" y="0" type="line"/>
			<point x="185" y="55" type="line"/>
			<point x="175" y="55" type="line"/>
			<point x="45" y="40" type="line"/>
		</contour>
		<contour>
			<point x="140" y="207"/>
			<point x="140" y="103"/>
			<point x="137" y="0" type="curve"/>
			<point x="233" y="0" type="line"/>
			<point x="230" y="101"/>
			<point x="230" y="205"/>
			<point x="230" y="290" type="curve" smooth="yes"/>
			<point x="230" y="360" type="line" smooth="yes"/>
			<point x="230" y="463"/>
			<point x="230" y="567"/>
			<point x="233" y="670" type="curve"/>
			<point x="137" y="670" type="line"/>
			<point x="140" y="569"/>
			<point x="140" y="465"/>
			<point x="140" y="360" type="curve" smooth="yes"/>
			<point x="140" y="310" type="line" smooth="yes"/>
		</contour>
		<contour>
			<point x="185" y="0" type="line"/>
			<point x="542" y="0" type="line"/>
			<point x="552" y="188" type="line"/>
			<point x="492" y="188" type="line"/>
			<point x="457" y="21" type="line"/>
			<point x="493" y="50" type="line"/>
			<point x="185" y="50" type="line"/>
		</contour>
		<contour>
			<point x="45" y="630" type="line"/>
			<point x="175" y="615" type="line"/>
			<point x="195" y="615" type="line"/>
			<point x="325" y="630" type="line"/>
			<point x="325" y="670" type="line"/>
			<point x="45" y="670" type="line"/>
		</contour>
	</outline>
	<anchor name="aboveUC" x="193" y="691"/>
	<anchor name="belowLC" x="327" y="-22"/>
</glyph>
<glyph name="M" format="2">
	<unicode hex="004D"/>
	<advance width="902"/>
	<outline>
		<contour>
			<point x="39" y="0" type="line"/>
			<point x="263" y="0" type="line"/>
			<point x="263" y="41" type="line"/>
			<point x="165" y="56" type="line"/>
			<point x="144" y="56" type="line"/>
			<point x="39" y="41" type="line"/>
		</contour>
		<contour>
			<point x="49" y="629" type="line"/>
			<point x="160" y="614" type="line"/>
			<point x="172" y="614" type="line"/>
			<point x="172" y="670" type="line"/>
			<point x="49" y="670" type="line"/>
		</contour>
		<contour>
			<point x="129" y="0" type="line"/>
			<point x="181" y="0" type="line"/>
			<point x="181" y="369" type="line"/>
			<point x="172" y="670" type="line"/>
			<point x="129" y="670" type="line"/>
		</contour>
		<contour>
			<point x="404" y="0" type="line"/>
			<point x="454" y="0" type="line"/>
			<point x="687" y="605" type="line"/>
			<point x="700" y="638" type="line"/>
			<point x="708" y="638" type="line"/>
			<point x="708" y="670" type="line"/>
			<point x="660" y="670" type="line"/>
			<point x="439" y="97" type="line"/>
			<point x="431" y="76" type="line"/>
			<point x="465" y="76" type="line"/>
			<point x="224" y="670" type="line"/>
			<point x="139" y="670" type="line"/>
			<point x="139" y="638" type="line"/>
			<point x="145" y="638" type="line"/>
		</contour>
		<contour>
			<point x="585" y="0" type="line"/>
			<point x="857" y="0" type="line"/>
			<point x="857" y="41" type="line"/>
			<point x="727" y="56" type="line"/>
			<point x="705" y="56" type="line"/>
			<point x="585" y="41" type="line"/>
		</contour>
		<contour>
			<point x="668" y="0" type="curve"/>
			<point x="766" y="0" type="line"/>
			<point x="763" y="103"/>
			<point x="763" y="207"/>
			<point x="763" y="310" type="curve" smooth="yes"/>
			<point x="763" y="359" type="line" smooth="yes"/>
			<point x="763" y="464"/>
			<point x="763" y="569"/>
			<point x="766" y="670" type="curve"/>
			<point x="671" y="670" type="line"/>
			<point x="671" y="309" type="line" smooth="yes"/>
			<point x="671" y="205"/>
			<point x="671" y="101"/>
		</contour>
		<contour>
			<point x="716" y="614" type="line"/>
			<point x="727" y="614" type="line"/>
			<point x="857" y="629" type="line"/>
			<point x="857" y="670" type="line"/>
			<point x="716" y="670" type="line"/>
		</contour>
	</outline>
	<anchor name="aboveUC" x="440" y="690"/>
	<anchor name="belowLC" x="428" y="-20"/>
</glyph>
<glyph name="N" format="2">
	<unicode hex="004E"/>
	<advance width="735"/>
	<outline>
		<contour>
			<point x="40" y="0" type="line"/>
			<point x="280" y="0" type="line"/>
			<point x="280" y="40" type="line"/>
			<point x="165" y="55" type="line"/>
			<point x="145" y="55" type="line"/>
			<point x="40" y="40" type="line"/>
		</contour>
		<contour>
			<point x="125" y="0" type="line"/>
			<point x="175" y="0" type="line"/>
			<point x="175" y="647" type="line"/>
			<point x="125" y="647" type="line"/>
		</contour>
		<contour>
			<point x="455" y="630" type="line"/>
			<point x="575" y="615" type="line"/>
			<point x="595" y="615" type="line"/>
			<point x="695" y="630" type="line"/>
			<point x="695" y="670" type="line"/>
			<point x="455" y="670" type="line"/>
		</contour>
		<contour>
			<point x="578" y="-7" type="line"/>
			<point x="610" y="-7" type="line"/>
			<point x="610" y="670" type="line"/>
			<point x="560" y="670" type="line"/>
			<point x="560" y="168" type="line"/>
			<point x="195" y="670" type="line"/>
			<point x="45" y="670" type="line"/>
			<point x="45" y="630" type="line"/>
			<point x="116" y="621" type="line"/>
		</contour>
	</outline>
	<anchor name="aboveUC" x="363" y="691"/>
	<anchor name="belowLC" x="376" y="-22"/>
</glyph>
<glyph name="O" format="2">
	<unicode hex="004F"/>
	<advance width="707"/>
	<outline>
		<contour>
			<point x="354" y="-15" type="curve" smooth="yes"/>
			<point x="509" y="-15"/>
			<point x="660" y="115"/>
			<point x="660" y="335" type="curve" smooth="yes"/>
			<point x="660" y="563"/>
			<point x="508" y="685"/>
			<point x="354" y="685" type="curve" smooth="yes"/>
			<point x="199" y="685"/>
			<point x="47" y="554"/>
			<point x="47" y="335" type="curve" smooth="yes"/>
			<point x="47" y="106"/>
			<point x="198" y="-15"/>
		</contour>
		<contour>
			<point x="354" y="35" type="curve" smooth="yes"/>
			<point x="215" y="35"/>
			<point x="156" y="184"/>
			<point x="156" y="335" type="curve" smooth="yes"/>
			<point x="156" y="485"/>
			<point x="215" y="635"/>
			<point x="354" y="635" type="curve" smooth="yes"/>
			<point x="493" y="635"/>
			<point x="550" y="485"/>
			<point x="550" y="335" type="curve" smooth="yes"/>
			<point x="550" y="184"/>
			<point x="493" y="35"/>
		</contour>
	</outline>
	<anchor name="aboveUC" x="354" y="690"/>
	<anchor name="belowLC" x="354" y="-20"/>
	<anchor name="hornLC" x="529" y="575"/>
	<anchor name="ogonek" x="444" y="0"/>
</glyph>
<glyph name="P" format="2">
	<unicode hex="0050"/>
	<advance width="588"/>
	<outline>
		<contour>
			<point x="45" y="0" type="line"/>
			<point x="325" y="0" type="line"/>
			<point x="325" y="40" type="line"/>
			<point x="195" y="55" type="line"/>
			<point x="175" y="55" type="line"/>
			<point x="45" y="40" type="line"/>
		</contour>
		<contour>
			<point x="140" y="205"/>
			<point x="140" y="101"/>
			<point x="137" y="0" type="curve"/>
			<point x="233" y="0" type="line"/>
			<point x="230" y="103"/>
			<point x="230" y="197"/>
			<point x="230" y="299" type="curve" smooth="yes"/>
			<point x="230" y="360" type="line" smooth="yes"/>
			<point x="230" y="465"/>
			<point x="230" y="569"/>
			<point x="233" y="670" type="curve"/>
			<point x="137" y="670" type="line"/>
			<point x="140" y="567"/>
			<point x="140" y="463"/>
			<point x="140" y="360" type="curve" smooth="yes"/>
			<point x="140" y="310" type="line" smooth="yes"/>
		</contour>
		<contour>
			<point x="185" y="265" type="line"/>
			<point x="284" y="265" type="line" smooth="yes"/>
			<point x="488" y="265"/>
			<point x="565" y="359"/>
			<point x="565" y="471" type="curve" smooth="yes"/>
			<point x="565" y="588"/>
			<point x="480" y="670"/>
			<point x="314" y="670" type="curve" smooth="yes"/>
			<point x="185" y="670" type="line"/>
			<point x="185" y="624" type="line"/>
			<point x="295" y="624" type="line" smooth="yes"/>
			<point x="416" y="624"/>
			<point x="470" y="568"/>
			<point x="470" y="471" type="curve" smooth="yes"/>
			<point x="470" y="376"/>
			<point x="422" y="311"/>
			<point x="299" y="311" type="curve" smooth="yes"/>
			<point x="185" y="311" type="line"/>
		</contour>
		<contour>
			<point x="45" y="630" type="line"/>
			<point x="175" y="615" type="line"/>
			<point x="185" y="615" type="line"/>
			<point x="185" y="670" type="line"/>
			<point x="45" y="670" type="line"/>
		</contour>
	</outline>
	<anchor name="aboveUC" x="293" y="691"/>
	<anchor name="belowLC" x="184" y="-22"/>
</glyph>
<glyph name="Q" format="2">
	<unicode hex="0051"/>
	<advance width="707"/>
	<outline>
		<contour>
			<point x="500" y="-216" type="curve" smooth="yes"/>
			<point x="541" y="-216"/>
			<point x="589" y="-206"/>
			<point x="623" y="-184" type="curve"/>
			<point x="612" y="-148" type="line"/>
			<point x="580" y="-157"/>
			<point x="554" y="-160"/>
			<point x="534" y="-160" type="curve" smooth="yes"/>
			<point x="443" y="-160"/>
			<point x="389" y="-96"/>
			<point x="396" y="17" type="curve"/>
			<point x="302" y="17" type="line"/>
			<point x="302" y="-5" type="line" smooth="yes"/>
			<point x="302" y="-118"/>
			<point x="373" y="-216"/>
		</contour>
		<component base="O"/>
	</outline>
	<anchor name="aboveUC" x="354" y="690"/>
</glyph>
<glyph name="R" format="2">
	<unicode hex="0052"/>
	<advance width="649"/>
	<outline>
		<contour>
			<point x="45" y="0" type="line"/>
			<point x="325" y="0" type="line"/>
			<point x="325" y="40" type="line"/>
			<point x="195" y="55" type="line"/>
			<point x="175" y="55" type="line"/>
			<point x="45" y="40" type="line"/>
		</contour>
		<contour>
			<point x="140" y="205"/>
			<point x="140" y="101"/>
			<point x="137" y="0" type="curve"/>
			<point x="233" y="0" type="line"/>
			<point x="230" y="103"/>
			<point x="230" y="207"/>
			<point x="230" y="320" type="curve" smooth="yes"/>
			<point x="230" y="350" type="line" smooth="yes"/>
			<point x="230" y="468"/>
			<point x="230" y="566"/>
			<point x="233" y="670" type="curve"/>
			<point x="137" y="670" type="line"/>
			<point x="140" y="567"/>
			<point x="140" y="463"/>
			<point x="140" y="360" type="curve" smooth="yes"/>
			<point x="140" y="310" type="line" smooth="yes"/>
		</contour>
		<contour>
			<point x="562" y="-10" type="curve" smooth="yes"/>
			<point x="592" y="-10"/>
			<point x="616" y="-6"/>
			<point x="634" y="0" type="curve"/>
			<point x="634" y="40" type="line"/>
			<point x="531" y="52" type="line"/>
			<point x="562" y="33" type="line"/>
			<point x="513" y="199" type="line" smooth="yes"/>
			<point x="486" y="289"/>
			<point x="442" y="322"/>
			<point x="370" y="329" type="curve"/>
			<point x="367" y="321" type="line"/>
			<point x="498" y="332"/>
			<point x="565" y="409"/>
			<point x="565" y="494" type="curve" smooth="yes"/>
			<point x="565" y="605"/>
			<point x="475" y="670"/>
			<point x="322" y="670" type="curve" smooth="yes"/>
			<point x="185" y="670" type="line"/>
			<point x="185" y="624" type="line"/>
			<point x="321" y="624" type="line" smooth="yes"/>
			<point x="425" y="624"/>
			<point x="470" y="578"/>
			<point x="470" y="494" type="curve" smooth="yes"/>
			<point x="470" y="413"/>
			<point x="418" y="355"/>
			<point x="310" y="355" type="curve" smooth="yes"/>
			<point x="185" y="355" type="line"/>
			<point x="185" y="310" type="line"/>
			<point x="280" y="310" type="line" smooth="yes"/>
			<point x="363" y="310"/>
			<point x="400" y="296"/>
			<point x="420" y="215" type="curve" smooth="yes"/>
			<point x="461" y="52" type="line" smooth="yes"/>
			<point x="473" y="6"/>
			<point x="500" y="-10"/>
		</contour>
		<contour>
			<point x="45" y="630" type="line"/>
			<point x="175" y="615" type="line"/>
			<point x="185" y="615" type="line"/>
			<point x="185" y="670" type="line"/>
			<point x="45" y="670" type="line"/>
		</contour>
	</outline>
	<anchor name="aboveUC" x="307" y="691"/>
	<anchor name="belowLC" x="355" y="-22"/>
</glyph>
<glyph name="V" format="2">
	<unicode hex="0056"/>
	<advance width="675"/>
	<outline>
		<contour>
			<point x="326" y="-7" type="line"/>
			<point x="366" y="-7" type="line"/>
			<point x="595" y="670" type="line"/>
			<point x="541" y="670" type="line"/>
			<point x="349" y="104" type="line"/>
			<point x="369" y="104" type="line"/>
			<point x="170" y="670" type="line"/>
			<point x="74" y="670" type="line"/>
		</contour>
		<contour>
			<point x="15" y="630" type="line"/>
			<point x="145" y="615" type="line"/>
			<point x="165" y="615" type="line"/>
			<point x="285" y="625" type="line"/>
			<point x="285" y="670" type="line"/>
			<point x="15" y="670" type="line"/>
		</contour>
		<contour>
			<point x="434" y="625" type="line"/>
			<point x="534" y="615" type="line"/>
			<point x="554" y="615" type="line"/>
			<point x="665" y="630" type="line"/>
			<point x="665" y="670" type="line"/>
			<point x="434" y="670" type="line"/>
		</contour>
	</outline>
	<anchor name="aboveUC" x="348" y="691"/>
	<anchor name="belowLC" x="347" y="-22"/>
</glyph>
<glyph name="X" format="2">
	<unicode hex="0058"/>
	<advance width="648"/>
	<outline>
		<contour>
			<point x="10" y="0" type="line"/>
			<point x="239" y="0" type="line"/>
			<point x="239" y="41" type="line"/>
			<point x="139" y="55" type="line"/>
			<point x="119" y="55" type="line"/>
			<point x="10" y="41" type="line"/>
		</contour>
		<contour>
			<point x="70" y="0" type="line"/>
			<point x="128" y="0" type="line"/>
			<point x="320" y="303" type="line"/>
			<point x="336" y="328" type="line"/>
			<point x="343" y="328" type="line"/>
			<point x="303" y="354" type="line"/>
		</contour>
		<contour>
			<point x="356" y="0" type="line"/>
			<point x="639" y="0" type="line"/>
			<point x="639" y="41" type="line"/>
			<point x="508" y="56" type="line"/>
			<point x="486" y="56" type="line"/>
			<point x="356" y="41" type="line"/>
		</contour>
		<contour>
			<point x="354" y="346" type="line"/>
			<point x="563" y="670" type="line"/>
			<point x="506" y="670" type="line"/>
			<point x="332" y="390" type="line"/>
			<point x="321" y="373" type="line"/>
			<point x="316" y="373" type="line"/>
		</contour>
		<contour>
			<point x="479" y="0" type="line"/>
			<point x="584" y="0" type="line"/>
			<point x="181" y="670" type="line"/>
			<point x="76" y="670" type="line"/>
		</contour>
		<contour>
			<point x="19" y="629" type="line"/>
			<point x="148" y="614" type="line"/>
			<point x="170" y="614" type="line"/>
			<point x="300" y="629" type="line"/>
			<point x="300" y="670" type="line"/>
			<point x="19" y="670" type="line"/>
		</contour>
		<contour>
			<point x="388" y="629" type="line"/>
			<point x="488" y="615" type="line"/>
			<point x="508" y="615" type="line"/>
			<point x="617" y="629" type="line"/>
			<point x="617" y="670" type="line"/>
			<point x="388" y="670" type="line"/>
		</contour>
	</outline>
	<anchor name="aboveUC" x="342" y="690"/>
	<anchor name="belowLC" x="303" y="-20"/>
</glyph>
<glyph name="Y" format="2">
	<unicode hex="0059"/>
	<advance width="633"/>
	<outline>
		<contour>
			<point x="167" y="0" type="line"/>
			<point x="469" y="0" type="line"/>
			<point x="469" y="41" type="line"/>
			<point x="328" y="56" type="line"/>
			<point x="307" y="56" type="line"/>
			<point x="167" y="41" type="line"/>
		</contour>
		<contour>
			<point x="268" y="0" type="curve"/>
			<point x="368" y="0" type="line"/>
			<point x="365" y="89"/>
			<point x="365" y="184"/>
			<point x="365" y="301" type="curve"/>
			<point x="271" y="301" type="line"/>
			<point x="271" y="183"/>
			<point x="271" y="87"/>
		</contour>
		<contour>
			<point x="288" y="224" type="line"/>
			<point x="346" y="224" type="line"/>
			<point x="561" y="670" type="line"/>
			<point x="509" y="670" type="line"/>
			<point x="332" y="294" type="line"/>
			<point x="324" y="278" type="line"/>
			<point x="358" y="278" type="line"/>
			<point x="178" y="670" type="line"/>
			<point x="69" y="670" type="line"/>
		</contour>
		<contour>
			<point x="25" y="629" type="line"/>
			<point x="146" y="614" type="line"/>
			<point x="167" y="614" type="line"/>
			<point x="297" y="629" type="line"/>
			<point x="297" y="670" type="line"/>
			<point x="25" y="670" type="line"/>
		</contour>
		<contour>
			<point x="394" y="629" type="line"/>
			<point x="504" y="614" type="line"/>
			<point x="524" y="614" type="line"/>
			<point x="623" y="629" type="line"/>
			<point x="623" y="670" type="line"/>
			<point x="394" y="670" type="line"/>
		</contour>
	</outline>
	<anchor name="aboveUC" x="345" y="690"/>
	<anchor name="belowLC" x="319" y="-20"/>
</glyph>
<glyph name="Z" format="2">
	<unicode hex="005A"/>
	<advance width="550"/>
	<outline>
		<contour>
			<point x="20" y="0" type="line"/>
			<point x="522" y="0" type="line"/>
			<point x="530" y="178" type="line"/>
			<point x="470" y="178" type="line"/>
			<point x="437" y="21" type="line"/>
			<point x="473" y="50" type="line"/>
			<point x="97" y="50" type="line"/>
			<point x="111" y="25" type="line"/>
			<point x="508" y="635" type="line"/>
			<point x="508" y="670" type="line"/>
			<point x="38" y="670" type="line"/>
			<point x="30" y="492" type="line"/>
			<point x="90" y="492" type="line"/>
			<point x="123" y="649" type="line"/>
			<point x="87" y="620" type="line"/>
			<point x="432" y="620" type="line"/>
			<point x="418" y="645" type="line"/>
			<point x="20" y="35" type="line"/>
		</contour>
	</outline>
	<anchor name="aboveUC" x="283" y="691"/>
	<anchor name="belowLC" x="283" y="-22"/>
</glyph>
<glyph name="bracketleft" format="2">
	<unicode hex="005B"/>
	<advance width="318"/>
	<outline>
		<contour>
			<point x="138" y="-159" type="line"/>
			<point x="288" y="-159" type="line"/>
			<point x="288" y="-119" type="line"/>
			<point x="158" y="-104" type="line"/>
			<point x="138" y="-104" type="line"/>
		</contour>
		<contour>
			<point x="138" y="660" type="line"/>
			<point x="158" y="660" type="line"/>
			<point x="288" y="675" type="line"/>
			<point x="288" y="715" type="line"/>
			<point x="138" y="715" type="line"/>
		</contour>
		<contour>
			<point x="103" y="158" type="line" smooth="yes"/>
			<point x="103" y="51"/>
			<point x="103" y="-56"/>
			<point x="100" y="-159" type="curve"/>
			<point x="176" y="-159" type="line"/>
			<point x="173" y="-54"/>
			<point x="173" y="53"/>
			<point x="173" y="158" type="curve" smooth="yes"/>
			<point x="173" y="398" type="line" smooth="yes"/>
			<point x="173" y="505"/>
			<point x="173" y="612"/>
			<point x="176" y="715" type="curve"/>
			<point x="100" y="715" type="line"/>
			<point x="103" y="610"/>
			<point x="103" y="503"/>
			<point x="103" y="398" type="curve" smooth="yes"/>
		</contour>
	</outline>
</glyph>
<glyph name="backslash" format="2">
	<unicode hex="005C"/>
	<advance width="330"/>
	<outline>
		<contour>
			<point x="328" y="-160" type="line"/>
			<point x="61" y="710" type="line"/>
			<point x="2" y="710" type="line"/>
			<point x="269" y="-160" type="line"/>
		</contour>
	</outline>
</glyph>
<glyph name="grave" format="2">
	<unicode hex="0060"/>
	<advance width="400"/>
	<outline>
		<contour>
			<point x="256" y="576" type="line"/>
			<point x="227" y="623"/>
			<point x="199" y="669"/>
			<point x="167" y="717" type="curve" smooth="yes"/>
			<point x="148" y="748"/>
			<point x="131" y="758"/>
			<point x="113" y="758" type="curve" smooth="yes"/>
			<point x="93" y="758"/>
			<point x="75" y="746"/>
			<point x="75" y="720" type="curve" smooth="yes"/>
			<point x="75" y="706"/>
			<point x="81" y="691"/>
			<point x="109" y="665" type="curve" smooth="yes"/>
			<point x="150" y="628"/>
			<point x="189" y="593"/>
			<point x="230" y="557" type="curve"/>
		</contour>
	</outline>
</glyph>
<glyph name="a" format="2">
	<unicode hex="0061"/>
	<advance width="509"/>
	<outline>
		<contour>
			<point x="179" y="-13" type="curve" smooth="yes"/>
			<point x="241" y="-13"/>
			<point x="274" y="15"/>
			<point x="334" y="75" type="curve"/>
			<point x="364" y="75" type="line"/>
			<point x="350" y="125" type="line"/>
			<point x="269" y="65"/>
			<point x="248" y="53"/>
			<point x="214" y="53" type="curve" smooth="yes"/>
			<point x="168" y="53"/>
			<point x="134" y="74"/>
			<point x="134" y="126" type="curve" smooth="yes"/>
			<point x="134" y="157"/>
			<point x="142" y="197"/>
			<point x="233" y="226" type="curve" smooth="yes"/>
			<point x="277" y="240"/>
			<point x="321" y="255"/>
			<point x="366" y="269" type="curve"/>
			<point x="366" y="305" type="line"/>
			<point x="314" y="290"/>
			<point x="263" y="275"/>
			<point x="211" y="260" type="curve" smooth="yes"/>
			<point x="72" y="220"/>
			<point x="45" y="169"/>
			<point x="45" y="112" type="curve" smooth="yes"/>
			<point x="45" y="29"/>
			<point x="106" y="-13"/>
		</contour>
		<contour>
			<point x="416" y="-10" type="curve" smooth="yes"/>
			<point x="451" y="-10"/>
			<point x="479" y="3"/>
			<point x="503" y="42" type="curve"/>
			<point x="483" y="64" type="line"/>
			<point x="472" y="51"/>
			<point x="461" y="42"/>
			<point x="444" y="42" type="curve" smooth="yes"/>
			<point x="422" y="42"/>
			<point x="408" y="58"/>
			<point x="408" y="101" type="curve" smooth="yes"/>
			<point x="408" y="314" type="line" smooth="yes"/>
			<point x="408" y="440"/>
			<point x="358" y="488"/>
			<point x="253" y="488" type="curve" smooth="yes"/>
			<point x="151" y="488"/>
			<point x="77" y="440"/>
			<point x="58" y="364" type="curve"/>
			<point x="61" y="338"/>
			<point x="77" y="323"/>
			<point x="105" y="323" type="curve" smooth="yes"/>
			<point x="132" y="323"/>
			<point x="148" y="340"/>
			<point x="157" y="371" type="curve" smooth="yes"/>
			<point x="182" y="456" type="line"/>
			<point x="140" y="424" type="line"/>
			<point x="178" y="439"/>
			<point x="207" y="442"/>
			<point x="230" y="442" type="curve" smooth="yes"/>
			<point x="296" y="442"/>
			<point x="324" y="418"/>
			<point x="324" y="321" type="curve" smooth="yes"/>
			<point x="324" y="96" type="line"/>
			<point x="324" y="91" type="line"/>
			<point x="324" y="30"/>
			<point x="360" y="-10"/>
		</contour>
	</outline>
	<anchor name="aboveLC" x="251" y="495"/>
	<anchor name="belowLC" x="250" y="-20"/>
	<anchor name="ogonek" x="447" y="0"/>
</glyph>
<glyph name="b" format="2">
	<unicode hex="0062"/>
	<advance width="577"/>
	<outline>
		<contour>
			<point x="30" y="0" type="line"/>
			<point x="180" y="-10" type="line"/>
			<point x="191" y="79" type="line"/>
			<point x="191" y="81" type="line"/>
			<point x="191" y="386" type="line"/>
			<point x="188" y="399" type="line"/>
			<point x="188" y="589" type="line"/>
			<point x="192" y="732" type="line"/>
			<point x="178" y="740" type="line"/>
			<point x="25" y="695" type="line"/>
			<point x="25" y="659" type="line"/>
			<point x="107" y="649" type="line"/>
			<point x="107" y="210" type="line" smooth="yes"/>
			<point x="107" y="165"/>
			<point x="106" y="99"/>
			<point x="105" y="49" type="curve"/>
			<point x="30" y="36" type="line"/>
		</contour>
		<contour>
			<point x="326" y="-13" type="curve" smooth="yes"/>
			<point x="443" y="-13"/>
			<point x="532" y="88"/>
			<point x="532" y="242" type="curve" smooth="yes"/>
			<point x="532" y="397"/>
			<point x="448" y="488"/>
			<point x="342" y="488" type="curve" smooth="yes"/>
			<point x="278" y="488"/>
			<point x="220" y="456"/>
			<point x="165" y="383" type="curve"/>
			<point x="149" y="383" type="line"/>
			<point x="158" y="342" type="line"/>
			<point x="229" y="413"/>
			<point x="278" y="431"/>
			<point x="315" y="431" type="curve" smooth="yes"/>
			<point x="390" y="431"/>
			<point x="442" y="362"/>
			<point x="442" y="234" type="curve" smooth="yes"/>
			<point x="442" y="105"/>
			<point x="381" y="44"/>
			<point x="310" y="44" type="curve" smooth="yes"/>
			<point x="263" y="44"/>
			<point x="210" y="70"/>
			<point x="159" y="135" type="curve"/>
			<point x="150" y="93" type="line"/>
			<point x="164" y="93" type="line"/>
			<point x="214" y="10"/>
			<point x="270" y="-13"/>
		</contour>
	</outline>
	<anchor name="aboveLC" x="150" y="740"/>
	<anchor name="belowLC" x="300" y="-20"/>
</glyph>
<glyph name="c" format="2">
	<unicode hex="0063"/>
	<advance width="486"/>
	<outline>
		<contour>
			<point x="46" y="79"/>
			<point x="132" y="-13"/>
			<point x="274" y="-13" type="curve" smooth="yes"/>
			<point x="367" y="-13"/>
			<point x="422" y="28"/>
			<point x="461" y="100" type="curve"/>
			<point x="440" y="117" type="line"/>
			<point x="394" y="64"/>
			<point x="346" y="50"/>
			<point x="296" y="50" type="curve" smooth="yes"/>
			<point x="203" y="50"/>
			<point x="129" y="105"/>
			<point x="129" y="241" type="curve" smooth="yes"/>
			<point x="129" y="372"/>
			<point x="191" y="442"/>
			<point x="278" y="442" type="curve" smooth="yes"/>
			<point x="306" y="442"/>
			<point x="340" y="435"/>
			<point x="374" y="417" type="curve"/>
			<point x="328" y="454" type="line"/>
			<point x="353" y="366" type="line" smooth="yes"/>
			<point x="360" y="341"/>
			<point x="373" y="321"/>
			<point x="406" y="321" type="curve" smooth="yes"/>
			<point x="431" y="321"/>
			<point x="446" y="333"/>
			<point x="451" y="358" type="curve"/>
			<point x="438" y="432"/>
			<point x="364" y="487"/>
			<point x="275" y="487" type="curve" smooth="yes"/>
			<point x="156" y="487"/>
			<point x="46" y="392"/>
			<point x="46" y="232" type="curve" smooth="yes"/>
		</contour>
	</outline>
	<anchor name="aboveLC" x="273" y="494"/>
	<anchor name="belowLC" x="275" y="-20"/>
	<anchor name="baseLC" x="275" y="0"/>
</glyph>
<glyph name="d" format="2">
	<unicode hex="0064"/>
	<advance width="565"/>
	<outline>
		<contour>
			<point x="46" y="88"/>
			<point x="128" y="-13"/>
			<point x="250" y="-13" type="curve" smooth="yes"/>
			<point x="320" y="-13"/>
			<point x="366" y="20"/>
			<point x="402" y="77" type="curve"/>
			<point x="413" y="77" type="line"/>
			<point x="404" y="123" type="line"/>
			<point x="358" y="64"/>
			<point x="323" y="42"/>
			<point x="272" y="42" type="curve" smooth="yes"/>
			<point x="191" y="42"/>
			<point x="131" y="102"/>
			<point x="131" y="235" type="curve" smooth="yes"/>
			<point x="131" y="372"/>
			<point x="196" y="432"/>
			<point x="271" y="432" type="curve" smooth="yes"/>
			<point x="309" y="432"/>
			<point x="349" y="416"/>
			<point x="407" y="360" type="curve"/>
			<point x="417" y="407" type="line"/>
			<point x="402" y="407" type="line"/>
			<point x="355" y="468"/>
			<point x="310" y="487"/>
			<point x="259" y="487" type="curve" smooth="yes"/>
			<point x="136" y="487"/>
			<point x="46" y="385"/>
			<point x="46" y="233" type="curve" smooth="yes"/>
		</contour>
		<contour>
			<point x="397" y="-10" type="line"/>
			<point x="550" y="0" type="line"/>
			<point x="550" y="35" type="line"/>
			<point x="467" y="48" type="line"/>
			<point x="467" y="590" type="line"/>
			<point x="471" y="732" type="line"/>
			<point x="457" y="740" type="line"/>
			<point x="304" y="695" type="line"/>
			<point x="304" y="660" type="line"/>
			<point x="390" y="650" type="line"/>
			<point x="390" y="398" type="line"/>
			<point x="387" y="385" type="line"/>
			<point x="387" y="92" type="line"/>
		</contour>
	</outline>
	<anchor name="aboveLC" x="396" y="739"/>
	<anchor name="belowLC" x="286" y="-22"/>
</glyph>
<glyph name="e" format="2">
	<unicode hex="0065"/>
	<advance width="509"/>
	<outline>
		<contour>
			<point x="46" y="78"/>
			<point x="136" y="-13"/>
			<point x="277" y="-13" type="curve" smooth="yes"/>
			<point x="378" y="-13"/>
			<point x="427" y="31"/>
			<point x="467" y="100" type="curve"/>
			<point x="447" y="116" type="line"/>
			<point x="407" y="69"/>
			<point x="360" y="50"/>
			<point x="298" y="50" type="curve" smooth="yes"/>
			<point x="192" y="50"/>
			<point x="129" y="118"/>
			<point x="129" y="243" type="curve" smooth="yes"/>
			<point x="129" y="388"/>
			<point x="204" y="442"/>
			<point x="274" y="442" type="curve" smooth="yes"/>
			<point x="339" y="442"/>
			<point x="380" y="402"/>
			<point x="380" y="333" type="curve" smooth="yes"/>
			<point x="380" y="305"/>
			<point x="369" y="282"/>
			<point x="315" y="282" type="curve" smooth="yes"/>
			<point x="83" y="282" type="line"/>
			<point x="83" y="240" type="line"/>
			<point x="452" y="240" type="line"/>
			<point x="456" y="253"/>
			<point x="459" y="273"/>
			<point x="459" y="296" type="curve" smooth="yes"/>
			<point x="459" y="417"/>
			<point x="377" y="487"/>
			<point x="274" y="487" type="curve" smooth="yes"/>
			<point x="150" y="487"/>
			<point x="46" y="385"/>
			<point x="46" y="232" type="curve" smooth="yes"/>
		</contour>
	</outline>
	<anchor name="aboveLC" x="276" y="494"/>
	<anchor name="belowLC" x="284" y="-20"/>
	<anchor name="ogonek" x="343" y="0"/>
</glyph>
<glyph name="f" format="2">
	<unicode hex="0066"/>
	<advance width="354"/>
	<outline>
		<contour>
			<point x="36" y="0" type="line"/>
			<point x="294" y="0" type="line"/>
			<point x="294" y="36" type="line"/>
			<point x="172" y="56" type="line"/>
			<point x="148" y="56" type="line"/>
			<point x="36" y="36" type="line"/>
		</contour>
		<contour>
			<point x="114" y="0" type="curve"/>
			<point x="205" y="0" type="line"/>
			<point x="203" y="70"/>
			<point x="202" y="140"/>
			<point x="202" y="210" type="curve" smooth="yes"/>
			<point x="202" y="435" type="line"/>
			<point x="194" y="568"/>
			<point x="208" y="626"/>
			<point x="236" y="669" type="curve" smooth="yes"/>
			<point x="258" y="704"/>
			<point x="280" y="715"/>
			<point x="318" y="721" type="curve"/>
			<point x="318" y="727" type="line"/>
			<point x="246" y="727" type="line"/>
			<point x="246" y="718" type="line"/>
			<point x="293" y="681" type="line" smooth="yes"/>
			<point x="318" y="661"/>
			<point x="340" y="650"/>
			<point x="365" y="650" type="curve" smooth="yes"/>
			<point x="402" y="650"/>
			<point x="424" y="670"/>
			<point x="426" y="696" type="curve"/>
			<point x="416" y="735"/>
			<point x="377" y="750"/>
			<point x="330" y="750" type="curve" smooth="yes"/>
			<point x="284" y="750"/>
			<point x="240" y="738"/>
			<point x="200" y="699" type="curve" smooth="yes"/>
			<point x="142" y="644"/>
			<point x="127" y="581"/>
			<point x="118" y="471" type="curve"/>
			<point x="117" y="465" type="line"/>
			<point x="148" y="481" type="line"/>
			<point x="34" y="466" type="line"/>
			<point x="34" y="422" type="line"/>
			<point x="117" y="422" type="line"/>
			<point x="117" y="210" type="line" smooth="yes"/>
			<point x="117" y="140"/>
			<point x="116" y="70"/>
		</contour>
		<contour>
			<point x="159" y="422" type="line"/>
			<point x="338" y="422" type="line"/>
			<point x="338" y="475" type="line"/>
			<point x="159" y="475" type="line"/>
		</contour>
	</outline>
	<anchor name="aboveLC" x="304" y="740"/>
	<anchor name="belowLC" x="159" y="-20"/>
</glyph>
<glyph name="g" format="2">
	<unicode hex="0067"/>
	<advance width="516"/>
	<outline>
		<contour>
			<point x="37" y="-190"/>
			<point x="100" y="-240"/>
			<point x="244" y="-240" type="curve" smooth="yes"/>
			<point x="406" y="-240"/>
			<point x="488" y="-154"/>
			<point x="488" y="-68" type="curve" smooth="yes"/>
			<point x="488" y="13"/>
			<point x="437" y="60"/>
			<point x="330" y="60" type="curve" smooth="yes"/>
			<point x="198" y="60" type="line" smooth="yes"/>
			<point x="151" y="60"/>
			<point x="140" y="78"/>
			<point x="140" y="105" type="curve" smooth="yes"/>
			<point x="140" y="135"/>
			<point x="153" y="157"/>
			<point x="183" y="189" type="curve"/>
			<point x="149" y="204" type="line"/>
			<point x="149" y="193" type="line"/>
			<point x="90" y="140"/>
			<point x="70" y="105"/>
			<point x="70" y="72" type="curve" smooth="yes"/>
			<point x="70" y="30"/>
			<point x="96" y="4"/>
			<point x="147" y="-7" type="curve"/>
			<point x="147" y="-10" type="line"/>
			<point x="162" y="-12"/>
			<point x="180" y="-13"/>
			<point x="197" y="-13" type="curve" smooth="yes"/>
			<point x="315" y="-13" type="line" smooth="yes"/>
			<point x="388" y="-13"/>
			<point x="416" y="-47"/>
			<point x="416" y="-92" type="curve" smooth="yes"/>
			<point x="416" y="-149"/>
			<point x="357" y="-195"/>
			<point x="247" y="-195" type="curve" smooth="yes"/>
			<point x="169" y="-195"/>
			<point x="118" y="-169"/>
			<point x="118" y="-103" type="curve" smooth="yes"/>
			<point x="118" y="-64"/>
			<point x="134" y="-34"/>
			<point x="174" y="5" type="curve"/>
			<point x="169" y="11" type="line"/>
			<point x="68" y="-32"/>
			<point x="37" y="-69"/>
			<point x="37" y="-118" type="curve" smooth="yes"/>
		</contour>
		<contour>
			<point x="60" y="213"/>
			<point x="136" y="159"/>
			<point x="239" y="159" type="curve" smooth="yes"/>
			<point x="340" y="159"/>
			<point x="418" y="217"/>
			<point x="418" y="323" type="curve" smooth="yes"/>
			<point x="418" y="433"/>
			<point x="342" y="487"/>
			<point x="240" y="487" type="curve" smooth="yes"/>
			<point x="138" y="487"/>
			<point x="60" y="429"/>
			<point x="60" y="323" type="curve" smooth="yes"/>
		</contour>
		<contour>
			<point x="340" y="252"/>
			<point x="301" y="199"/>
			<point x="236" y="199" type="curve" smooth="yes"/>
			<point x="174" y="199"/>
			<point x="138" y="249"/>
			<point x="138" y="322" type="curve" smooth="yes"/>
			<point x="138" y="395"/>
			<point x="177" y="447"/>
			<point x="241" y="447" type="curve" smooth="yes"/>
			<point x="304" y="447"/>
			<point x="340" y="397"/>
			<point x="340" y="326" type="curve" smooth="yes"/>
		</contour>
		<contour>
			<point x="340" y="415" type="line"/>
			<point x="493" y="415" type="line"/>
			<point x="493" y="477" type="line"/>
			<point x="478" y="487" type="line"/>
			<point x="346" y="442" type="line"/>
			<point x="340" y="442" type="line"/>
		</contour>
	</outline>
	<anchor name="aboveLC" x="259" y="506"/>
	<anchor name="belowLC" x="264" y="-243"/>
</glyph>
<glyph name="h" format="2">
	<unicode hex="0068"/>
	<advance width="600"/>
	<outline>
		<contour>
			<point x="30" y="0" type="line"/>
			<point x="260" y="0" type="line"/>
			<point x="260" y="35" type="line"/>
			<point x="160" y="55" type="line"/>
			<point x="140" y="55" type="line"/>
			<point x="30" y="35" type="line"/>
		</contour>
		<contour>
			<point x="108" y="148"/>
			<point x="107" y="45"/>
			<point x="105" y="0" type="curve"/>
			<point x="191" y="0" type="line"/>
			<point x="189" y="45"/>
			<point x="188" y="148"/>
			<point x="188" y="210" type="curve" smooth="yes"/>
			<point x="188" y="365" type="line"/>
			<point x="185" y="378" type="line"/>
			<point x="185" y="590" type="line"/>
			<point x="189" y="732" type="line"/>
			<point x="175" y="740" type="line"/>
			<point x="25" y="695" type="line"/>
			<point x="25" y="660" type="line"/>
			<point x="108" y="650" type="line"/>
			<point x="108" y="210" type="line" smooth="yes"/>
		</contour>
		<contour>
			<point x="339" y="0" type="line"/>
			<point x="569" y="0" type="line"/>
			<point x="569" y="35" type="line"/>
			<point x="469" y="55" type="line"/>
			<point x="449" y="55" type="line"/>
			<point x="339" y="35" type="line"/>
		</contour>
		<contour>
			<point x="416" y="146"/>
			<point x="415" y="45"/>
			<point x="413" y="0" type="curve"/>
			<point x="499" y="0" type="line"/>
			<point x="497" y="45"/>
			<point x="496" y="146"/>
			<point x="496" y="210" type="curve" smooth="yes"/>
			<point x="496" y="302" type="line" smooth="yes"/>
			<point x="496" y="434"/>
			<point x="455" y="487"/>
			<point x="369" y="487" type="curve" smooth="yes"/>
			<point x="301" y="487"/>
			<point x="224" y="442"/>
			<point x="176" y="384" type="curve"/>
			<point x="165" y="384" type="line"/>
			<point x="184" y="348" type="line"/>
			<point x="241" y="399"/>
			<point x="282" y="417"/>
			<point x="332" y="417" type="curve" smooth="yes"/>
			<point x="392" y="417"/>
			<point x="416" y="387"/>
			<point x="416" y="294" type="curve" smooth="yes"/>
			<point x="416" y="210" type="line" smooth="yes"/>
		</contour>
	</outline>
	<anchor name="aboveLC" x="137" y="739"/>
	<anchor name="belowLC" x="313" y="-22"/>
</glyph>
<glyph name="i" format="2">
	<unicode hex="0069"/>
	<advance width="297"/>
	<outline>
		<contour>
			<point x="35" y="0" type="line"/>
			<point x="265" y="0" type="line"/>
			<point x="265" y="35" type="line"/>
			<point x="165" y="55" type="line"/>
			<point x="145" y="55" type="line"/>
			<point x="35" y="35" type="line"/>
		</contour>
		<contour>
			<point x="110" y="0" type="curve"/>
			<point x="196" y="0" type="line"/>
			<point x="194" y="45"/>
			<point x="193" y="148"/>
			<point x="193" y="210" type="curve" smooth="yes"/>
			<point x="193" y="342" type="line"/>
			<point x="196" y="477" type="line"/>
			<point x="181" y="487" type="line"/>
			<point x="30" y="427" type="line"/>
			<point x="30" y="392" type="line"/>
			<point x="110" y="383" type="line"/>
			<point x="112" y="343"/>
			<point x="113" y="312"/>
			<point x="113" y="257" type="curve" smooth="yes"/>
			<point x="113" y="210" type="line" smooth="yes"/>
			<point x="113" y="148"/>
			<point x="112" y="45"/>
		</contour>
		<contour>
			<point x="152" y="600" type="curve" smooth="yes"/>
			<point x="189" y="600"/>
			<point x="218" y="626"/>
			<point x="218" y="663" type="curve" smooth="yes"/>
			<point x="218" y="701"/>
			<point x="189" y="726"/>
			<point x="152" y="726" type="curve" smooth="yes"/>
			<point x="115" y="726"/>
			<point x="86" y="701"/>
			<point x="86" y="663" type="curve" smooth="yes"/>
			<point x="86" y="626"/>
			<point x="115" y="600"/>
		</contour>
	</outline>
	<anchor name="aboveLC" x="152" y="706"/>
	<anchor name="belowLC" x="155" y="-22"/>
	<anchor name="ogonek" x="186" y="0"/>
</glyph>
<glyph name="j" format="2">
	<unicode hex="006A"/>
	<advance width="277"/>
	<outline>
		<contour>
			<point x="6" y="-250" type="curve" smooth="yes"/>
			<point x="65" y="-250"/>
			<point x="95" y="-230"/>
			<point x="130" y="-195" type="curve" smooth="yes"/>
			<point x="184" y="-141"/>
			<point x="192" y="-63"/>
			<point x="192" y="100" type="curve" smooth="yes"/>
			<point x="192" y="342" type="line"/>
			<point x="195" y="478" type="line"/>
			<point x="180" y="488" type="line"/>
			<point x="29" y="427" type="line"/>
			<point x="29" y="392" type="line"/>
			<point x="108" y="383" type="line"/>
			<point x="110" y="343"/>
			<point x="111" y="312"/>
			<point x="111" y="257" type="curve" smooth="yes"/>
			<point x="111" y="102" type="line" smooth="yes"/>
			<point x="111" y="-48"/>
			<point x="106" y="-129"/>
			<point x="90" y="-171" type="curve" smooth="yes"/>
			<point x="81" y="-194"/>
			<point x="70" y="-205"/>
			<point x="56" y="-211" type="curve"/>
			<point x="56" y="-220" type="line"/>
			<point x="96" y="-220" type="line"/>
			<point x="96" y="-215" type="line"/>
			<point x="51" y="-181" type="line" smooth="yes"/>
			<point x="25" y="-161"/>
			<point x="3" y="-151"/>
			<point x="-24" y="-151" type="curve" smooth="yes"/>
			<point x="-53" y="-151"/>
			<point x="-74" y="-164"/>
			<point x="-83" y="-192" type="curve"/>
			<point x="-82" y="-218"/>
			<point x="-54" y="-250"/>
		</contour>
		<contour>
			<point x="148" y="589" type="curve" smooth="yes"/>
			<point x="186" y="589"/>
			<point x="215" y="615"/>
			<point x="215" y="653" type="curve" smooth="yes"/>
			<point x="215" y="690"/>
			<point x="186" y="717"/>
			<point x="148" y="717" type="curve" smooth="yes"/>
			<point x="110" y="717"/>
			<point x="81" y="690"/>
			<point x="81" y="653" type="curve" smooth="yes"/>
			<point x="81" y="615"/>
			<point x="110" y="589"/>
		</contour>
	</outline>
	<anchor name="aboveLC" x="153" y="717"/>
	<anchor name="belowLC" x="64" y="-260"/>
</glyph>
<glyph name="k" format="2">
	<unicode hex="006B"/>
	<advance width="544"/>
	<outline>
		<contour>
			<point x="25" y="0" type="line"/>
			<point x="271" y="0" type="line"/>
			<point x="271" y="35" type="line"/>
			<point x="158" y="55" type="line"/>
			<point x="138" y="55" type="line"/>
			<point x="25" y="35" type="line"/>
		</contour>
		<contour>
			<point x="108" y="140"/>
			<point x="107" y="70"/>
			<point x="105" y="0" type="curve"/>
			<point x="191" y="0" type="line"/>
			<point x="189" y="70"/>
			<point x="188" y="140"/>
			<point x="188" y="210" type="curve" smooth="yes"/>
			<point x="188" y="590" type="line"/>
			<point x="192" y="732" type="line"/>
			<point x="178" y="740" type="line"/>
			<point x="25" y="695" type="line"/>
			<point x="25" y="660" type="line"/>
			<point x="108" y="650" type="line"/>
			<point x="108" y="210" type="line" smooth="yes"/>
		</contour>
		<contour>
			<point x="148" y="138" type="line"/>
			<point x="475" y="474" type="line"/>
			<point x="414" y="474" type="line"/>
			<point x="148" y="196" type="line"/>
		</contour>
		<contour>
			<point x="412" y="0" type="line"/>
			<point x="544" y="0" type="line"/>
			<point x="544" y="35" type="line"/>
			<point x="478" y="47" type="line"/>
			<point x="301" y="324" type="line"/>
			<point x="245" y="266" type="line"/>
		</contour>
		<contour>
			<point x="285" y="436" type="line"/>
			<point x="377" y="413" type="line"/>
			<point x="407" y="419" type="line"/>
			<point x="518" y="436" type="line"/>
			<point x="518" y="474" type="line"/>
			<point x="286" y="474" type="line"/>
		</contour>
	</outline>
	<anchor name="aboveLC" x="149" y="739"/>
	<anchor name="belowLC" x="306" y="-22"/>
</glyph>
<glyph name="l" format="2">
	<unicode hex="006C"/>
	<advance width="298"/>
	<outline>
		<contour>
			<point x="25" y="0" type="line"/>
			<point x="273" y="0" type="line"/>
			<point x="273" y="36" type="line"/>
			<point x="160" y="56" type="line"/>
			<point x="137" y="56" type="line"/>
			<point x="25" y="36" type="line"/>
		</contour>
		<contour>
			<point x="104" y="0" type="curve"/>
			<point x="194" y="0" type="line"/>
			<point x="192" y="70"/>
			<point x="191" y="140"/>
			<point x="191" y="210" type="curve" smooth="yes"/>
			<point x="191" y="589" type="line"/>
			<point x="195" y="732" type="line"/>
			<point x="181" y="740" type="line"/>
			<point x="25" y="695" type="line"/>
			<point x="25" y="659" type="line"/>
			<point x="107" y="649" type="line"/>
			<point x="107" y="210" type="line" smooth="yes"/>
			<point x="107" y="140"/>
			<point x="106" y="70"/>
		</contour>
	</outline>
	<anchor name="aboveLC" x="150" y="740"/>
	<anchor name="belowLC" x="150" y="-20"/>
</glyph>
<glyph name="m" format="2">
	<unicode hex="006D"/>
	<advance width="901"/>
	<outline>
		<contour>
			<point x="41" y="0" type="line"/>
			<point x="271" y="0" type="line"/>
			<point x="271" y="35" type="line"/>
			<point x="171" y="55" type="line"/>
			<point x="151" y="55" type="line"/>
			<point x="41" y="35" type="line"/>
		</contour>
		<contour>
			<point x="115" y="0" type="curve"/>
			<point x="201" y="0" type="line"/>
			<point x="199" y="45"/>
			<point x="198" y="148"/>
			<point x="198" y="210" type="curve" smooth="yes"/>
			<point x="198" y="361" type="line"/>
			<point x="186" y="477" type="line"/>
			<point x="171" y="487" type="line"/>
			<point x="35" y="427" type="line"/>
			<point x="35" y="392" type="line"/>
			<point x="115" y="383" type="line"/>
			<point x="117" y="343"/>
			<point x="118" y="312"/>
			<point x="118" y="257" type="curve" smooth="yes"/>
			<point x="118" y="210" type="line" smooth="yes"/>
			<point x="118" y="148"/>
			<point x="117" y="45"/>
		</contour>
		<contour>
			<point x="341" y="0" type="line"/>
			<point x="571" y="0" type="line"/>
			<point x="571" y="35" type="line"/>
			<point x="471" y="55" type="line"/>
			<point x="451" y="55" type="line"/>
			<point x="341" y="35" type="line"/>
		</contour>
		<contour>
			<point x="415" y="0" type="curve"/>
			<point x="501" y="0" type="line"/>
			<point x="499" y="45"/>
			<point x="498" y="146"/>
			<point x="498" y="210" type="curve" smooth="yes"/>
			<point x="498" y="302" type="line" smooth="yes"/>
			<point x="498" y="434"/>
			<point x="457" y="487"/>
			<point x="371" y="487" type="curve" smooth="yes"/>
			<point x="303" y="487"/>
			<point x="229" y="441"/>
			<point x="182" y="381" type="curve"/>
			<point x="173" y="381" type="line"/>
			<point x="190" y="348" type="line"/>
			<point x="246" y="397"/>
			<point x="285" y="417"/>
			<point x="334" y="417" type="curve" smooth="yes"/>
			<point x="394" y="417"/>
			<point x="418" y="387"/>
			<point x="418" y="294" type="curve" smooth="yes"/>
			<point x="418" y="210" type="line" smooth="yes"/>
			<point x="418" y="146"/>
			<point x="417" y="45"/>
		</contour>
		<contour>
			<point x="641" y="0" type="line"/>
			<point x="871" y="0" type="line"/>
			<point x="871" y="35" type="line"/>
			<point x="771" y="55" type="line"/>
			<point x="751" y="55" type="line"/>
			<point x="641" y="35" type="line"/>
		</contour>
		<contour>
			<point x="715" y="0" type="curve"/>
			<point x="801" y="0" type="line"/>
			<point x="799" y="45"/>
			<point x="798" y="146"/>
			<point x="798" y="210" type="curve" smooth="yes"/>
			<point x="798" y="313" type="line" smooth="yes"/>
			<point x="798" y="437"/>
			<point x="751" y="487"/>
			<point x="671" y="487" type="curve" smooth="yes"/>
			<point x="601" y="487"/>
			<point x="529" y="450"/>
			<point x="477" y="379" type="curve"/>
			<point x="470" y="379" type="line"/>
			<point x="490" y="348" type="line"/>
			<point x="546" y="399"/>
			<point x="588" y="417"/>
			<point x="633" y="417" type="curve" smooth="yes"/>
			<point x="692" y="417"/>
			<point x="718" y="390"/>
			<point x="718" y="296" type="curve" smooth="yes"/>
			<point x="718" y="210" type="line" smooth="yes"/>
			<point x="718" y="146"/>
			<point x="717" y="45"/>
		</contour>
	</outline>
	<anchor name="aboveLC" x="451" y="506"/>
	<anchor name="belowLC" x="459" y="-22"/>
</glyph>
<glyph name="n" format="2">
	<unicode hex="006E"/>
	<advance width="605"/>
	<outline>
		<contour>
			<point x="41" y="0" type="line"/>
			<point x="271" y="0" type="line"/>
			<point x="271" y="35" type="line"/>
			<point x="171" y="55" type="line"/>
			<point x="151" y="55" type="line"/>
			<point x="41" y="35" type="line"/>
		</contour>
		<contour>
			<point x="115" y="0" type="curve"/>
			<point x="201" y="0" type="line"/>
			<point x="199" y="45"/>
			<point x="198" y="148"/>
			<point x="198" y="210" type="curve" smooth="yes"/>
			<point x="198" y="361" type="line"/>
			<point x="186" y="477" type="line"/>
			<point x="171" y="487" type="line"/>
			<point x="35" y="427" type="line"/>
			<point x="35" y="392" type="line"/>
			<point x="115" y="383" type="line"/>
			<point x="117" y="343"/>
			<point x="118" y="312"/>
			<point x="118" y="257" type="curve" smooth="yes"/>
			<point x="118" y="210" type="line" smooth="yes"/>
			<point x="118" y="148"/>
			<point x="117" y="45"/>
		</contour>
		<contour>
			<point x="345" y="0" type="line"/>
			<point x="575" y="0" type="line"/>
			<point x="575" y="35" type="line"/>
			<point x="475" y="55" type="line"/>
			<point x="455" y="55" type="line"/>
			<point x="345" y="35" type="line"/>
		</contour>
		<contour>
			<point x="419" y="0" type="curve"/>
			<point x="505" y="0" type="line"/>
			<point x="503" y="45"/>
			<point x="502" y="146"/>
			<point x="502" y="210" type="curve" smooth="yes"/>
			<point x="502" y="302" type="line" smooth="yes"/>
			<point x="502" y="434"/>
			<point x="461" y="487"/>
			<point x="375" y="487" type="curve" smooth="yes"/>
			<point x="307" y="487"/>
			<point x="232" y="443"/>
			<point x="184" y="384" type="curve"/>
			<point x="177" y="384" type="line"/>
			<point x="190" y="348" type="line"/>
			<point x="247" y="397"/>
			<point x="288" y="417"/>
			<point x="338" y="417" type="curve" smooth="yes"/>
			<point x="398" y="417"/>
			<point x="422" y="387"/>
			<point x="422" y="294" type="curve" smooth="yes"/>
			<point x="422" y="210" type="line" smooth="yes"/>
			<point x="422" y="146"/>
			<point x="421" y="45"/>
		</contour>
	</outline>
	<anchor name="aboveLC" x="309" y="506"/>
	<anchor name="belowLC" x="313" y="-22"/>
</glyph>
<glyph name="o" format="2">
	<unicode hex="006F"/>
	<advance width="548"/>
	<outline>
		<contour>
			<point x="274" y="-13" type="curve" smooth="yes"/>
			<point x="387" y="-13"/>
			<point x="502" y="69"/>
			<point x="502" y="235" type="curve" smooth="yes"/>
			<point x="502" y="401"/>
			<point x="387" y="487"/>
			<point x="274" y="487" type="curve" smooth="yes"/>
			<point x="159" y="487"/>
			<point x="46" y="401"/>
			<point x="46" y="235" type="curve" smooth="yes"/>
			<point x="46" y="69"/>
			<point x="159" y="-13"/>
		</contour>
		<contour>
			<point x="274" y="32" type="curve" smooth="yes"/>
			<point x="185" y="32"/>
			<point x="136" y="101"/>
			<point x="136" y="235" type="curve" smooth="yes"/>
			<point x="136" y="369"/>
			<point x="185" y="442"/>
			<point x="274" y="442" type="curve" smooth="yes"/>
			<point x="361" y="442"/>
			<point x="412" y="369"/>
			<point x="412" y="235" type="curve" smooth="yes"/>
			<point x="412" y="101"/>
			<point x="361" y="32"/>
		</contour>
	</outline>
	<anchor name="aboveLC" x="274" y="506"/>
	<anchor name="belowLC" x="275" y="-22"/>
	<anchor name="hornLC" x="392" y="480"/>
	<anchor name="ogonek" x="350" y="0"/>
</glyph>
<glyph name="p" format="2">
	<unicode hex="0070"/>
	<advance width="581"/>
	<outline>
		<contour>
			<point x="35" y="-240" type="line"/>
			<point x="291" y="-240" type="line"/>
			<point x="291" y="-205" type="line"/>
			<point x="168" y="-185" type="line"/>
			<point x="148" y="-185" type="line"/>
			<point x="35" y="-205" type="line"/>
		</contour>
		<contour>
			<point x="119" y="-100"/>
			<point x="118" y="-170"/>
			<point x="116" y="-240" type="curve"/>
			<point x="199" y="-240" type="line"/>
			<point x="197" y="-170"/>
			<point x="196" y="-98"/>
			<point x="196" y="-28" type="curve" smooth="yes"/>
			<point x="196" y="72" type="line"/>
			<point x="199" y="78" type="line"/>
			<point x="199" y="390" type="line"/>
			<point x="195" y="392" type="line"/>
			<point x="187" y="477" type="line"/>
			<point x="172" y="487" type="line"/>
			<point x="36" y="427" type="line"/>
			<point x="36" y="392" type="line"/>
			<point x="116" y="383" type="line"/>
			<point x="118" y="343"/>
			<point x="119" y="312"/>
			<point x="119" y="257" type="curve" smooth="yes"/>
			<point x="119" y="-30" type="line" smooth="yes"/>
		</contour>
		<contour>
			<point x="223" y="8"/>
			<point x="277" y="-13"/>
			<point x="330" y="-13" type="curve" smooth="yes"/>
			<point x="447" y="-13"/>
			<point x="535" y="85"/>
			<point x="535" y="239" type="curve" smooth="yes"/>
			<point x="535" y="393"/>
			<point x="451" y="487"/>
			<point x="345" y="487" type="curve" smooth="yes"/>
			<point x="285" y="487"/>
			<point x="227" y="457"/>
			<point x="174" y="390" type="curve"/>
			<point x="154" y="390" type="line"/>
			<point x="163" y="343" type="line"/>
			<point x="236" y="414"/>
			<point x="286" y="432"/>
			<point x="323" y="432" type="curve" smooth="yes"/>
			<point x="397" y="432"/>
			<point x="450" y="359"/>
			<point x="450" y="230" type="curve" smooth="yes"/>
			<point x="450" y="101"/>
			<point x="388" y="42"/>
			<point x="312" y="42" type="curve" smooth="yes"/>
			<point x="263" y="42"/>
			<point x="215" y="69"/>
			<point x="163" y="135" type="curve"/>
			<point x="154" y="83" type="line"/>
			<point x="174" y="83" type="line"/>
		</contour>
	</outline>
	<anchor name="aboveLC" x="304" y="506"/>
	<anchor name="belowLC" x="162" y="-251"/>
</glyph>
<glyph name="q" format="2">
	<unicode hex="0071"/>
	<advance width="555"/>
	<outline>
		<contour>
			<point x="299" y="-240" type="line"/>
			<point x="555" y="-240" type="line"/>
			<point x="555" y="-205" type="line"/>
			<point x="442" y="-185" type="line"/>
			<point x="422" y="-185" type="line"/>
			<point x="299" y="-205" type="line"/>
		</contour>
		<contour>
			<point x="46" y="87"/>
			<point x="128" y="-13"/>
			<point x="250" y="-13" type="curve" smooth="yes"/>
			<point x="315" y="-13"/>
			<point x="364" y="16"/>
			<point x="405" y="83" type="curve"/>
			<point x="413" y="83" type="line"/>
			<point x="404" y="123" type="line"/>
			<point x="358" y="65"/>
			<point x="322" y="42"/>
			<point x="272" y="42" type="curve" smooth="yes"/>
			<point x="191" y="42"/>
			<point x="131" y="101"/>
			<point x="131" y="234" type="curve" smooth="yes"/>
			<point x="131" y="371"/>
			<point x="196" y="432"/>
			<point x="271" y="432" type="curve" smooth="yes"/>
			<point x="309" y="432"/>
			<point x="349" y="416"/>
			<point x="407" y="360" type="curve"/>
			<point x="417" y="402" type="line"/>
			<point x="406" y="402" type="line"/>
			<point x="357" y="467"/>
			<point x="307" y="487"/>
			<point x="255" y="487" type="curve" smooth="yes"/>
			<point x="136" y="487"/>
			<point x="46" y="384"/>
			<point x="46" y="232" type="curve" smooth="yes"/>
		</contour>
		<contour>
			<point x="394" y="-98"/>
			<point x="393" y="-170"/>
			<point x="391" y="-240" type="curve"/>
			<point x="474" y="-240" type="line"/>
			<point x="472" y="-170"/>
			<point x="471" y="-98"/>
			<point x="471" y="-28" type="curve" smooth="yes"/>
			<point x="471" y="342" type="line"/>
			<point x="474" y="477" type="line"/>
			<point x="459" y="487" type="line"/>
			<point x="391" y="415" type="line"/>
			<point x="391" y="86" type="line"/>
			<point x="394" y="72" type="line"/>
			<point x="394" y="-28" type="line" smooth="yes"/>
		</contour>
	</outline>
	<anchor name="aboveLC" x="300" y="506"/>
	<anchor name="belowLC" x="427" y="-251"/>
</glyph>
<glyph name="r" format="2">
	<unicode hex="0072"/>
	<advance width="420"/>
	<outline>
		<contour>
			<point x="43" y="0" type="line"/>
			<point x="283" y="0" type="line"/>
			<point x="283" y="35" type="line"/>
			<point x="173" y="55" type="line"/>
			<point x="153" y="55" type="line"/>
			<point x="43" y="35" type="line"/>
		</contour>
		<contour>
			<point x="115" y="0" type="curve"/>
			<point x="201" y="0" type="line"/>
			<point x="199" y="45"/>
			<point x="198" y="148"/>
			<point x="198" y="210" type="curve" smooth="yes"/>
			<point x="198" y="352" type="line"/>
			<point x="186" y="477" type="line"/>
			<point x="171" y="487" type="line"/>
			<point x="35" y="427" type="line"/>
			<point x="35" y="392" type="line"/>
			<point x="115" y="383" type="line"/>
			<point x="117" y="343"/>
			<point x="118" y="312"/>
			<point x="118" y="257" type="curve" smooth="yes"/>
			<point x="118" y="210" type="line" smooth="yes"/>
			<point x="118" y="148"/>
			<point x="117" y="45"/>
		</contour>
		<contour>
			<point x="196" y="278" type="line"/>
			<point x="219" y="355"/>
			<point x="255" y="405"/>
			<point x="317" y="437" type="curve"/>
			<point x="268" y="427" type="line"/>
			<point x="295" y="404" type="line" smooth="yes"/>
			<point x="313" y="389"/>
			<point x="332" y="380"/>
			<point x="355" y="380" type="curve" smooth="yes"/>
			<point x="395" y="380"/>
			<point x="413" y="406"/>
			<point x="413" y="453" type="curve"/>
			<point x="401" y="473"/>
			<point x="371" y="487"/>
			<point x="342" y="487" type="curve" smooth="yes"/>
			<point x="285" y="487"/>
			<point x="225" y="434"/>
			<point x="193" y="346" type="curve"/>
			<point x="183" y="346" type="line"/>
		</contour>
	</outline>
	<anchor name="aboveLC" x="241" y="506"/>
	<anchor name="belowLC" x="163" y="-22"/>
</glyph>
<glyph name="s" format="2">
	<unicode hex="0073"/>
	<advance width="433"/>
	<outline>
		<contour>
			<point x="200" y="-13" type="curve" smooth="yes"/>
			<point x="328" y="-13"/>
			<point x="393" y="55"/>
			<point x="393" y="129" type="curve" smooth="yes"/>
			<point x="393" y="191"/>
			<point x="355" y="238"/>
			<point x="255" y="275" type="curve" smooth="yes"/>
			<point x="225" y="286" type="line" smooth="yes"/>
			<point x="157" y="311"/>
			<point x="132" y="328"/>
			<point x="132" y="373" type="curve" smooth="yes"/>
			<point x="132" y="415"/>
			<point x="164" y="442"/>
			<point x="226" y="442" type="curve" smooth="yes"/>
			<point x="262" y="442"/>
			<point x="296" y="429"/>
			<point x="328" y="404" type="curve"/>
			<point x="328" y="430" type="line"/>
			<point x="292" y="446" type="line"/>
			<point x="312" y="345" type="line"/>
			<point x="362" y="345" type="line"/>
			<point x="366" y="446" type="line"/>
			<point x="323" y="472"/>
			<point x="281" y="487"/>
			<point x="227" y="487" type="curve" smooth="yes"/>
			<point x="116" y="487"/>
			<point x="55" y="420"/>
			<point x="55" y="348" type="curve" smooth="yes"/>
			<point x="55" y="280"/>
			<point x="103" y="241"/>
			<point x="176" y="214" type="curve" smooth="yes"/>
			<point x="222" y="197" type="line" smooth="yes"/>
			<point x="285" y="174"/>
			<point x="315" y="152"/>
			<point x="315" y="109" type="curve" smooth="yes"/>
			<point x="315" y="63"/>
			<point x="279" y="32"/>
			<point x="202" y="32" type="curve" smooth="yes"/>
			<point x="152" y="32"/>
			<point x="114" y="46"/>
			<point x="79" y="73" type="curve"/>
			<point x="79" y="39" type="line"/>
			<point x="128" y="16" type="line"/>
			<point x="101" y="134" type="line"/>
			<point x="48" y="134" type="line"/>
			<point x="52" y="25" type="line"/>
			<point x="101" y="0"/>
			<point x="144" y="-13"/>
		</contour>
	</outline>
	<anchor name="aboveLC" x="225" y="506"/>
	<anchor name="belowLC" x="218" y="-22"/>
	<anchor name="baseLC" x="214" y="0"/>
</glyph>
<glyph name="t" format="2">
	<unicode hex="0074"/>
	<advance width="323"/>
	<outline>
		<contour>
			<point x="92" y="23"/>
			<point x="135" y="-13"/>
			<point x="204" y="-13" type="curve" smooth="yes"/>
			<point x="254" y="-13"/>
			<point x="295" y="6"/>
			<point x="320" y="38" type="curve"/>
			<point x="297" y="65" type="line"/>
			<point x="271" y="46"/>
			<point x="251" y="37"/>
			<point x="229" y="37" type="curve" smooth="yes"/>
			<point x="195" y="37"/>
			<point x="173" y="59"/>
			<point x="173" y="111" type="curve" smooth="yes"/>
			<point x="173" y="435" type="line"/>
			<point x="174" y="455" type="line"/>
			<point x="181" y="610" type="line"/>
			<point x="123" y="610" type="line"/>
			<point x="93" y="448" type="line"/>
			<point x="133" y="481" type="line"/>
			<point x="9" y="465" type="line"/>
			<point x="9" y="422" type="line"/>
			<point x="93" y="422" type="line"/>
			<point x="93" y="184" type="line" smooth="yes"/>
			<point x="93" y="145"/>
			<point x="92" y="124"/>
			<point x="92" y="100" type="curve" smooth="yes"/>
		</contour>
		<contour>
			<point x="133" y="422" type="line"/>
			<point x="311" y="422" type="line"/>
			<point x="311" y="474" type="line"/>
			<point x="133" y="474" type="line"/>
		</contour>
	</outline>
	<anchor name="aboveLC" x="160" y="638"/>
	<anchor name="belowLC" x="193" y="-22"/>
	<anchor name="baseLC" x="193" y="0"/>
</glyph>
<glyph name="v" format="2">
	<unicode hex="0076"/>
	<advance width="504"/>
	<outline>
		<contour>
			<point x="237" y="-6" type="line"/>
			<point x="278" y="-6" type="line"/>
			<point x="460" y="474" type="line"/>
			<point x="406" y="474" type="line"/>
			<point x="264" y="70" type="line"/>
			<point x="285" y="70" type="line"/>
			<point x="130" y="474" type="line"/>
			<point x="35" y="474" type="line"/>
		</contour>
		<contour>
			<point x="0" y="436" type="line"/>
			<point x="98" y="419" type="line"/>
			<point x="118" y="419" type="line"/>
			<point x="240" y="436" type="line"/>
			<point x="240" y="474" type="line"/>
			<point x="0" y="474" type="line"/>
		</contour>
		<contour>
			<point x="304" y="436" type="line"/>
			<point x="404" y="419" type="line"/>
			<point x="424" y="419" type="line"/>
			<point x="494" y="436" type="line"/>
			<point x="494" y="474" type="line"/>
			<point x="304" y="474" type="line"/>
		</contour>
	</outline>
	<anchor name="aboveLC" x="263" y="506"/>
	<anchor name="belowLC" x="254" y="-22"/>
</glyph>
<glyph name="w" format="2">
	<unicode hex="0077"/>
	<advance width="762"/>
	<outline>
		<contour>
			<point x="219" y="-6" type="line"/>
			<point x="254" y="-6" type="line"/>
			<point x="397" y="378" type="line"/>
			<point x="377" y="378" type="line"/>
			<point x="518" y="-6" type="line"/>
			<point x="553" y="-6" type="line"/>
			<point x="716" y="474" type="line"/>
			<point x="660" y="474" type="line"/>
			<point x="541" y="86" type="line"/>
			<point x="561" y="87" type="line"/>
			<point x="414" y="474" type="line"/>
			<point x="384" y="474" type="line"/>
			<point x="242" y="86" type="line"/>
			<point x="262" y="86" type="line"/>
			<point x="130" y="474" type="line"/>
			<point x="40" y="474" type="line"/>
		</contour>
		<contour>
			<point x="0" y="436" type="line"/>
			<point x="98" y="419" type="line"/>
			<point x="118" y="419" type="line"/>
			<point x="226" y="436" type="line"/>
			<point x="226" y="474" type="line"/>
			<point x="0" y="474" type="line"/>
		</contour>
		<contour>
			<point x="290" y="436" type="line"/>
			<point x="395" y="419" type="line"/>
			<point x="415" y="419" type="line"/>
			<point x="510" y="436" type="line"/>
			<point x="510" y="474" type="line"/>
			<point x="290" y="474" type="line"/>
		</contour>
		<contour>
			<point x="569" y="436" type="line"/>
			<point x="662" y="419" type="line"/>
			<point x="682" y="419" type="line"/>
			<point x="752" y="436" type="line"/>
			<point x="752" y="474" type="line"/>
			<point x="569" y="474" type="line"/>
		</contour>
	</outline>
	<anchor name="aboveLC" x="391" y="506"/>
	<anchor name="belowLC" x="387" y="-22"/>
</glyph>
<glyph name="x" format="2">
	<unicode hex="0078"/>
	<advance width="524"/>
	<outline>
		<contour>
			<point x="10" y="0" type="line"/>
			<point x="211" y="0" type="line"/>
			<point x="211" y="35" type="line"/>
			<point x="117" y="52" type="line"/>
			<point x="96" y="52" type="line"/>
			<point x="10" y="35" type="line"/>
		</contour>
		<contour>
			<point x="35" y="0" type="line"/>
			<point x="96" y="0" type="line"/>
			<point x="279" y="235" type="line"/>
			<point x="245" y="258" type="line"/>
		</contour>
		<contour>
			<point x="273" y="0" type="line"/>
			<point x="514" y="0" type="line"/>
			<point x="514" y="35" type="line"/>
			<point x="404" y="55" type="line"/>
			<point x="383" y="55" type="line"/>
			<point x="273" y="35" type="line"/>
		</contour>
		<contour>
			<point x="276" y="221" type="line"/>
			<point x="484" y="474" type="line"/>
			<point x="421" y="474" type="line"/>
			<point x="243" y="247" type="line"/>
		</contour>
		<contour>
			<point x="380" y="0" type="line"/>
			<point x="472" y="0" type="line"/>
			<point x="282" y="271" type="line"/>
			<point x="141" y="474" type="line"/>
			<point x="53" y="474" type="line"/>
			<point x="232" y="213" type="line"/>
		</contour>
		<contour>
			<point x="17" y="436" type="line"/>
			<point x="121" y="419" type="line"/>
			<point x="142" y="419" type="line"/>
			<point x="237" y="436" type="line"/>
			<point x="237" y="474" type="line"/>
			<point x="17" y="474" type="line"/>
		</contour>
		<contour>
			<point x="314" y="436" type="line"/>
			<point x="397" y="420" type="line"/>
			<point x="418" y="420" type="line"/>
			<point x="502" y="436" type="line"/>
			<point x="502" y="474" type="line"/>
			<point x="314" y="474" type="line"/>
		</contour>
	</outline>
	<anchor name="aboveLC" x="268" y="506"/>
	<anchor name="belowLC" x="253" y="-22"/>
</glyph>
<glyph name="y" format="2">
	<unicode hex="0079"/>
	<advance width="512"/>
	<outline>
		<contour>
			<point x="92" y="-250" type="curve" smooth="yes"/>
			<point x="174" y="-250"/>
			<point x="230" y="-174"/>
			<point x="297" y="3" type="curve" smooth="yes"/>
			<point x="476" y="475" type="line"/>
			<point x="421" y="475" type="line"/>
			<point x="345" y="264" type="line"/>
			<point x="255" y="15" type="line"/>
			<point x="252" y="8" type="line"/>
			<point x="236" y="-38" type="line" smooth="yes"/>
			<point x="212" y="-108"/>
			<point x="171" y="-176"/>
			<point x="106" y="-209" type="curve"/>
			<point x="133" y="-232" type="line"/>
			<point x="172" y="-209" type="line"/>
			<point x="141" y="-177" type="line" smooth="yes"/>
			<point x="114" y="-149"/>
			<point x="93" y="-139"/>
			<point x="67" y="-139" type="curve" smooth="yes"/>
			<point x="36" y="-139"/>
			<point x="7" y="-154"/>
			<point x="0" y="-183" type="curve"/>
			<point x="0" y="-222"/>
			<point x="42" y="-250"/>
		</contour>
		<contour>
			<point x="251" y="-53" type="line"/>
			<point x="294" y="52" type="line"/>
			<point x="287" y="72" type="line"/>
			<point x="138" y="475" type="line"/>
			<point x="41" y="475" type="line"/>
		</contour>
		<contour>
			<point x="4" y="439" type="line"/>
			<point x="101" y="424" type="line"/>
			<point x="126" y="424" type="line"/>
			<point x="244" y="438" type="line"/>
			<point x="244" y="475" type="line"/>
			<point x="4" y="475" type="line"/>
		</contour>
		<contour>
			<point x="317" y="439" type="line"/>
			<point x="421" y="424" type="line"/>
			<point x="441" y="424" type="line"/>
			<point x="512" y="439" type="line"/>
			<point x="512" y="475" type="line"/>
			<point x="317" y="475" type="line"/>
		</contour>
	</outline>
	<anchor name="aboveLC" x="283" y="495"/>
	<anchor name="belowLC" x="132" y="-260"/>
</glyph>
<glyph name="braceleft" format="2">
	<unicode hex="007B"/>
	<advance width="344"/>
	<outline>
		<contour>
			<point x="40" y="258" type="line"/>
			<point x="124" y="247"/>
			<point x="159" y="216"/>
			<point x="159" y="166" type="curve" smooth="yes"/>
			<point x="159" y="112"/>
			<point x="117" y="45"/>
			<point x="117" y="-38" type="curve" smooth="yes"/>
			<point x="117" y="-117"/>
			<point x="174" y="-159"/>
			<point x="269" y="-159" type="curve" smooth="yes"/>
			<point x="314" y="-159" type="line"/>
			<point x="314" y="-119" type="line"/>
			<point x="287" y="-116" type="line" smooth="yes"/>
			<point x="218" y="-108"/>
			<point x="190" y="-92"/>
			<point x="190" y="-34" type="curve" smooth="yes"/>
			<point x="190" y="42"/>
			<point x="212" y="115"/>
			<point x="212" y="155" type="curve" smooth="yes"/>
			<point x="212" y="232"/>
			<point x="171" y="281"/>
			<point x="75" y="283" type="curve"/>
			<point x="75" y="273" type="line"/>
			<point x="171" y="275"/>
			<point x="212" y="324"/>
			<point x="212" y="401" type="curve" smooth="yes"/>
			<point x="212" y="441"/>
			<point x="190" y="514"/>
			<point x="190" y="590" type="curve" smooth="yes"/>
			<point x="190" y="648"/>
			<point x="218" y="664"/>
			<point x="287" y="672" type="curve" smooth="yes"/>
			<point x="314" y="675" type="line"/>
			<point x="314" y="715" type="line"/>
			<point x="269" y="715" type="line" smooth="yes"/>
			<point x="174" y="715"/>
			<point x="117" y="673"/>
			<point x="117" y="594" type="curve" smooth="yes"/>
			<point x="117" y="511"/>
			<point x="159" y="444"/>
			<point x="159" y="390" type="curve" smooth="yes"/>
			<point x="159" y="340"/>
			<point x="124" y="309"/>
			<point x="40" y="298" type="curve"/>
		</contour>
	</outline>
</glyph>
<glyph name="asciitilde" format="2">
	<unicode hex="007E"/>
	<advance width="530"/>
	<outline>
		<contour>
			<point x="285" y="367" type="curve" smooth="yes"/>
			<point x="246" y="405"/>
			<point x="211" y="422"/>
			<point x="169" y="422" type="curve" smooth="yes"/>
			<point x="95" y="422"/>
			<point x="55" y="373"/>
			<point x="49" y="281" type="curve"/>
			<point x="100" y="273" type="line"/>
			<point x="109" y="343"/>
			<point x="135" y="364"/>
			<point x="163" y="364" type="curve" smooth="yes"/>
			<point x="190" y="364"/>
			<point x="215" y="355"/>
			<point x="247" y="323" type="curve" smooth="yes"/>
			<point x="285" y="285"/>
			<point x="320" y="268"/>
			<point x="362" y="268" type="curve" smooth="yes"/>
			<point x="436" y="268"/>
			<point x="477" y="317"/>
			<point x="482" y="409" type="curve"/>
			<point x="432" y="417" type="line"/>
			<point x="423" y="347"/>
			<point x="396" y="326"/>
			<point x="368" y="326" type="curve" smooth="yes"/>
			<point x="342" y="326"/>
			<point x="316" y="336"/>
		</contour>
	</outline>
</glyph>
<glyph name="cent" format="2">
	<unicode hex="00A2"/>
	<advance width="497"/>
	<outline>
		<contour>
			<point x="286" y="-45" type="line"/>
			<point x="286" y="660" type="line"/>
			<point x="246" y="660" type="line"/>
			<point x="246" y="-45" type="line"/>
		</contour>
		<contour>
			<point x="274" y="523" type="curve" smooth="yes"/>
			<point x="303" y="523"/>
			<point x="338" y="516"/>
			<point x="372" y="498" type="curve"/>
			<point x="326" y="535" type="line"/>
			<point x="340" y="477" type="line" smooth="yes"/>
			<point x="353" y="424"/>
			<point x="371" y="402"/>
			<point x="403" y="402" type="curve" smooth="yes"/>
			<point x="429" y="402"/>
			<point x="444" y="414"/>
			<point x="449" y="439" type="curve"/>
			<point x="436" y="513"/>
			<point x="362" y="568"/>
			<point x="274" y="568" type="curve" smooth="yes"/>
			<point x="154" y="568"/>
			<point x="44" y="471"/>
			<point x="44" y="314" type="curve" smooth="yes"/>
			<point x="44" y="161"/>
			<point x="130" y="63"/>
			<point x="263" y="63" type="curve" smooth="yes"/>
			<point x="361" y="63"/>
			<point x="425" y="109"/>
			<point x="452" y="192" type="curve"/>
			<point x="428" y="204" type="line"/>
			<point x="397" y="154"/>
			<point x="339" y="126"/>
			<point x="280" y="126" type="curve" smooth="yes"/>
			<point x="189" y="126"/>
			<point x="127" y="197"/>
			<point x="127" y="323" type="curve" smooth="yes"/>
			<point x="127" y="451"/>
			<point x="189" y="523"/>
		</contour>
	</outline>
</glyph>
<glyph name="currency" format="2">
	<unicode hex="00A4"/>
	<advance width="502"/>
	<outline>
		<contour>
			<point x="368" y="428" type="line"/>
			<point x="416" y="456" type="line" smooth="yes"/>
			<point x="461" y="482"/>
			<point x="474" y="497"/>
			<point x="474" y="515" type="curve" smooth="yes"/>
			<point x="474" y="535"/>
			<point x="457" y="551"/>
			<point x="437" y="551" type="curve" smooth="yes"/>
			<point x="419" y="551"/>
			<point x="405" y="538"/>
			<point x="378" y="493" type="curve" smooth="yes"/>
			<point x="350" y="446" type="line"/>
		</contour>
		<contour>
			<point x="143" y="329" type="curve" smooth="yes"/>
			<point x="143" y="395"/>
			<point x="192" y="440"/>
			<point x="251" y="440" type="curve" smooth="yes"/>
			<point x="310" y="440"/>
			<point x="359" y="395"/>
			<point x="359" y="329" type="curve" smooth="yes"/>
			<point x="359" y="263"/>
			<point x="310" y="217"/>
			<point x="251" y="217" type="curve" smooth="yes"/>
			<point x="192" y="217"/>
			<point x="143" y="263"/>
		</contour>
		<contour>
			<point x="86" y="329" type="curve" smooth="yes"/>
			<point x="86" y="231"/>
			<point x="162" y="166"/>
			<point x="251" y="166" type="curve" smooth="yes"/>
			<point x="340" y="166"/>
			<point x="416" y="231"/>
			<point x="416" y="329" type="curve" smooth="yes"/>
			<point x="416" y="426"/>
			<point x="340" y="492"/>
			<point x="251" y="492" type="curve" smooth="yes"/>
			<point x="162" y="492"/>
			<point x="86" y="426"/>
		</contour>
		<contour>
			<point x="152" y="446" type="line"/>
			<point x="124" y="493" type="line" smooth="yes"/>
			<point x="98" y="538"/>
			<point x="83" y="551"/>
			<point x="65" y="551" type="curve" smooth="yes"/>
			<point x="45" y="551"/>
			<point x="29" y="535"/>
			<point x="29" y="515" type="curve" smooth="yes"/>
			<point x="29" y="497"/>
			<point x="42" y="482"/>
			<point x="87" y="456" type="curve" smooth="yes"/>
			<point x="134" y="428" type="line"/>
		</contour>
		<contour>
			<point x="134" y="230" type="line"/>
			<point x="87" y="202" type="line" smooth="yes"/>
			<point x="42" y="175"/>
			<point x="29" y="161"/>
			<point x="29" y="143" type="curve" smooth="yes"/>
			<point x="29" y="122"/>
			<point x="45" y="106"/>
			<point x="65" y="106" type="curve" smooth="yes"/>
			<point x="83" y="106"/>
			<point x="98" y="119"/>
			<point x="124" y="164" type="curve" smooth="yes"/>
			<point x="152" y="212" type="line"/>
		</contour>
		<contour>
			<point x="350" y="212" type="line"/>
			<point x="378" y="164" type="line" smooth="yes"/>
			<point x="405" y="119"/>
			<point x="419" y="106"/>
			<point x="437" y="106" type="curve" smooth="yes"/>
			<point x="457" y="106"/>
			<point x="474" y="123"/>
			<point x="474" y="143" type="curve" smooth="yes"/>
			<point x="474" y="161"/>
			<point x="461" y="175"/>
			<point x="416" y="202" type="curve" smooth="yes"/>
			<point x="368" y="230" type="line"/>
		</contour>
	</outline>
</glyph>
<glyph name="brokenbar" format="2">
	<unicode hex="00A6"/>
	<advance width="291"/>
	<outline>
		<contour>
			<point x="116" y="-250" type="line"/>
			<point x="175" y="-250" type="line"/>
			<point x="175" y="200" type="line"/>
			<point x="116" y="200" type="line"/>
		</contour>
		<contour>
			<point x="175" y="320" type="line"/>
			<point x="175" y="750" type="line"/>
			<point x="116" y="750" type="line"/>
			<point x="116" y="320" type="line"/>
		</contour>
	</outline>
</glyph>
<glyph name="section" format="2">
	<unicode hex="00A7"/>
	<advance width="488"/>
	<outline>
		<contour>
			<point x="225" y="-109" type="curve" smooth="yes"/>
			<point x="345" y="-109"/>
			<point x="397" y="-51"/>
			<point x="397" y="33" type="curve" smooth="yes"/>
			<point x="397" y="93"/>
			<point x="367" y="134"/>
			<point x="320" y="164" type="curve"/>
			<point x="320" y="171" type="line"/>
			<point x="293" y="187"/>
			<point x="265" y="202"/>
			<point x="237" y="215" type="curve" smooth="yes"/>
			<point x="134" y="264"/>
			<point x="114" y="284"/>
			<point x="114" y="328" type="curve" smooth="yes"/>
			<point x="114" y="372"/>
			<point x="132" y="402"/>
			<point x="187" y="416" type="curve"/>
			<point x="170" y="457" type="line"/>
			<point x="170" y="445" type="line"/>
			<point x="87" y="425"/>
			<point x="45" y="374"/>
			<point x="45" y="306" type="curve" smooth="yes"/>
			<point x="45" y="218"/>
			<point x="111" y="179"/>
			<point x="200" y="139" type="curve" smooth="yes"/>
			<point x="302" y="93"/>
			<point x="326" y="64"/>
			<point x="326" y="17" type="curve" smooth="yes"/>
			<point x="326" y="-40"/>
			<point x="292" y="-68"/>
			<point x="217" y="-68" type="curve" smooth="yes"/>
			<point x="206" y="-68"/>
			<point x="196" y="-67"/>
			<point x="182" y="-64" type="curve"/>
			<point x="204" y="-82" type="line"/>
			<point x="178" y="-21" type="line" smooth="yes"/>
			<point x="163" y="16"/>
			<point x="144" y="38"/>
			<point x="115" y="38" type="curve" smooth="yes"/>
			<point x="94" y="38"/>
			<point x="80" y="31"/>
			<point x="68" y="5" type="curve"/>
			<point x="64" y="-53"/>
			<point x="135" y="-109"/>
		</contour>
		<contour>
			<point x="262" y="685" type="curve" smooth="yes"/>
			<point x="135" y="685"/>
			<point x="91" y="621"/>
			<point x="91" y="553" type="curve" smooth="yes"/>
			<point x="91" y="501"/>
			<point x="109" y="465"/>
			<point x="160" y="431" type="curve"/>
			<point x="160" y="425" type="line"/>
			<point x="184" y="408"/>
			<point x="213" y="391"/>
			<point x="249" y="375" type="curve" smooth="yes"/>
			<point x="341" y="335"/>
			<point x="374" y="308"/>
			<point x="374" y="265" type="curve" smooth="yes"/>
			<point x="374" y="223"/>
			<point x="348" y="189"/>
			<point x="301" y="176" type="curve"/>
			<point x="315" y="135" type="line"/>
			<point x="315" y="146" type="line"/>
			<point x="394" y="164"/>
			<point x="443" y="211"/>
			<point x="443" y="283" type="curve" smooth="yes"/>
			<point x="443" y="366"/>
			<point x="388" y="403"/>
			<point x="288" y="450" type="curve" smooth="yes"/>
			<point x="185" y="499"/>
			<point x="162" y="519"/>
			<point x="162" y="568" type="curve" smooth="yes"/>
			<point x="162" y="612"/>
			<point x="189" y="644"/>
			<point x="270" y="644" type="curve" smooth="yes"/>
			<point x="283" y="644"/>
			<point x="297" y="642"/>
			<point x="314" y="637" type="curve"/>
			<point x="285" y="659" type="line"/>
			<point x="310" y="598" type="line" smooth="yes"/>
			<point x="325" y="560"/>
			<point x="345" y="538"/>
			<point x="374" y="538" type="curve" smooth="yes"/>
			<point x="395" y="538"/>
			<point x="407" y="545"/>
			<point x="420" y="570" type="curve"/>
			<point x="423" y="627"/>
			<point x="352" y="685"/>
		</contour>
	</outline>
</glyph>
<glyph name="copyright" format="2">
	<unicode hex="00A9"/>
	<advance width="756"/>
	<outline>
		<contour>
			<point x="80" y="337" type="curve" smooth="yes"/>
			<point x="80" y="530"/>
			<point x="209" y="645"/>
			<point x="378" y="645" type="curve" smooth="yes"/>
			<point x="547" y="645"/>
			<point x="676" y="529"/>
			<point x="676" y="337" type="curve" smooth="yes"/>
			<point x="676" y="145"/>
			<point x="547" y="25"/>
			<point x="378" y="25" type="curve" smooth="yes"/>
			<point x="209" y="25"/>
			<point x="80" y="144"/>
		</contour>
		<contour>
			<point x="30" y="337" type="curve" smooth="yes"/>
			<point x="30" y="119"/>
			<point x="184" y="-15"/>
			<point x="378" y="-15" type="curve" smooth="yes"/>
			<point x="572" y="-15"/>
			<point x="726" y="119"/>
			<point x="726" y="337" type="curve" smooth="yes"/>
			<point x="726" y="555"/>
			<point x="572" y="685"/>
			<point x="378" y="685" type="curve" smooth="yes"/>
			<point x="184" y="685"/>
			<point x="30" y="555"/>
		</contour>
		<contour>
			<point x="401" y="175" type="curve" smooth="yes"/>
			<point x="322" y="175"/>
			<point x="269" y="232"/>
			<point x="269" y="338" type="curve" smooth="yes"/>
			<point x="269" y="445"/>
			<point x="328" y="502"/>
			<point x="401" y="502" type="curve" smooth="yes"/>
			<point x="428" y="502"/>
			<point x="462" y="493"/>
			<point x="495" y="466" type="curve"/>
			<point x="451" y="514" type="line"/>
			<point x="466" y="418" type="line"/>
			<point x="509" y="418" type="line"/>
			<point x="507" y="513" type="line"/>
			<point x="468" y="535"/>
			<point x="436" y="541"/>
			<point x="393" y="541" type="curve" smooth="yes"/>
			<point x="282" y="541"/>
			<point x="199" y="454"/>
			<point x="199" y="338" type="curve" smooth="yes"/>
			<point x="199" y="219"/>
			<point x="278" y="135"/>
			<point x="394" y="135" type="curve" smooth="yes"/>
			<point x="436" y="135"/>
			<point x="476" y="143"/>
			<point x="512" y="162" type="curve"/>
			<point x="515" y="257" type="line"/>
			<point x="471" y="257" type="line"/>
			<point x="456" y="161" type="line"/>
			<point x="500" y="209" type="line"/>
			<point x="469" y="182"/>
			<point x="424" y="175"/>
		</contour>
	</outline>
</glyph>
<glyph name="logicalnot" format="2">
	<unicode hex="00AC"/>
	<advance width="530"/>
	<outline>
		<contour>
			<point x="29" y="343" type="line"/>
			<point x="458" y="343" type="line"/>
			<point x="440" y="364" type="line"/>
			<point x="440" y="159" type="line"/>
			<point x="502" y="159" type="line"/>
			<point x="502" y="400" type="line"/>
			<point x="29" y="400" type="line"/>
		</contour>
	</outline>
</glyph>
<glyph name="macron" format="2">
	<unicode hex="00AF"/>
	<advance width="400"/>
	<outline>
		<contour>
			<point x="80" y="596" type="line"/>
			<point x="320" y="596" type="line"/>
			<point x="320" y="659" type="line"/>
			<point x="80" y="659" type="line"/>
		</contour>
	</outline>
</glyph>
<glyph name="degree" format="2">
	<unicode hex="00B0"/>
	<advance width="328"/>
	<outline>
		<contour>
			<point x="164" y="464" type="curve" smooth="yes"/>
			<point x="116" y="464"/>
			<point x="79" y="503"/>
			<point x="79" y="555" type="curve" smooth="yes"/>
			<point x="79" y="607"/>
			<point x="116" y="649"/>
			<point x="164" y="649" type="curve" smooth="yes"/>
			<point x="212" y="649"/>
			<point x="249" y="607"/>
			<point x="249" y="555" type="curve" smooth="yes"/>
			<point x="249" y="503"/>
			<point x="212" y="464"/>
		</contour>
		<contour>
			<point x="164" y="428" type="curve" smooth="yes"/>
			<point x="233" y="428"/>
			<point x="291" y="477"/>
			<point x="291" y="555" type="curve" smooth="yes"/>
			<point x="291" y="633"/>
			<point x="233" y="684"/>
			<point x="164" y="684" type="curve" smooth="yes"/>
			<point x="95" y="684"/>
			<point x="37" y="633"/>
			<point x="37" y="555" type="curve" smooth="yes"/>
			<point x="37" y="477"/>
			<point x="95" y="428"/>
		</contour>
	</outline>
</glyph>
<glyph name="three.sups" format="2">
	<unicode hex="00B3"/>
	<advance width="370"/>
	<outline>
		<contour>
			<point x="129" y="654" type="line"/>
			<point x="129" y="614" type="line"/>
			<point x="160" y="614" type="line" smooth="yes"/>
			<point x="225" y="614"/>
			<point x="253" y="584"/>
			<point x="253" y="535" type="curve" smooth="yes"/>
			<point x="253" y="482"/>
			<point x="220" y="450"/>
			<point x="161" y="450" type="curve" smooth="yes"/>
			<point x="143" y="450"/>
			<point x="126" y="453"/>
			<point x="105" y="460" type="curve"/>
			<point x="131" y="433" type="line"/>
			<point x="119" y="490" type="line" smooth="yes"/>
			<point x="112" y="527"/>
			<point x="98" y="537"/>
			<point x="80" y="537" type="curve" smooth="yes"/>
			<point x="66" y="537"/>
			<point x="53" y="531"/>
			<point x="46" y="511" type="curve"/>
			<point x="56" y="451"/>
			<point x="102" y="417"/>
			<point x="179" y="417" type="curve" smooth="yes"/>
			<point x="252" y="417"/>
			<point x="324" y="449"/>
			<point x="324" y="532" type="curve" smooth="yes"/>
			<point x="324" y="600"/>
			<point x="276" y="639"/>
			<point x="192" y="639" type="curve"/>
			<point x="199" y="631" type="line"/>
			<point x="259" y="631"/>
			<point x="306" y="676"/>
			<point x="306" y="734" type="curve" smooth="yes"/>
			<point x="306" y="793"/>
			<point x="256" y="832"/>
			<point x="183" y="832" type="curve" smooth="yes"/>
			<point x="120" y="832"/>
			<point x="68" y="803"/>
			<point x="59" y="740" type="curve"/>
			<point x="66" y="726"/>
			<point x="79" y="719"/>
			<point x="93" y="719" type="curve" smooth="yes"/>
			<point x="111" y="719"/>
			<point x="127" y="731"/>
			<point x="132" y="760" type="curve" smooth="yes"/>
			<point x="142" y="813" type="line"/>
			<point x="113" y="790" type="line"/>
			<point x="135" y="796"/>
			<point x="151" y="798"/>
			<point x="164" y="798" type="curve" smooth="yes"/>
			<point x="209" y="798"/>
			<point x="237" y="773"/>
			<point x="237" y="726" type="curve" smooth="yes"/>
			<point x="237" y="679"/>
			<point x="210" y="654"/>
			<point x="155" y="654" type="curve" smooth="yes"/>
		</contour>
	</outline>
</glyph>
<glyph name="cedilla" format="2">
	<unicode hex="00B8"/>
	<advance width="400"/>
	<outline>
		<contour>
			<point x="146" y="-86" type="line"/>
			<point x="195" y="-93"/>
			<point x="218" y="-107"/>
			<point x="218" y="-138" type="curve" smooth="yes"/>
			<point x="218" y="-166"/>
			<point x="199" y="-184"/>
			<point x="160" y="-184" type="curve" smooth="yes"/>
			<point x="142" y="-184"/>
			<point x="128" y="-181"/>
			<point x="112" y="-178" type="curve"/>
			<point x="105" y="-211" type="line"/>
			<point x="118" y="-215"/>
			<point x="139" y="-221"/>
			<point x="168" y="-221" type="curve" smooth="yes"/>
			<point x="241" y="-221"/>
			<point x="280" y="-186"/>
			<point x="280" y="-140" type="curve" smooth="yes"/>
			<point x="280" y="-85"/>
			<point x="227" y="-59"/>
			<point x="166" y="-55" type="curve"/>
			<point x="186" y="-77" type="line"/>
			<point x="196" y="3" type="line"/>
			<point x="159" y="3" type="line"/>
		</contour>
	</outline>
</glyph>
<glyph name="one.sups" format="2">
	<unicode hex="00B9"/>
	<advance width="370"/>
	<outline>
		<contour>
			<point x="79" y="797" type="line"/>
			<point x="79" y="761" type="line"/>
			<point x="157" y="767" type="line"/>
			<point x="157" y="426" type="line"/>
			<point x="226" y="426" type="line"/>
			<point x="226" y="823" type="line"/>
			<point x="217" y="829" type="line"/>
		</contour>
		<contour>
			<point x="220" y="472" type="line"/>
			<point x="161" y="472" type="line"/>
			<point x="66" y="455" type="line"/>
			<point x="66" y="426" type="line"/>
			<point x="314" y="426" type="line"/>
			<point x="314" y="455" type="line"/>
		</contour>
	</outline>
</glyph>
<glyph name="threequarters" format="2">
	<unicode hex="00BE"/>
	<advance width="850"/>
	<outline>
		<contour>
			<point x="682" y="0" type="line"/>
			<point x="747" y="0" type="line"/>
			<point x="747" y="403" type="line"/>
			<point x="700" y="403" type="line"/>
			<point x="512" y="147" type="line"/>
			<point x="512" y="101" type="line"/>
			<point x="811" y="101" type="line"/>
			<point x="811" y="158" type="line"/>
			<point x="556" y="158" type="line"/>
			<point x="556" y="172" type="line"/>
			<point x="551" y="144" type="line"/>
			<point x="632" y="260" type="line"/>
			<point x="713" y="376" type="line"/>
			<point x="675" y="345" type="line"/>
			<point x="682" y="345" type="line"/>
			<point x="682" y="140" type="line"/>
			<point x="682" y="122" type="line"/>
		</contour>
		<contour>
			<point x="179" y="265" type="curve" smooth="yes"/>
			<point x="253" y="265"/>
			<point x="325" y="298"/>
			<point x="325" y="380" type="curve" smooth="yes"/>
			<point x="325" y="448"/>
			<point x="277" y="487"/>
			<point x="192" y="487" type="curve"/>
			<point x="199" y="479" type="line"/>
			<point x="261" y="479"/>
			<point x="307" y="524"/>
			<point x="307" y="582" type="curve" smooth="yes"/>
			<point x="307" y="641"/>
			<point x="257" y="680"/>
			<point x="183" y="680" type="curve" smooth="yes"/>
			<point x="120" y="680"/>
			<point x="67" y="651"/>
			<point x="59" y="587" type="curve"/>
			<point x="66" y="573"/>
			<point x="79" y="566"/>
			<point x="93" y="566" type="curve" smooth="yes"/>
			<point x="111" y="566"/>
			<point x="127" y="578"/>
			<point x="132" y="608" type="curve" smooth="yes"/>
			<point x="142" y="661" type="line"/>
			<point x="113" y="638" type="line"/>
			<point x="135" y="644"/>
			<point x="151" y="646"/>
			<point x="163" y="646" type="curve" smooth="yes"/>
			<point x="208" y="646"/>
			<point x="236" y="621"/>
			<point x="236" y="574" type="curve" smooth="yes"/>
			<point x="236" y="527"/>
			<point x="209" y="502"/>
			<point x="154" y="502" type="curve" smooth="yes"/>
			<point x="129" y="502" type="line"/>
			<point x="129" y="462" type="line"/>
			<point x="159" y="462" type="line" smooth="yes"/>
			<point x="224" y="462"/>
			<point x="252" y="432"/>
			<point x="252" y="383" type="curve" smooth="yes"/>
			<point x="252" y="330"/>
			<point x="219" y="298"/>
			<point x="160" y="298" type="curve" smooth="yes"/>
			<point x="142" y="298"/>
			<point x="125" y="301"/>
			<point x="105" y="308" type="curve"/>
			<point x="131" y="281" type="line"/>
			<point x="119" y="338" type="line" smooth="yes"/>
			<point x="112" y="376"/>
			<point x="98" y="386"/>
			<point x="80" y="386" type="curve" smooth="yes"/>
			<point x="66" y="386"/>
			<point x="52" y="380"/>
			<point x="45" y="360" type="curve"/>
			<point x="55" y="299"/>
			<point x="101" y="265"/>
		</contour>
		<component base="fraction" xOffset="370"/>
	</outline>
</glyph>
<glyph name="questiondown" format="2">
	<unicode hex="00BF"/>
	<advance width="416"/>
	<outline>
		<contour>
			<point x="267" y="489" type="curve" smooth="yes"/>
			<point x="231" y="489"/>
			<point x="202" y="459"/>
			<point x="202" y="424" type="curve" smooth="yes"/>
			<point x="202" y="389"/>
			<point x="231" y="359"/>
			<point x="267" y="359" type="curve" smooth="yes"/>
			<point x="303" y="359"/>
			<point x="331" y="389"/>
			<point x="331" y="424" type="curve" smooth="yes"/>
			<point x="331" y="459"/>
			<point x="303" y="489"/>
		</contour>
		<contour>
			<point x="66" y="15" type="curve" smooth="yes"/>
			<point x="66" y="-114"/>
			<point x="210" y="-201"/>
			<point x="295" y="-209" type="curve"/>
			<point x="331" y="-200"/>
			<point x="350" y="-185"/>
			<point x="350" y="-154" type="curve" smooth="yes"/>
			<point x="350" y="-129"/>
			<point x="337" y="-111"/>
			<point x="278" y="-100" type="curve" smooth="yes"/>
			<point x="93" y="-67" type="line"/>
			<point x="200" y="-138" type="line"/>
			<point x="160" y="-101"/>
			<point x="121" y="-51"/>
			<point x="121" y="-3" type="curve" smooth="yes"/>
			<point x="121" y="30"/>
			<point x="141" y="55"/>
			<point x="177" y="67" type="curve" smooth="yes"/>
			<point x="234" y="85" type="line" smooth="yes"/>
			<point x="293" y="103"/>
			<point x="314" y="121"/>
			<point x="314" y="151" type="curve" smooth="yes"/>
			<point x="314" y="163"/>
			<point x="310" y="182"/>
			<point x="298" y="221" type="curve" smooth="yes"/>
			<point x="286" y="263" type="line"/>
			<point x="247" y="263" type="line"/>
			<point x="247" y="208" type="line" smooth="yes"/>
			<point x="247" y="175"/>
			<point x="242" y="166"/>
			<point x="200" y="153" type="curve" smooth="yes"/>
			<point x="166" y="141" type="line" smooth="yes"/>
			<point x="98" y="119"/>
			<point x="66" y="77"/>
		</contour>
	</outline>
</glyph>
<glyph name="Aacute" format="2">
	<unicode hex="00C1"/>
	<advance width="664"/>
	<outline>
		<contour>
			<point x="264" y="746" type="curve"/>
			<point x="282" y="721" type="line"/>
			<point x="324" y="743"/>
			<point x="366" y="766"/>
			<point x="408" y="789" type="curve" smooth="yes"/>
			<point x="446" y="810"/>
			<point x="458" y="826"/>
			<point x="458" y="844" type="curve" smooth="yes"/>
			<point x="458" y="864"/>
			<point x="441" y="878"/>
			<point x="420" y="878" type="curve" smooth="yes"/>
			<point x="403" y="878"/>
			<point x="386" y="868"/>
			<point x="358" y="840" type="curve" smooth="yes"/>
			<point x="326" y="810"/>
			<point x="295" y="779"/>
		</contour>
		<component base="A"/>
	</outline>
</glyph>
<glyph name="Acircumflex" format="2">
	<unicode hex="00C2"/>
	<advance width="664"/>
	<outline>
		<contour>
			<point x="348" y="857" type="line"/>
			<point x="314" y="857" type="line"/>
			<point x="183" y="742" type="line"/>
			<point x="202" y="717" type="line"/>
			<point x="373" y="815" type="line"/>
			<point x="289" y="815" type="line"/>
			<point x="460" y="717" type="line"/>
			<point x="479" y="742" type="line"/>
		</contour>
		<component base="A"/>
	</outline>
</glyph>
<glyph name="Adieresis" format="2">
	<unicode hex="00C4"/>
	<advance width="664"/>
	<outline>
		<contour>
			<point x="219" y="745" type="curve" smooth="yes"/>
			<point x="251" y="745"/>
			<point x="276" y="768"/>
			<point x="276" y="800" type="curve" smooth="yes"/>
			<point x="276" y="832"/>
			<point x="251" y="855"/>
			<point x="219" y="855" type="curve" smooth="yes"/>
			<point x="188" y="855"/>
			<point x="161" y="832"/>
			<point x="161" y="800" type="curve" smooth="yes"/>
			<point x="161" y="768"/>
			<point x="188" y="745"/>
		</contour>
		<contour>
			<point x="442" y="745" type="curve" smooth="yes"/>
			<point x="473" y="745"/>
			<point x="500" y="768"/>
			<point x="500" y="800" type="curve" smooth="yes"/>
			<point x="500" y="832"/>
			<point x="473" y="855"/>
			<point x="442" y="855" type="curve" smooth="yes"/>
			<point x="410" y="855"/>
			<point x="385" y="832"/>
			<point x="385" y="800" type="curve" smooth="yes"/>
			<point x="385" y="768"/>
			<point x="410" y="745"/>
		</contour>
		<component base="A"/>
	</outline>
</glyph>
<glyph name="AE" format="2">
	<unicode hex="00C6"/>
	<advance width="922"/>
	<outline>
		<contour>
			<point x="5" y="0" type="line"/>
			<point x="235" y="0" type="line"/>
			<point x="235" y="40" type="line"/>
			<point x="135" y="55" type="line"/>
			<point x="115" y="55" type="line"/>
			<point x="5" y="40" type="line"/>
		</contour>
		<contour>
			<point x="61" y="0" type="line"/>
			<point x="118" y="0" type="line"/>
			<point x="481" y="670" type="line"/>
			<point x="426" y="670" type="line"/>
		</contour>
		<contour>
			<point x="224" y="249" type="line"/>
			<point x="503" y="249" type="line"/>
			<point x="503" y="295" type="line"/>
			<point x="249" y="295" type="line"/>
		</contour>
		<contour>
			<point x="323" y="630" type="line"/>
			<point x="427" y="615" type="line"/>
			<point x="503" y="615" type="line"/>
			<point x="503" y="670" type="line"/>
			<point x="323" y="670" type="line"/>
		</contour>
		<contour>
			<point x="370" y="0" type="line"/>
			<point x="503" y="0" type="line"/>
			<point x="503" y="55" type="line"/>
			<point x="493" y="55" type="line"/>
			<point x="370" y="40" type="line"/>
		</contour>
		<contour>
			<point x="458" y="0" type="curve"/>
			<point x="548" y="0" type="line"/>
			<point x="545" y="103"/>
			<point x="545" y="207"/>
			<point x="545" y="322" type="curve" smooth="yes"/>
			<point x="545" y="360" type="line" smooth="yes"/>
			<point x="545" y="465"/>
			<point x="545" y="569"/>
			<point x="548" y="670" type="curve"/>
			<point x="461" y="670" type="line"/>
			<point x="461" y="253" type="line" smooth="yes"/>
			<point x="461" y="161"/>
			<point x="460" y="79"/>
		</contour>
		<contour>
			<point x="503" y="319" type="line"/>
			<point x="730" y="319" type="line"/>
			<point x="730" y="365" type="line"/>
			<point x="503" y="365" type="line"/>
		</contour>
		<contour>
			<point x="713" y="224" type="line"/>
			<point x="758" y="224" type="line"/>
			<point x="758" y="461" type="line"/>
			<point x="713" y="461" type="line"/>
			<point x="698" y="355" type="line"/>
			<point x="698" y="335" type="line"/>
		</contour>
		<contour>
			<point x="503" y="620" type="line"/>
			<point x="789" y="620" type="line"/>
			<point x="811" y="492" type="line"/>
			<point x="867" y="492" type="line"/>
			<point x="860" y="670" type="line"/>
			<point x="503" y="670" type="line"/>
		</contour>
		<contour>
			<point x="503" y="0" type="line"/>
			<point x="880" y="0" type="line"/>
			<point x="887" y="178" type="line"/>
			<point x="831" y="178" type="line"/>
			<point x="809" y="50" type="line"/>
			<point x="503" y="50" type="line"/>
		</contour>
	</outline>
	<anchor name="aboveUC" x="604" y="691"/>
</glyph>
<glyph name="Ccedilla" format="2">
	<unicode hex="00C7"/>
	<advance width="631"/>
	<outline>
		<contour>
			<point x="360" y="-86" type="line"/>
			<point x="409" y="-93"/>
			<point x="432" y="-107"/>
			<point x="432" y="-138" type="curve" smooth="yes"/>
			<point x="432" y="-166"/>
			<point x="413" y="-184"/>
			<point x="374" y="-184" type="curve" smooth="yes"/>
			<point x="356" y="-184"/>
			<point x="342" y="-181"/>
			<point x="326" y="-178" type="curve"/>
			<point x="319" y="-211" type="line"/>
			<point x="332" y="-215"/>
			<point x="353" y="-221"/>
			<point x="382" y="-221" type="curve" smooth="yes"/>
			<point x="455" y="-221"/>
			<point x="494" y="-186"/>
			<point x="494" y="-140" type="curve" smooth="yes"/>
			<point x="494" y="-85"/>
			<point x="441" y="-59"/>
			<point x="380" y="-55" type="curve"/>
			<point x="400" y="-77" type="line"/>
			<point x="410" y="3" type="line"/>
			<point x="373" y="3" type="line"/>
		</contour>
		<component base="C"/>
	</outline>
</glyph>
<glyph name="Ecircumflex" format="2">
	<unicode hex="00CA"/>
	<advance width="603"/>
	<outline>
		<contour>
			<point x="348" y="857" type="line"/>
			<point x="314" y="857" type="line"/>
			<point x="183" y="742" type="line"/>
			<point x="202" y="717" type="line"/>
			<point x="373" y="815" type="line"/>
			<point x="289" y="815" type="line"/>
			<point x="460" y="717" type="line"/>
			<point x="479" y="742" type="line"/>
		</contour>
		<component base="E"/>
	</outline>
</glyph>
<glyph name="Icircumflex" format="2">
	<unicode hex="00CE"/>
	<advance width="371"/>
	<outline>
		<contour>
			<point x="203" y="857" type="line"/>
			<point x="169" y="857" type="line"/>
			<point x="38" y="742" type="line"/>
			<point x="57" y="717" type="line"/>
			<point x="228" y="815" type="line"/>
			<point x="144" y="815" type="line"/>
			<point x="315" y="717" type="line"/>
			<point x="334" y="742" type="line"/>
		</contour>
		<component base="I"/>
	</outline>
</glyph>
<glyph name="Idieresis" format="2">
	<unicode hex="00CF"/>
	<advance width="371"/>
	<outline>
		<contour>
			<point x="92" y="745" type="curve" smooth="yes"/>
			<point x="125" y="745"/>
			<point x="149" y="768"/>
			<point x="149" y="800" type="curve" smooth="yes"/>
			<point x="149" y="832"/>
			<point x="125" y="855"/>
			<point x="92" y="855" type="curve" smooth="yes"/>
			<point x="62" y="855"/>
			<point x="36" y="832"/>
			<point x="36" y="800" type="curve" smooth="yes"/>
			<point x="36" y="768"/>
			<point x="62" y="745"/>
		</contour>
		<contour>
			<point x="279" y="745" type="curve" smooth="yes"/>
			<point x="309" y="745"/>
			<point x="336" y="768"/>
			<point x="336" y="800" type="curve" smooth="yes"/>
			<point x="336" y="832"/>
			<point x="309" y="855"/>
			<point x="279" y="855" type="curve" smooth="yes"/>
			<point x="246" y="855"/>
			<point x="222" y="832"/>
			<point x="222" y="800" type="curve" smooth="yes"/>
			<point x="222" y="768"/>
			<point x="246" y="745"/>
		</contour>
		<component base="I"/>
	</outline>
</glyph>
<glyph name="Eth" format="2">
	<unicode hex="00D0"/>
	<advance width="710"/>
	<outline>
		<contour>
			<point x="385" y="320" type="line"/>
			<point x="385" y="366" type="line"/>
			<point x="45" y="366" type="line"/>
			<point x="45" y="320" type="line"/>
		</contour>
		<component base="D"/>
	</outline>
</glyph>
<glyph name="Ograve" format="2">
	<unicode hex="00D2"/>
	<advance width="707"/>
	<outline>
		<contour>
			<point x="421" y="746" type="line"/>
			<point x="391" y="778"/>
			<point x="360" y="809"/>
			<point x="327" y="840" type="curve" smooth="yes"/>
			<point x="299" y="868"/>
			<point x="282" y="878"/>
			<point x="265" y="878" type="curve" smooth="yes"/>
			<point x="244" y="878"/>
			<point x="227" y="864"/>
			<point x="227" y="844" type="curve" smooth="yes"/>
			<point x="227" y="826"/>
			<point x="239" y="809"/>
			<point x="277" y="788" type="curve" smooth="yes"/>
			<point x="318" y="766"/>
			<point x="360" y="743"/>
			<point x="403" y="721" type="curve"/>
		</contour>
		<component base="O"/>
	</outline>
</glyph>
<glyph name="Oacute" format="2">
	<unicode hex="00D3"/>
	<advance width="707"/>
	<outline>
		<contour>
			<point x="287" y="746" type="curve"/>
			<point x="305" y="721" type="line"/>
			<point x="347" y="743"/>
			<point x="389" y="766"/>
			<point x="431" y="789" type="curve" smooth="yes"/>
			<point x="469" y="810"/>
			<point x="481" y="826"/>
			<point x="481" y="844" type="curve" smooth="yes"/>
			<point x="481" y="864"/>
			<point x="464" y="878"/>
			<point x="443" y="878" type="curve" smooth="yes"/>
			<point x="426" y="878"/>
			<point x="409" y="868"/>
			<point x="381" y="840" type="curve" smooth="yes"/>
			<point x="349" y="810"/>
			<point x="318" y="779"/>
		</contour>
		<component base="O"/>
	</outline>
</glyph>
<glyph name="Odieresis" format="2">
	<unicode hex="00D6"/>
	<advance width="707"/>
	<outline>
		<contour>
			<point x="242" y="745" type="curve" smooth="yes"/>
			<point x="274" y="745"/>
			<point x="299" y="768"/>
			<point x="299" y="800" type="curve" smooth="yes"/>
			<point x="299" y="832"/>
			<point x="274" y="855"/>
			<point x="242" y="855" type="curve" smooth="yes"/>
			<point x="211" y="855"/>
			<point x="184" y="832"/>
			<point x="184" y="800" type="curve" smooth="yes"/>
			<point x="184" y="768"/>
			<point x="211" y="745"/>
		</contour>
		<contour>
			<point x="465" y="745" type="curve" smooth="yes"/>
			<point x="496" y="745"/>
			<point x="523" y="768"/>
			<point x="523" y="800" type="curve" smooth="yes"/>
			<point x="523" y="832"/>
			<point x="496" y="855"/>
			<point x="465" y="855" type="curve" smooth="yes"/>
			<point x="433" y="855"/>
			<point x="408" y="832"/>
			<point x="408" y="800" type="curve" smooth="yes"/>
			<point x="408" y="768"/>
			<point x="433" y="745"/>
		</contour>
		<component base="O"/>
	</outline>
</glyph>
<glyph name="multiply" format="2">
	<unicode hex="00D7"/>
	<advance width="530"/>
	<outline>
		<contour>
			<point x="447" y="107" type="line"/>
			<point x="488" y="148" type="line"/>
			<point x="84" y="552" type="line"/>
			<point x="43" y="511" type="line"/>
		</contour>
		<contour>
			<point x="488" y="511" type="line"/>
			<point x="447" y="552" type="line"/>
			<point x="43" y="148" type="line"/>
			<point x="84" y="107" type="line"/>
		</contour>
	</outline>
</glyph>
<glyph name="Uacute" format="2">
	<unicode hex="00DA"/>
	<advance width="727"/>
	<outline>
		<contour>
			<point x="318" y="746" type="curve"/>
			<point x="336" y="721" type="line"/>
			<point x="378" y="743"/>
			<point x="420" y="766"/>
			<point x="462" y="789" type="curve" smooth="yes"/>
			<point x="500" y="810"/>
			<point x="512" y="826"/>
			<point x="512" y="844" type="curve" smooth="yes"/>
			<point x="512" y="864"/>
			<point x="495" y="878"/>
			<point x="474" y="878" type="curve" smooth="yes"/>
			<point x="457" y="878"/>
			<point x="440" y="868"/>
			<point x="412" y="840" type="curve" smooth="yes"/>
			<point x="380" y="810"/>
			<point x="349" y="779"/>
		</contour>
		<component base="U"/>
	</outline>
</glyph>
<glyph name="Udieresis" format="2">
	<unicode hex="00DC"/>
	<advance width="727"/>
	<outline>
		<contour>
			<point x="273" y="745" type="curve" smooth="yes"/>
			<point x="305" y="745"/>
			<point x="330" y="768"/>
			<point x="330" y="800" type="curve" smooth="yes"/>
			<point x="330" y="832"/>
			<point x="305" y="855"/>
			<point x="273" y="855" type="curve" smooth="yes"/>
			<point x="242" y="855"/>
			<point x="215" y="832"/>
			<point x="215" y="800" type="curve" smooth="yes"/>
			<point x="215" y="768"/>
			<point x="242" y="745"/>
		</contour>
		<contour>
			<point x="496" y="745" type="curve" smooth="yes"/>
			<point x="527" y="745"/>
			<point x="554" y="768"/>
			<point x="554" y="800" type="curve" smooth="yes"/>
			<point x="554" y="832"/>
			<point x="527" y="855"/>
			<point x="496" y="855" type="curve" smooth="yes"/>
			<point x="464" y="855"/>
			<point x="439" y="832"/>
			<point x="439" y="800" type="curve" smooth="yes"/>
			<point x="439" y="768"/>
			<point x="464" y="745"/>
		</contour>
		<component base="U"/>
	</outline>
</glyph>
<glyph name="germandbls" format="2">
	<unicode hex="00DF"/>
	<advance width="588"/>
	<outline>
		<contour>
			<point x="148" y="55" type="line"/>
			<point x="138" y="55" type="line"/>
			<point x="25" y="35" type="line"/>
			<point x="25" y="0" type="line"/>
			<point x="148" y="0" type="line"/>
		</contour>
		<contour>
			<point x="108" y="210" type="line" smooth="yes"/>
			<point x="108" y="140"/>
			<point x="107" y="70"/>
			<point x="105" y="0" type="curve"/>
			<point x="191" y="0" type="line"/>
			<point x="189" y="70"/>
			<point x="188" y="140"/>
			<point x="188" y="210" type="curve" smooth="yes"/>
			<point x="188" y="479" type="line" smooth="yes"/>
			<point x="188" y="601"/>
			<point x="202" y="643"/>
			<point x="231" y="672" type="curve" smooth="yes"/>
			<point x="255" y="696"/>
			<point x="283" y="705"/>
			<point x="321" y="705" type="curve" smooth="yes"/>
			<point x="395" y="705"/>
			<point x="427" y="665"/>
			<point x="427" y="601" type="curve" smooth="yes"/>
			<point x="427" y="553"/>
			<point x="409" y="525"/>
			<point x="363" y="487" type="curve" smooth="yes"/>
			<point x="316" y="449"/>
			<point x="296" y="408"/>
			<point x="296" y="358" type="curve" smooth="yes"/>
			<point x="296" y="288"/>
			<point x="336" y="258"/>
			<point x="401" y="219" type="curve" smooth="yes"/>
			<point x="476" y="174"/>
			<point x="489" y="148"/>
			<point x="489" y="114" type="curve" smooth="yes"/>
			<point x="489" y="63"/>
			<point x="462" y="32"/>
			<point x="394" y="32" type="curve" smooth="yes"/>
			<point x="366" y="32"/>
			<point x="333" y="38"/>
			<point x="285" y="65" type="curve"/>
			<point x="334" y="16" type="line"/>
			<point x="302" y="134" type="line"/>
			<point x="255" y="134" type="line"/>
			<point x="259" y="15" type="line"/>
			<point x="305" y="-2"/>
			<point x="349" y="-13"/>
			<point x="399" y="-13" type="curve" smooth="yes"/>
			<point x="514" y="-13"/>
			<point x="566" y="43"/>
			<point x="566" y="130" type="curve" smooth="yes"/>
			<point x="566" y="193"/>
			<point x="540" y="227"/>
			<point x="442" y="288" type="curve" smooth="yes"/>
			<point x="387" y="322"/>
			<point x="365" y="338"/>
			<point x="365" y="380" type="curve" smooth="yes"/>
			<point x="365" y="412"/>
			<point x="378" y="443"/>
			<point x="421" y="474" type="curve" smooth="yes"/>
			<point x="475" y="514"/>
			<point x="507" y="560"/>
			<point x="507" y="614" type="curve" smooth="yes"/>
			<point x="507" y="693"/>
			<point x="437" y="750"/>
			<point x="336" y="750" type="curve" smooth="yes"/>
			<point x="279" y="750"/>
			<point x="228" y="733"/>
			<point x="185" y="690" type="curve" smooth="yes"/>
			<point x="136" y="641"/>
			<point x="108" y="582"/>
			<point x="108" y="417" type="curve" smooth="yes"/>
		</contour>
	</outline>
</glyph>
<glyph name="aring" format="2">
	<unicode hex="00E5"/>
	<advance width="509"/>
	<outline>
		<contour>
			<point x="251" y="590" type="curve" smooth="yes"/>
			<point x="214" y="590"/>
			<point x="194" y="621"/>
			<point x="194" y="652" type="curve" smooth="yes"/>
			<point x="194" y="683"/>
			<point x="215" y="713"/>
			<point x="251" y="713" type="curve" smooth="yes"/>
			<point x="288" y="713"/>
			<point x="308" y="683"/>
			<point x="308" y="652" type="curve" smooth="yes"/>
			<point x="308" y="621"/>
			<point x="287" y="590"/>
		</contour>
		<contour>
			<point x="251" y="550" type="curve" smooth="yes"/>
			<point x="305" y="550"/>
			<point x="356" y="588"/>
			<point x="356" y="652" type="curve" smooth="yes"/>
			<point x="356" y="717"/>
			<point x="305" y="753"/>
			<point x="251" y="753" type="curve" smooth="yes"/>
			<point x="197" y="753"/>
			<point x="146" y="714"/>
			<point x="146" y="652" type="curve" smooth="yes"/>
			<point x="146" y="587"/>
			<point x="197" y="550"/>
		</contour>
		<component base="a"/>
	</outline>
</glyph>
<glyph name="ae" format="2">
	<unicode hex="00E6"/>
	<advance width="786"/>
	<outline>
		<contour>
			<point x="180" y="-13" type="curve" smooth="yes"/>
			<point x="241" y="-13"/>
			<point x="278" y="8"/>
			<point x="370" y="96" type="curve"/>
			<point x="372" y="96" type="line"/>
			<point x="351" y="121" type="line"/>
			<point x="275" y="64"/>
			<point x="253" y="52"/>
			<point x="212" y="52" type="curve" smooth="yes"/>
			<point x="169" y="52"/>
			<point x="131" y="77"/>
			<point x="131" y="128" type="curve" smooth="yes"/>
			<point x="131" y="157"/>
			<point x="141" y="191"/>
			<point x="231" y="226" type="curve" smooth="yes"/>
			<point x="261" y="238"/>
			<point x="318" y="257"/>
			<point x="363" y="266" type="curve"/>
			<point x="363" y="302" type="line"/>
			<point x="313" y="293"/>
			<point x="252" y="275"/>
			<point x="210" y="260" type="curve" smooth="yes"/>
			<point x="76" y="211"/>
			<point x="46" y="170"/>
			<point x="46" y="114" type="curve" smooth="yes"/>
			<point x="46" y="31"/>
			<point x="107" y="-13"/>
		</contour>
		<contour>
			<point x="554" y="-13" type="curve" smooth="yes"/>
			<point x="655" y="-13"/>
			<point x="704" y="31"/>
			<point x="744" y="100" type="curve"/>
			<point x="724" y="116" type="line"/>
			<point x="684" y="69"/>
			<point x="637" y="50"/>
			<point x="575" y="50" type="curve" smooth="yes"/>
			<point x="469" y="50"/>
			<point x="406" y="118"/>
			<point x="406" y="243" type="curve" smooth="yes"/>
			<point x="406" y="388"/>
			<point x="481" y="442"/>
			<point x="551" y="442" type="curve" smooth="yes"/>
			<point x="616" y="442"/>
			<point x="657" y="402"/>
			<point x="657" y="333" type="curve" smooth="yes"/>
			<point x="657" y="305"/>
			<point x="646" y="282"/>
			<point x="592" y="282" type="curve" smooth="yes"/>
			<point x="360" y="282" type="line"/>
			<point x="360" y="240" type="line"/>
			<point x="729" y="240" type="line"/>
			<point x="733" y="253"/>
			<point x="736" y="273"/>
			<point x="736" y="296" type="curve" smooth="yes"/>
			<point x="736" y="417"/>
			<point x="654" y="487"/>
			<point x="551" y="487" type="curve" smooth="yes"/>
			<point x="463" y="487"/>
			<point x="387" y="429"/>
			<point x="352" y="338" type="curve"/>
			<point x="399" y="332" type="line"/>
			<point x="399" y="443"/>
			<point x="336" y="487"/>
			<point x="252" y="487" type="curve" smooth="yes"/>
			<point x="152" y="487"/>
			<point x="78" y="438"/>
			<point x="59" y="362" type="curve"/>
			<point x="61" y="337"/>
			<point x="77" y="320"/>
			<point x="104" y="320" type="curve" smooth="yes"/>
			<point x="131" y="320"/>
			<point x="148" y="336"/>
			<point x="157" y="365" type="curve" smooth="yes"/>
			<point x="183" y="453" type="line"/>
			<point x="141" y="424" type="line"/>
			<point x="178" y="439"/>
			<point x="209" y="442"/>
			<point x="234" y="442" type="curve" smooth="yes"/>
			<point x="295" y="442"/>
			<point x="325" y="418"/>
			<point x="325" y="320" type="curve" smooth="yes"/>
			<point x="325" y="232" type="line" smooth="yes"/>
			<point x="325" y="78"/>
			<point x="414" y="-13"/>
		</contour>
	</outline>
	<anchor name="aboveLC" x="401" y="506"/>
	<anchor name="belowLC" x="375" y="-22"/>
</glyph>
<glyph name="egrave" format="2">
	<unicode hex="00E8"/>
	<advance width="510"/>
	<outline>
		<contour>
			<point x="330" y="576" type="line"/>
			<point x="301" y="623"/>
			<point x="273" y="669"/>
			<point x="241" y="717" type="curve" smooth="yes"/>
			<point x="222" y="748"/>
			<point x="205" y="758"/>
			<point x="187" y="758" type="curve" smooth="yes"/>
			<point x="167" y="758"/>
			<point x="149" y="746"/>
			<point x="149" y="720" type="curve" smooth="yes"/>
			<point x="149" y="706"/>
			<point x="155" y="691"/>
			<point x="183" y="665" type="curve" smooth="yes"/>
			<point x="224" y="628"/>
			<point x="263" y="593"/>
			<point x="304" y="557" type="curve"/>
		</contour>
		<component base="e"/>
	</outline>
</glyph>
<glyph name="edieresis" format="2">
	<unicode hex="00EB"/>
	<advance width="510"/>
	<outline>
		<contour>
			<point x="170" y="596" type="curve" smooth="yes"/>
			<point x="203" y="596"/>
			<point x="230" y="620"/>
			<point x="230" y="653" type="curve" smooth="yes"/>
			<point x="230" y="685"/>
			<point x="203" y="710"/>
			<point x="170" y="710" type="curve" smooth="yes"/>
			<point x="138" y="710"/>
			<point x="111" y="685"/>
			<point x="111" y="653" type="curve" smooth="yes"/>
			<point x="111" y="620"/>
			<point x="138" y="596"/>
		</contour>
		<contour>
			<point x="380" y="596" type="curve" smooth="yes"/>
			<point x="412" y="596"/>
			<point x="439" y="620"/>
			<point x="439" y="653" type="curve" smooth="yes"/>
			<point x="439" y="685"/>
			<point x="412" y="710"/>
			<point x="380" y="710" type="curve" smooth="yes"/>
			<point x="347" y="710"/>
			<point x="320" y="685"/>
			<point x="320" y="653" type="curve" smooth="yes"/>
			<point x="320" y="620"/>
			<point x="347" y="596"/>
		</contour>
		<component base="e"/>
	</outline>
</glyph>
<glyph name="idieresis" format="2">
	<unicode hex="00EF"/>
	<advance width="297"/>
	<outline>
		<contour>
			<point x="58" y="597" type="curve" smooth="yes"/>
			<point x="90" y="597"/>
			<point x="117" y="621"/>
			<point x="117" y="653" type="curve" smooth="yes"/>
			<point x="117" y="685"/>
			<point x="90" y="709"/>
			<point x="58" y="709" type="curve" smooth="yes"/>
			<point x="26" y="709"/>
			<point x="0" y="685"/>
			<point x="0" y="653" type="curve" smooth="yes"/>
			<point x="0" y="621"/>
			<point x="26" y="597"/>
		</contour>
		<contour>
			<point x="246" y="597" type="curve" smooth="yes"/>
			<point x="278" y="597"/>
			<point x="304" y="621"/>
			<point x="304" y="653" type="curve" smooth="yes"/>
			<point x="304" y="685"/>
			<point x="278" y="709"/>
			<point x="246" y="709" type="curve" smooth="yes"/>
			<point x="214" y="709"/>
			<point x="187" y="685"/>
			<point x="187" y="653" type="curve" smooth="yes"/>
			<point x="187" y="621"/>
			<point x="214" y="597"/>
		</contour>
		<component base="dotlessi"/>
	</outline>
</glyph>
<glyph name="ntilde" format="2">
	<unicode hex="00F1"/>
	<advance width="606"/>
	<outline>
		<contour>
			<point x="144" y="586" type="curve"/>
			<point x="171" y="577" type="line"/>
			<point x="185" y="626"/>
			<point x="203" y="656"/>
			<point x="233" y="656" type="curve" smooth="yes"/>
			<point x="260" y="656"/>
			<point x="280" y="630"/>
			<point x="302" y="608" type="curve" smooth="yes"/>
			<point x="322" y="589"/>
			<point x="342" y="575"/>
			<point x="375" y="575" type="curve" smooth="yes"/>
			<point x="431" y="575"/>
			<point x="458" y="626"/>
			<point x="470" y="703" type="curve"/>
			<point x="443" y="713" type="line"/>
			<point x="429" y="664"/>
			<point x="411" y="633"/>
			<point x="381" y="633" type="curve" smooth="yes"/>
			<point x="354" y="633"/>
			<point x="336" y="658"/>
			<point x="312" y="681" type="curve" smooth="yes"/>
			<point x="293" y="700"/>
			<point x="272" y="715"/>
			<point x="239" y="715" type="curve" smooth="yes"/>
			<point x="184" y="715"/>
			<point x="155" y="664"/>
		</contour>
		<component base="n"/>
	</outline>
</glyph>
<glyph name="divide" format="2">
	<unicode hex="00F7"/>
	<advance width="530"/>
	<outline>
		<contour>
			<point x="265" y="68" type="curve" smooth="yes"/>
			<point x="303" y="68"/>
			<point x="334" y="95"/>
			<point x="334" y="134" type="curve" smooth="yes"/>
			<point x="334" y="174"/>
			<point x="303" y="200"/>
			<point x="265" y="200" type="curve" smooth="yes"/>
			<point x="228" y="200"/>
			<point x="197" y="174"/>
			<point x="197" y="134" type="curve" smooth="yes"/>
			<point x="197" y="95"/>
			<point x="228" y="68"/>
		</contour>
		<contour>
			<point x="265" y="459" type="curve" smooth="yes"/>
			<point x="303" y="459"/>
			<point x="334" y="486"/>
			<point x="334" y="525" type="curve" smooth="yes"/>
			<point x="334" y="565"/>
			<point x="303" y="591"/>
			<point x="265" y="591" type="curve" smooth="yes"/>
			<point x="228" y="591"/>
			<point x="197" y="565"/>
			<point x="197" y="525" type="curve" smooth="yes"/>
			<point x="197" y="486"/>
			<point x="228" y="459"/>
		</contour>
		<component base="minus"/>
	</outline>
</glyph>
<glyph name="oslash" format="2">
	<unicode hex="00F8"/>
	<advance width="548"/>
	<outline>
		<contour>
			<point x="486" y="475" type="line"/>
			<point x="454" y="500" type="line"/>
			<point x="54" y="5" type="line"/>
			<point x="86" y="-20" type="line"/>
		</contour>
		<contour>
			<point x="274" y="-13" type="curve" smooth="yes"/>
			<point x="387" y="-13"/>
			<point x="502" y="69"/>
			<point x="502" y="235" type="curve" smooth="yes"/>
			<point x="502" y="401"/>
			<point x="387" y="487"/>
			<point x="274" y="487" type="curve" smooth="yes"/>
			<point x="159" y="487"/>
			<point x="46" y="401"/>
			<point x="46" y="235" type="curve" smooth="yes"/>
			<point x="46" y="69"/>
			<point x="159" y="-13"/>
		</contour>
		<contour>
			<point x="274" y="32" type="curve" smooth="yes"/>
			<point x="182" y="32"/>
			<point x="132" y="101"/>
			<point x="132" y="235" type="curve" smooth="yes"/>
			<point x="132" y="369"/>
			<point x="182" y="442"/>
			<point x="274" y="442" type="curve" smooth="yes"/>
			<point x="364" y="442"/>
			<point x="416" y="369"/>
			<point x="416" y="235" type="curve" smooth="yes"/>
			<point x="416" y="101"/>
			<point x="364" y="32"/>
		</contour>
	</outline>
	<anchor name="aboveLC" x="274" y="506"/>
</glyph>
<glyph name="ugrave" format="2">
	<unicode hex="00F9"/>
	<advance width="583"/>
	<outline>
		<contour>
			<point x="338" y="576" type="line"/>
			<point x="309" y="623"/>
			<point x="281" y="669"/>
			<point x="249" y="717" type="curve" smooth="yes"/>
			<point x="230" y="748"/>
			<point x="213" y="758"/>
			<point x="195" y="758" type="curve" smooth="yes"/>
			<point x="175" y="758"/>
			<point x="157" y="746"/>
			<point x="157" y="720" type="curve" smooth="yes"/>
			<point x="157" y="706"/>
			<point x="163" y="691"/>
			<point x="191" y="665" type="curve" smooth="yes"/>
			<point x="232" y="628"/>
			<point x="271" y="593"/>
			<point x="312" y="557" type="curve"/>
		</contour>
		<component base="u"/>
	</outline>
</glyph>
<glyph name="ucircumflex" format="2">
	<unicode hex="00FB"/>
	<advance width="583"/>
	<outline>
		<contour>
			<point x="409" y="546" type="line"/>
			<point x="432" y="568" type="line"/>
			<point x="300" y="744" type="line"/>
			<point x="266" y="744" type="line"/>
			<point x="134" y="568" type="line"/>
			<point x="157" y="546" type="line"/>
			<point x="325" y="698" type="line"/>
			<point x="241" y="698" type="line"/>
		</contour>
		<component base="u"/>
	</outline>
</glyph>
<glyph name="thorn" format="2">
	<unicode hex="00FE"/>
	<advance width="554"/>
	<outline>
		<contour>
			<point x="85" y="-240" type="curve"/>
			<point x="173" y="-240" type="line"/>
			<point x="171" y="-169"/>
			<point x="170" y="-98"/>
			<point x="170" y="-28" type="curve" smooth="yes"/>
			<point x="170" y="72" type="line"/>
			<point x="173" y="78" type="line"/>
			<point x="173" y="387" type="line"/>
			<point x="170" y="400" type="line"/>
			<point x="170" y="589" type="line"/>
			<point x="174" y="732" type="line"/>
			<point x="160" y="740" type="line"/>
			<point x="7" y="695" type="line"/>
			<point x="7" y="659" type="line"/>
			<point x="88" y="649" type="line"/>
			<point x="88" y="-28" type="line" smooth="yes"/>
			<point x="88" y="-98"/>
			<point x="87" y="-169"/>
		</contour>
		<contour>
			<point x="303" y="-13" type="curve" smooth="yes"/>
			<point x="420" y="-13"/>
			<point x="509" y="88"/>
			<point x="509" y="242" type="curve" smooth="yes"/>
			<point x="509" y="397"/>
			<point x="425" y="488"/>
			<point x="319" y="488" type="curve" smooth="yes"/>
			<point x="249" y="488"/>
			<point x="184" y="449"/>
			<point x="126" y="360" type="curve"/>
			<point x="124" y="360" type="line"/>
			<point x="135" y="342" type="line"/>
			<point x="206" y="413"/>
			<point x="255" y="431"/>
			<point x="292" y="431" type="curve" smooth="yes"/>
			<point x="367" y="431"/>
			<point x="419" y="362"/>
			<point x="419" y="234" type="curve" smooth="yes"/>
			<point x="419" y="105"/>
			<point x="358" y="44"/>
			<point x="287" y="44" type="curve" smooth="yes"/>
			<point x="240" y="44"/>
			<point x="187" y="71"/>
			<point x="136" y="136" type="curve"/>
			<point x="125" y="120" type="line"/>
			<point x="127" y="120" type="line"/>
			<point x="179" y="16"/>
			<point x="241" y="-13"/>
		</contour>
		<contour>
			<point x="6" y="-240" type="line"/>
			<point x="263" y="-240" type="line"/>
			<point x="263" y="-204" type="line"/>
			<point x="142" y="-184" type="line"/>
			<point x="118" y="-184" type="line"/>
			<point x="6" y="-204" type="line"/>
		</contour>
	</outline>
	<anchor name="aboveLC" x="131" y="740"/>
	<anchor name="belowLC" x="370" y="-20"/>
</glyph>
<glyph name="aogonek" format="2">
	<unicode hex="0105"/>
	<advance width="508"/>
	<outline>
		<contour>
			<point x="46" y="112" type="curve" smooth="yes"/>
			<point x="46" y="29"/>
			<point x="107" y="-13"/>
			<point x="180" y="-13" type="curve" smooth="yes"/>
			<point x="241" y="-13"/>
			<point x="275" y="15"/>
			<point x="335" y="75" type="curve" smooth="yes"/>
			<point x="364" y="104" type="line"/>
			<point x="350" y="125" type="line"/>
			<point x="330" y="110" type="line" smooth="yes"/>
			<point x="267" y="65"/>
			<point x="247" y="52"/>
			<point x="212" y="52" type="curve" smooth="yes"/>
			<point x="166" y="52"/>
			<point x="131" y="73"/>
			<point x="131" y="126" type="curve" smooth="yes"/>
			<point x="131" y="155"/>
			<point x="141" y="193"/>
			<point x="231" y="228" type="curve" smooth="yes"/>
			<point x="261" y="240"/>
			<point x="320" y="259"/>
			<point x="365" y="268" type="curve"/>
			<point x="365" y="304" type="line"/>
			<point x="315" y="295"/>
			<point x="252" y="277"/>
			<point x="210" y="262" type="curve" smooth="yes"/>
			<point x="76" y="213"/>
			<point x="46" y="168"/>
		</contour>
		<contour>
			<point x="329" y="-132" type="curve" smooth="yes"/>
			<point x="329" y="-187"/>
			<point x="366" y="-220"/>
			<point x="419" y="-220" type="curve" smooth="yes"/>
			<point x="462" y="-220"/>
			<point x="498" y="-206"/>
			<point x="522" y="-172" type="curve"/>
			<point x="510" y="-150" type="line"/>
			<point x="490" y="-162"/>
			<point x="471" y="-165"/>
			<point x="458" y="-165" type="curve" smooth="yes"/>
			<point x="419" y="-165"/>
			<point x="390" y="-140"/>
			<point x="390" y="-97" type="curve" smooth="yes"/>
			<point x="390" y="-63"/>
			<point x="422" y="-31"/>
			<point x="454" y="-5" type="curve" smooth="yes"/>
			<point x="475" y="12"/>
			<point x="485" y="20"/>
			<point x="501" y="39" type="curve"/>
			<point x="481" y="63" type="line"/>
			<point x="468" y="50"/>
			<point x="455" y="41"/>
			<point x="439" y="41" type="curve" smooth="yes"/>
			<point x="417" y="41"/>
			<point x="405" y="62"/>
			<point x="405" y="104" type="curve" smooth="yes"/>
			<point x="405" y="314" type="line" smooth="yes"/>
			<point x="405" y="440"/>
			<point x="355" y="487"/>
			<point x="252" y="487" type="curve" smooth="yes"/>
			<point x="152" y="487"/>
			<point x="78" y="438"/>
			<point x="59" y="362" type="curve"/>
			<point x="61" y="337"/>
			<point x="77" y="320"/>
			<point x="104" y="320" type="curve" smooth="yes"/>
			<point x="131" y="320"/>
			<point x="148" y="336"/>
			<point x="157" y="365" type="curve" smooth="yes"/>
			<point x="183" y="453" type="line"/>
			<point x="141" y="424" type="line"/>
			<point x="178" y="439"/>
			<point x="208" y="442"/>
			<point x="231" y="442" type="curve" smooth="yes"/>
			<point x="297" y="442"/>
			<point x="325" y="418"/>
			<point x="325" y="320" type="curve" smooth="yes"/>
			<point x="325" y="94" type="line" smooth="yes"/>
			<point x="325" y="30"/>
			<point x="358" y="-11"/>
			<point x="427" y="-11" type="curve"/>
			<point x="429" y="-4" type="line"/>
			<point x="377" y="-30"/>
			<point x="329" y="-78"/>
		</contour>
	</outline>
	<anchor name="aboveLC" x="244" y="506"/>
	<anchor name="belowLC" x="243" y="-22"/>
</glyph>
<glyph name="dcroat" format="2">
	<unicode hex="0111"/>
	<advance width="565"/>
	<outline>
		<contour>
			<point x="204" y="544" type="line"/>
			<point x="550" y="544" type="line"/>
			<point x="550" y="589" type="line"/>
			<point x="204" y="589" type="line"/>
		</contour>
		<contour>
			<point x="131" y="225" type="curve" smooth="yes"/>
			<point x="131" y="355"/>
			<point x="196" y="419"/>
			<point x="273" y="419" type="curve" smooth="yes"/>
			<point x="309" y="419"/>
			<point x="349" y="403"/>
			<point x="407" y="347" type="curve"/>
			<point x="417" y="373" type="line"/>
			<point x="365" y="451"/>
			<point x="319" y="474"/>
			<point x="255" y="474" type="curve" smooth="yes"/>
			<point x="136" y="474"/>
			<point x="46" y="369"/>
			<point x="46" y="223" type="curve" smooth="yes"/>
			<point x="46" y="84"/>
			<point x="128" y="-13"/>
			<point x="250" y="-13" type="curve" smooth="yes"/>
			<point x="319" y="-13"/>
			<point x="370" y="20"/>
			<point x="413" y="97" type="curve"/>
			<point x="404" y="123" type="line"/>
			<point x="358" y="65"/>
			<point x="322" y="42"/>
			<point x="272" y="42" type="curve" smooth="yes"/>
			<point x="191" y="42"/>
			<point x="131" y="99"/>
		</contour>
		<contour>
			<point x="451" y="51" type="line"/>
			<point x="467" y="0" type="line"/>
			<point x="467" y="580" type="line"/>
			<point x="471" y="732" type="line"/>
			<point x="457" y="740" type="line"/>
			<point x="304" y="695" type="line"/>
			<point x="304" y="660" type="line"/>
			<point x="390" y="655" type="line"/>
			<point x="390" y="395" type="line"/>
			<point x="387" y="382" type="line"/>
			<point x="387" y="92" type="line"/>
			<point x="397" y="-10" type="line"/>
			<point x="550" y="0" type="line"/>
			<point x="550" y="35" type="line"/>
		</contour>
	</outline>
</glyph>
<glyph name="eogonek" format="2">
	<unicode hex="0119"/>
	<advance width="510"/>
	<outline>
		<contour>
			<point x="337" y="-221" type="curve" smooth="yes"/>
			<point x="378" y="-221"/>
			<point x="407" y="-209"/>
			<point x="433" y="-177" type="curve"/>
			<point x="420" y="-152" type="line"/>
			<point x="402" y="-162"/>
			<point x="387" y="-165"/>
			<point x="371" y="-165" type="curve" smooth="yes"/>
			<point x="341" y="-165"/>
			<point x="317" y="-141"/>
			<point x="317" y="-102" type="curve" smooth="yes"/>
			<point x="317" y="-54"/>
			<point x="343" y="-19"/>
			<point x="383" y="13" type="curve" smooth="yes"/>
			<point x="420" y="41"/>
			<point x="441" y="64"/>
			<point x="460" y="103" type="curve"/>
			<point x="436" y="122" type="line"/>
			<point x="399" y="79"/>
			<point x="361" y="52"/>
			<point x="298" y="52" type="curve" smooth="yes"/>
			<point x="199" y="52"/>
			<point x="133" y="121"/>
			<point x="133" y="244" type="curve" smooth="yes"/>
			<point x="133" y="391"/>
			<point x="207" y="442"/>
			<point x="274" y="442" type="curve" smooth="yes"/>
			<point x="338" y="442"/>
			<point x="378" y="403"/>
			<point x="378" y="334" type="curve" smooth="yes"/>
			<point x="378" y="305"/>
			<point x="367" y="282"/>
			<point x="313" y="282" type="curve" smooth="yes"/>
			<point x="84" y="282" type="line"/>
			<point x="84" y="240" type="line"/>
			<point x="454" y="240" type="line"/>
			<point x="458" y="253"/>
			<point x="461" y="273"/>
			<point x="461" y="295" type="curve" smooth="yes"/>
			<point x="461" y="417"/>
			<point x="379" y="488"/>
			<point x="274" y="488" type="curve" smooth="yes"/>
			<point x="150" y="488"/>
			<point x="45" y="386"/>
			<point x="45" y="236" type="curve" smooth="yes"/>
			<point x="45" y="79"/>
			<point x="133" y="-13"/>
			<point x="268" y="-13" type="curve" smooth="yes"/>
			<point x="295" y="-13"/>
			<point x="325" y="-9"/>
			<point x="353" y="-2" type="curve"/>
			<point x="353" y="14" type="line"/>
			<point x="299" y="-13"/>
			<point x="253" y="-71"/>
			<point x="253" y="-138" type="curve" smooth="yes"/>
			<point x="253" y="-189"/>
			<point x="288" y="-221"/>
		</contour>
	</outline>
	<anchor name="aboveLC" x="275" y="495"/>
</glyph>
<glyph name="Hbar" format="2">
	<unicode hex="0126"/>
	<advance width="789"/>
	<outline>
		<contour>
			<point x="135" y="0" type="curve"/>
			<point x="236" y="0" type="line"/>
			<point x="233" y="103"/>
			<point x="233" y="207"/>
			<point x="233" y="329" type="curve" smooth="yes"/>
			<point x="233" y="360" type="line" smooth="yes"/>
			<point x="233" y="464"/>
			<point x="233" y="569"/>
			<point x="236" y="670" type="curve"/>
			<point x="135" y="670" type="line"/>
			<point x="138" y="567"/>
			<point x="138" y="462"/>
			<point x="138" y="359" type="curve" smooth="yes"/>
			<point x="138" y="310" type="line" smooth="yes"/>
			<point x="138" y="205"/>
			<point x="138" y="101"/>
		</contour>
		<contour>
			<point x="553" y="0" type="curve"/>
			<point x="653" y="0" type="line"/>
			<point x="650" y="103"/>
			<point x="650" y="207"/>
			<point x="650" y="310" type="curve" smooth="yes"/>
			<point x="650" y="359" type="line" smooth="yes"/>
			<point x="650" y="464"/>
			<point x="650" y="569"/>
			<point x="653" y="670" type="curve"/>
			<point x="553" y="670" type="line"/>
			<point x="556" y="567"/>
			<point x="556" y="462"/>
			<point x="556" y="360" type="curve" smooth="yes"/>
			<point x="556" y="329" type="line" smooth="yes"/>
			<point x="556" y="205"/>
			<point x="556" y="101"/>
		</contour>
		<contour>
			<point x="44" y="0" type="line"/>
			<point x="326" y="0" type="line"/>
			<point x="326" y="41" type="line"/>
			<point x="195" y="56" type="line"/>
			<point x="175" y="56" type="line"/>
			<point x="44" y="41" type="line"/>
		</contour>
		<contour>
			<point x="44" y="629" type="line"/>
			<point x="175" y="614" type="line"/>
			<point x="195" y="614" type="line"/>
			<point x="326" y="629" type="line"/>
			<point x="326" y="670" type="line"/>
			<point x="44" y="670" type="line"/>
		</contour>
		<contour>
			<point x="462" y="0" type="line"/>
			<point x="744" y="0" type="line"/>
			<point x="744" y="41" type="line"/>
			<point x="614" y="56" type="line"/>
			<point x="593" y="56" type="line"/>
			<point x="462" y="41" type="line"/>
		</contour>
		<contour>
			<point x="462" y="629" type="line"/>
			<point x="593" y="614" type="line"/>
			<point x="614" y="614" type="line"/>
			<point x="744" y="629" type="line"/>
			<point x="744" y="670" type="line"/>
			<point x="462" y="670" type="line"/>
		</contour>
		<contour>
			<point x="30" y="466" type="line"/>
			<point x="759" y="466" type="line"/>
			<point x="759" y="513" type="line"/>
			<point x="30" y="513" type="line"/>
		</contour>
		<contour>
			<point x="185" y="299" type="line"/>
			<point x="603" y="299" type="line"/>
			<point x="603" y="346" type="line"/>
			<point x="185" y="346" type="line"/>
		</contour>
	</outline>
</glyph>
<glyph name="hbar" format="2">
	<unicode hex="0127"/>
	<advance width="600"/>
	<outline>
		<contour>
			<point x="25" y="539" type="line"/>
			<point x="371" y="539" type="line"/>
			<point x="371" y="584" type="line"/>
			<point x="25" y="584" type="line"/>
		</contour>
		<contour>
			<point x="105" y="0" type="curve"/>
			<point x="191" y="0" type="line"/>
			<point x="189" y="45"/>
			<point x="188" y="148"/>
			<point x="188" y="210" type="curve" smooth="yes"/>
			<point x="188" y="342" type="line"/>
			<point x="185" y="355" type="line"/>
			<point x="185" y="580" type="line"/>
			<point x="189" y="732" type="line"/>
			<point x="175" y="740" type="line"/>
			<point x="25" y="695" type="line"/>
			<point x="25" y="660" type="line"/>
			<point x="108" y="650" type="line"/>
			<point x="108" y="210" type="line" smooth="yes"/>
			<point x="108" y="148"/>
			<point x="107" y="45"/>
		</contour>
		<contour>
			<point x="30" y="0" type="line"/>
			<point x="260" y="0" type="line"/>
			<point x="260" y="35" type="line"/>
			<point x="160" y="55" type="line"/>
			<point x="140" y="55" type="line"/>
			<point x="30" y="35" type="line"/>
		</contour>
		<contour>
			<point x="413" y="0" type="curve"/>
			<point x="499" y="0" type="line"/>
			<point x="497" y="45"/>
			<point x="496" y="146"/>
			<point x="496" y="210" type="curve" smooth="yes"/>
			<point x="496" y="279" type="line" smooth="yes"/>
			<point x="496" y="411"/>
			<point x="455" y="464"/>
			<point x="369" y="464" type="curve" smooth="yes"/>
			<point x="298" y="464"/>
			<point x="216" y="415"/>
			<point x="169" y="352" type="curve"/>
			<point x="214" y="370" type="line"/>
			<point x="163" y="370" type="line"/>
			<point x="163" y="325" type="line"/>
			<point x="184" y="325" type="line"/>
			<point x="241" y="376"/>
			<point x="282" y="394"/>
			<point x="332" y="394" type="curve" smooth="yes"/>
			<point x="392" y="394"/>
			<point x="416" y="364"/>
			<point x="416" y="271" type="curve" smooth="yes"/>
			<point x="416" y="210" type="line" smooth="yes"/>
			<point x="416" y="146"/>
			<point x="415" y="45"/>
		</contour>
		<contour>
			<point x="339" y="0" type="line"/>
			<point x="569" y="0" type="line"/>
			<point x="569" y="35" type="line"/>
			<point x="469" y="55" type="line"/>
			<point x="449" y="55" type="line"/>
			<point x="339" y="35" type="line"/>
		</contour>
	</outline>
</glyph>
<glyph name="dotlessi" format="2">
	<unicode hex="0131"/>
	<advance width="297"/>
	<outline>
		<contour>
			<point x="110" y="0" type="curve"/>
			<point x="196" y="0" type="line"/>
			<point x="194" y="45"/>
			<point x="193" y="148"/>
			<point x="193" y="210" type="curve" smooth="yes"/>
			<point x="193" y="342" type="line"/>
			<point x="196" y="477" type="line"/>
			<point x="181" y="487" type="line"/>
			<point x="30" y="427" type="line"/>
			<point x="30" y="392" type="line"/>
			<point x="110" y="383" type="line"/>
			<point x="112" y="343"/>
			<point x="113" y="312"/>
			<point x="113" y="257" type="curve" smooth="yes"/>
			<point x="113" y="210" type="line" smooth="yes"/>
			<point x="113" y="148"/>
			<point x="112" y="45"/>
		</contour>
		<contour>
			<point x="35" y="0" type="line"/>
			<point x="265" y="0" type="line"/>
			<point x="265" y="35" type="line"/>
			<point x="165" y="55" type="line"/>
			<point x="145" y="55" type="line"/>
			<point x="35" y="35" type="line"/>
		</contour>
	</outline>
	<anchor name="aboveLC" x="147" y="506"/>
	<anchor name="belowLC" x="148" y="-22"/>
	<anchor name="ogonek" x="187" y="0"/>
</glyph>
<glyph name="kgreenlandic" format="2">
	<unicode hex="0138"/>
	<advance width="547"/>
	<outline>
		<contour>
			<point x="31" y="0" type="line"/>
			<point x="263" y="0" type="line"/>
			<point x="263" y="36" type="line"/>
			<point x="163" y="56" type="line"/>
			<point x="140" y="56" type="line"/>
			<point x="31" y="36" type="line"/>
		</contour>
		<contour>
			<point x="104" y="0" type="curve"/>
			<point x="195" y="0" type="line"/>
			<point x="193" y="45"/>
			<point x="192" y="148"/>
			<point x="192" y="211" type="curve" smooth="yes"/>
			<point x="192" y="342" type="line"/>
			<point x="195" y="478" type="line"/>
			<point x="179" y="488" type="line"/>
			<point x="25" y="427" type="line"/>
			<point x="25" y="392" type="line"/>
			<point x="104" y="383" type="line"/>
			<point x="106" y="343"/>
			<point x="107" y="313"/>
			<point x="107" y="258" type="curve" smooth="yes"/>
			<point x="107" y="210" type="line" smooth="yes"/>
			<point x="107" y="148"/>
			<point x="106" y="45"/>
		</contour>
		<contour>
			<point x="149" y="137" type="line"/>
			<point x="480" y="475" type="line"/>
			<point x="418" y="475" type="line"/>
			<point x="285" y="337" type="line"/>
			<point x="152" y="199" type="line"/>
			<point x="149" y="199" type="line"/>
		</contour>
		<contour>
			<point x="411" y="0" type="line"/>
			<point x="547" y="0" type="line"/>
			<point x="547" y="36" type="line"/>
			<point x="436" y="56" type="line"/>
			<point x="502" y="16" type="line"/>
			<point x="306" y="326" type="line"/>
			<point x="247" y="266" type="line"/>
		</contour>
		<contour>
			<point x="391" y="412" type="line"/>
			<point x="411" y="419" type="line"/>
			<point x="522" y="436" type="line"/>
			<point x="522" y="475" type="line"/>
			<point x="290" y="475" type="line"/>
			<point x="290" y="436" type="line"/>
		</contour>
	</outline>
</glyph>
<glyph name="Lslash" format="2">
	<unicode hex="0141"/>
	<advance width="596"/>
	<outline>
		<contour>
			<point x="396" y="460" type="line"/>
			<point x="187" y="341" type="line"/>
			<point x="187" y="289" type="line"/>
			<point x="396" y="409" type="line"/>
		</contour>
		<contour>
			<point x="185" y="345" type="line"/>
			<point x="44" y="265" type="line"/>
			<point x="44" y="214" type="line"/>
			<point x="185" y="293" type="line"/>
		</contour>
		<component base="L"/>
	</outline>
</glyph>
<glyph name="lslash" format="2">
	<unicode hex="0142"/>
	<advance width="298"/>
	<outline>
		<contour>
			<point x="150" y="415" type="line"/>
			<point x="25" y="350" type="line"/>
			<point x="25" y="300" type="line"/>
			<point x="150" y="365" type="line"/>
		</contour>
		<contour>
			<point x="273" y="474" type="line"/>
			<point x="146" y="407" type="line"/>
			<point x="146" y="358" type="line"/>
			<point x="273" y="424" type="line"/>
		</contour>
		<component base="l"/>
	</outline>
</glyph>
<glyph name="OE" format="2">
	<unicode hex="0152"/>
	<advance width="938"/>
	<outline>
		<contour>
			<point x="156" y="335" type="curve" smooth="yes"/>
			<point x="156" y="490"/>
			<point x="220" y="635"/>
			<point x="390" y="635" type="curve" smooth="yes"/>
			<point x="436" y="635"/>
			<point x="464" y="630"/>
			<point x="510" y="609" type="curve"/>
			<point x="510" y="670" type="line"/>
			<point x="457" y="680"/>
			<point x="413" y="685"/>
			<point x="382" y="685" type="curve" smooth="yes"/>
			<point x="199" y="685"/>
			<point x="47" y="557"/>
			<point x="47" y="335" type="curve" smooth="yes"/>
			<point x="47" y="112"/>
			<point x="199" y="-15"/>
			<point x="382" y="-15" type="curve" smooth="yes"/>
			<point x="414" y="-15"/>
			<point x="457" y="-10"/>
			<point x="510" y="0" type="curve"/>
			<point x="510" y="61" type="line"/>
			<point x="464" y="40"/>
			<point x="437" y="35"/>
			<point x="389" y="35" type="curve" smooth="yes"/>
			<point x="220" y="35"/>
			<point x="156" y="180"/>
		</contour>
		<contour>
			<point x="469" y="0" type="curve"/>
			<point x="570" y="0" type="line"/>
			<point x="567" y="103"/>
			<point x="567" y="207"/>
			<point x="567" y="322" type="curve" smooth="yes"/>
			<point x="567" y="359" type="line" smooth="yes"/>
			<point x="567" y="464"/>
			<point x="567" y="569"/>
			<point x="570" y="670" type="curve"/>
			<point x="469" y="670" type="line"/>
			<point x="472" y="567"/>
			<point x="472" y="462"/>
			<point x="472" y="359" type="curve" smooth="yes"/>
			<point x="472" y="310" type="line" smooth="yes"/>
			<point x="472" y="205"/>
			<point x="472" y="101"/>
		</contour>
		<contour>
			<point x="727" y="224" type="line"/>
			<point x="773" y="224" type="line"/>
			<point x="773" y="460" type="line"/>
			<point x="727" y="460" type="line"/>
			<point x="712" y="355" type="line"/>
			<point x="712" y="335" type="line"/>
		</contour>
		<contour>
			<point x="520" y="318" type="line"/>
			<point x="744" y="318" type="line"/>
			<point x="744" y="365" type="line"/>
			<point x="520" y="365" type="line"/>
		</contour>
		<contour>
			<point x="826" y="493" type="line"/>
			<point x="883" y="493" type="line"/>
			<point x="876" y="670" type="line"/>
			<point x="520" y="670" type="line"/>
			<point x="520" y="620" type="line"/>
			<point x="804" y="620" type="line"/>
		</contour>
		<contour>
			<point x="846" y="178" type="line"/>
			<point x="824" y="50" type="line"/>
			<point x="520" y="50" type="line"/>
			<point x="520" y="0" type="line"/>
			<point x="896" y="0" type="line"/>
			<point x="903" y="178" type="line"/>
		</contour>
	</outline>
	<anchor name="aboveUC" x="519" y="690"/>
</glyph>
<glyph name="oe" format="2">
	<unicode hex="0153"/>
	<advance width="873"/>
	<outline>
		<contour>
			<point x="274" y="442" type="curve" smooth="yes"/>
			<point x="362" y="442"/>
			<point x="412" y="367"/>
			<point x="412" y="233" type="curve" smooth="yes"/>
			<point x="412" y="99"/>
			<point x="362" y="32"/>
			<point x="274" y="32" type="curve" smooth="yes"/>
			<point x="186" y="32"/>
			<point x="136" y="102"/>
			<point x="136" y="236" type="curve" smooth="yes"/>
			<point x="136" y="370"/>
			<point x="186" y="442"/>
		</contour>
		<contour>
			<point x="274" y="-13" type="curve" smooth="yes"/>
			<point x="353" y="-13"/>
			<point x="441" y="37"/>
			<point x="475" y="128" type="curve"/>
			<point x="432" y="129" type="line"/>
			<point x="464" y="38"/>
			<point x="535" y="-13"/>
			<point x="641" y="-13" type="curve" smooth="yes"/>
			<point x="742" y="-13"/>
			<point x="791" y="31"/>
			<point x="831" y="100" type="curve"/>
			<point x="811" y="116" type="line"/>
			<point x="771" y="69"/>
			<point x="724" y="50"/>
			<point x="662" y="50" type="curve" smooth="yes"/>
			<point x="556" y="50"/>
			<point x="493" y="118"/>
			<point x="493" y="243" type="curve" smooth="yes"/>
			<point x="493" y="388"/>
			<point x="568" y="442"/>
			<point x="638" y="442" type="curve" smooth="yes"/>
			<point x="703" y="442"/>
			<point x="744" y="402"/>
			<point x="744" y="333" type="curve" smooth="yes"/>
			<point x="744" y="305"/>
			<point x="733" y="282"/>
			<point x="679" y="282" type="curve" smooth="yes"/>
			<point x="447" y="282" type="line"/>
			<point x="447" y="240" type="line"/>
			<point x="816" y="240" type="line"/>
			<point x="820" y="253"/>
			<point x="823" y="273"/>
			<point x="823" y="296" type="curve" smooth="yes"/>
			<point x="823" y="417"/>
			<point x="741" y="487"/>
			<point x="638" y="487" type="curve" smooth="yes"/>
			<point x="550" y="487"/>
			<point x="477" y="435"/>
			<point x="440" y="350" type="curve"/>
			<point x="475" y="349" type="line"/>
			<point x="443" y="436"/>
			<point x="353" y="487"/>
			<point x="274" y="487" type="curve" smooth="yes"/>
			<point x="160" y="487"/>
			<point x="46" y="402"/>
			<point x="46" y="236" type="curve" smooth="yes"/>
			<point x="46" y="70"/>
			<point x="160" y="-13"/>
		</contour>
	</outline>
	<anchor name="aboveLC" x="456" y="506"/>
</glyph>
<glyph name="Scaron" format="2">
	<unicode hex="0160"/>
	<advance width="512"/>
	<outline>
		<contour>
			<point x="163" y="869" type="line"/>
			<point x="139" y="848" type="line"/>
			<point x="241" y="730" type="line"/>
			<point x="315" y="730" type="line"/>
			<point x="417" y="848" type="line"/>
			<point x="393" y="869" type="line"/>
			<point x="236" y="753" type="line"/>
			<point x="320" y="753" type="line"/>
		</contour>
		<component base="S"/>
	</outline>
</glyph>
<glyph name="scaron" format="2">
	<unicode hex="0161"/>
	<advance width="434"/>
	<outline>
		<contour>
			<point x="111" y="739" type="line"/>
			<point x="87" y="719" type="line"/>
			<point x="189" y="571" type="line"/>
			<point x="263" y="571" type="line"/>
			<point x="365" y="719" type="line"/>
			<point x="341" y="739" type="line"/>
			<point x="184" y="596" type="line"/>
			<point x="268" y="596" type="line"/>
		</contour>
		<component base="s"/>
	</outline>
</glyph>
<glyph name="Tbar" format="2">
	<unicode hex="0166"/>
	<advance width="604"/>
	<outline>
		<contour>
			<point x="80" y="306" type="line"/>
			<point x="523" y="306" type="line"/>
			<point x="523" y="352" type="line"/>
			<point x="80" y="352" type="line"/>
		</contour>
		<component base="T"/>
	</outline>
</glyph>
<glyph name="tbar" format="2">
	<unicode hex="0167"/>
	<advance width="323"/>
	<outline>
		<contour>
			<point x="9" y="249" type="line"/>
			<point x="311" y="249" type="line"/>
			<point x="311" y="294" type="line"/>
			<point x="9" y="294" type="line"/>
		</contour>
		<component base="t"/>
	</outline>
</glyph>
<glyph name="uogonek" format="2">
	<unicode hex="0173"/>
	<advance width="583"/>
	<outline>
		<contour>
			<point x="468" y="-221" type="curve" smooth="yes"/>
			<point x="509" y="-221"/>
			<point x="538" y="-209"/>
			<point x="564" y="-177" type="curve"/>
			<point x="551" y="-152" type="line"/>
			<point x="533" y="-162"/>
			<point x="518" y="-165"/>
			<point x="502" y="-165" type="curve" smooth="yes"/>
			<point x="472" y="-165"/>
			<point x="448" y="-141"/>
			<point x="448" y="-102" type="curve" smooth="yes"/>
			<point x="448" y="-60"/>
			<point x="471" y="-14"/>
			<point x="514" y="13" type="curve"/>
			<point x="485" y="13" type="line"/>
			<point x="485" y="12" type="line"/>
			<point x="429" y="-16"/>
			<point x="384" y="-75"/>
			<point x="384" y="-138" type="curve" smooth="yes"/>
			<point x="384" y="-189"/>
			<point x="419" y="-221"/>
		</contour>
		<component base="u"/>
	</outline>
	<anchor name="aboveLC" x="283" y="495"/>
</glyph>
<glyph name="Ydieresis" format="2">
	<unicode hex="0178"/>
	<advance width="633"/>
	<outline>
		<contour>
			<point x="233" y="745" type="curve" smooth="yes"/>
			<point x="265" y="745"/>
			<point x="290" y="768"/>
			<point x="290" y="800" type="curve" smooth="yes"/>
			<point x="290" y="832"/>
			<point x="265" y="855"/>
			<point x="233" y="855" type="curve" smooth="yes"/>
			<point x="202" y="855"/>
			<point x="175" y="832"/>
			<point x="175" y="800" type="curve" smooth="yes"/>
			<point x="175" y="768"/>
			<point x="202" y="745"/>
		</contour>
		<contour>
			<point x="456" y="745" type="curve" smooth="yes"/>
			<point x="487" y="745"/>
			<point x="514" y="768"/>
			<point x="514" y="800" type="curve" smooth="yes"/>
			<point x="514" y="832"/>
			<point x="487" y="855"/>
			<point x="456" y="855" type="curve" smooth="yes"/>
			<point x="424" y="855"/>
			<point x="399" y="832"/>
			<point x="399" y="800" type="curve" smooth="yes"/>
			<point x="399" y="768"/>
			<point x="424" y="745"/>
		</contour>
		<component base="Y"/>
	</outline>
</glyph>
<glyph name="zcaron" format="2">
	<unicode hex="017E"/>
	<advance width="456"/>
	<outline>
		<contour>
			<point x="114" y="739" type="line"/>
			<point x="90" y="719" type="line"/>
			<point x="192" y="571" type="line"/>
			<point x="266" y="571" type="line"/>
			<point x="368" y="719" type="line"/>
			<point x="344" y="739" type="line"/>
			<point x="187" y="596" type="line"/>
			<point x="271" y="596" type="line"/>
		</contour>
		<component base="z"/>
	</outline>
</glyph>
<glyph name="Schwa" format="2">
	<unicode hex="018F"/>
	<advance width="657"/>
	<outline>
		<contour>
			<point x="48" y="278" type="curve" smooth="yes"/>
			<point x="48" y="91"/>
			<point x="160" y="-15"/>
			<point x="327" y="-15" type="curve" smooth="yes"/>
			<point x="483" y="-15"/>
			<point x="609" y="123"/>
			<point x="609" y="340" type="curve" smooth="yes"/>
			<point x="609" y="561"/>
			<point x="476" y="685"/>
			<point x="315" y="685" type="curve" smooth="yes"/>
			<point x="208" y="685"/>
			<point x="132" y="640"/>
			<point x="82" y="573" type="curve"/>
			<point x="110" y="544" type="line"/>
			<point x="156" y="594"/>
			<point x="220" y="625"/>
			<point x="296" y="625" type="curve" smooth="yes"/>
			<point x="407" y="625"/>
			<point x="509" y="536"/>
			<point x="509" y="329" type="curve" smooth="yes"/>
			<point x="509" y="125"/>
			<point x="442" y="35"/>
			<point x="328" y="35" type="curve" smooth="yes"/>
			<point x="217" y="35"/>
			<point x="144" y="136"/>
			<point x="144" y="241" type="curve" smooth="yes"/>
			<point x="144" y="275"/>
			<point x="146" y="295"/>
			<point x="150" y="320" type="curve"/>
			<point x="548" y="320" type="line"/>
			<point x="547" y="366" type="line"/>
			<point x="55" y="366" type="line"/>
			<point x="51" y="348"/>
			<point x="48" y="308"/>
		</contour>
	</outline>
	<anchor name="aboveUC" x="326" y="691"/>
	<anchor name="belowLC" x="328" y="-22"/>
</glyph>
<glyph name="florin" format="2">
	<unicode hex="0192"/>
	<advance width="497"/>
	<outline>
		<contour>
			<point x="102" y="346" type="line"/>
			<point x="424" y="346" type="line"/>
			<point x="424" y="396" type="line"/>
			<point x="102" y="396" type="line"/>
		</contour>
		<contour>
			<point x="294" y="350" type="line" smooth="yes"/>
			<point x="304" y="471"/>
			<point x="305" y="531"/>
			<point x="333" y="578" type="curve" smooth="yes"/>
			<point x="346" y="599"/>
			<point x="365" y="617"/>
			<point x="396" y="629" type="curve"/>
			<point x="413" y="633" type="line"/>
			<point x="363" y="629" type="line"/>
			<point x="396" y="596" type="line" smooth="yes"/>
			<point x="420" y="572"/>
			<point x="442" y="564"/>
			<point x="465" y="564" type="curve" smooth="yes"/>
			<point x="498" y="564"/>
			<point x="517" y="582"/>
			<point x="522" y="608" type="curve"/>
			<point x="512" y="638"/>
			<point x="474" y="661"/>
			<point x="420" y="661" type="curve" smooth="yes"/>
			<point x="378" y="661"/>
			<point x="331" y="644"/>
			<point x="298" y="611" type="curve" smooth="yes"/>
			<point x="245" y="558"/>
			<point x="227" y="484"/>
			<point x="216" y="355" type="curve" smooth="yes"/>
			<point x="204" y="218" type="line" smooth="yes"/>
			<point x="193" y="97"/>
			<point x="193" y="31"/>
			<point x="165" y="-16" type="curve" smooth="yes"/>
			<point x="152" y="-37"/>
			<point x="133" y="-55"/>
			<point x="102" y="-67" type="curve"/>
			<point x="89" y="-72" type="line"/>
			<point x="136" y="-67" type="line"/>
			<point x="102" y="-34" type="line" smooth="yes"/>
			<point x="78" y="-10"/>
			<point x="56" y="-2"/>
			<point x="32" y="-2" type="curve" smooth="yes"/>
			<point x="-1" y="-2"/>
			<point x="-20" y="-20"/>
			<point x="-25" y="-46" type="curve"/>
			<point x="-15" y="-76"/>
			<point x="24" y="-99"/>
			<point x="78" y="-99" type="curve" smooth="yes"/>
			<point x="120" y="-99"/>
			<point x="164" y="-84"/>
			<point x="201" y="-47" type="curve" smooth="yes"/>
			<point x="254" y="6"/>
			<point x="270" y="87"/>
			<point x="284" y="234" type="curve" smooth="yes"/>
		</contour>
	</outline>
</glyph>
<glyph name="Uhorn" format="2">
	<unicode hex="01AF"/>
	<advance width="727"/>
	<outline>
		<contour>
			<point x="367" y="-15" type="curve" smooth="yes"/>
			<point x="504" y="-15"/>
			<point x="606" y="63"/>
			<point x="606" y="274" type="curve" smooth="yes"/>
			<point x="606" y="670" type="line"/>
			<point x="555" y="670" type="line"/>
			<point x="555" y="298" type="line" smooth="yes"/>
			<point x="555" y="121"/>
			<point x="497" y="56"/>
			<point x="384" y="56" type="curve" smooth="yes"/>
			<point x="282" y="56"/>
			<point x="218" y="110"/>
			<point x="218" y="281" type="curve" smooth="yes"/>
			<point x="218" y="360" type="line" smooth="yes"/>
			<point x="218" y="465"/>
			<point x="218" y="569"/>
			<point x="221" y="670" type="curve"/>
			<point x="121" y="670" type="line"/>
			<point x="124" y="567"/>
			<point x="124" y="463"/>
			<point x="124" y="360" type="curve" smooth="yes"/>
			<point x="124" y="252" type="line" smooth="yes"/>
			<point x="124" y="65"/>
			<point x="222" y="-15"/>
		</contour>
		<contour>
			<point x="591" y="618" type="line"/>
			<point x="680" y="625"/>
			<point x="735" y="663"/>
			<point x="735" y="747" type="curve" smooth="yes"/>
			<point x="735" y="766"/>
			<point x="730" y="786"/>
			<point x="721" y="805" type="curve"/>
			<point x="708" y="816"/>
			<point x="696" y="817"/>
			<point x="686" y="817" type="curve" smooth="yes"/>
			<point x="662" y="817"/>
			<point x="647" y="796"/>
			<point x="647" y="780" type="curve" smooth="yes"/>
			<point x="647" y="752"/>
			<point x="671" y="733"/>
			<point x="671" y="695" type="curve" smooth="yes"/>
			<point x="671" y="671"/>
			<point x="651" y="670"/>
			<point x="591" y="670" type="curve"/>
		</contour>
		<contour>
			<point x="39" y="629" type="line"/>
			<point x="170" y="614" type="line"/>
			<point x="191" y="614" type="line"/>
			<point x="322" y="629" type="line"/>
			<point x="322" y="670" type="line"/>
			<point x="39" y="670" type="line"/>
		</contour>
		<contour>
			<point x="453" y="629" type="line"/>
			<point x="563" y="615" type="line"/>
			<point x="583" y="615" type="line"/>
			<point x="583" y="670" type="line"/>
			<point x="453" y="670" type="line"/>
		</contour>
	</outline>
	<anchor name="aboveUC" x="385" y="690"/>
	<anchor name="belowLC" x="368" y="-20"/>
</glyph>
<glyph name="alphalatin" format="2">
	<unicode hex="0251"/>
	<advance width="557"/>
	<outline>
		<contour>
			<point x="244" y="-13" type="curve" smooth="yes"/>
			<point x="318" y="-13"/>
			<point x="369" y="20"/>
			<point x="412" y="96" type="curve"/>
			<point x="414" y="96" type="line"/>
			<point x="403" y="122" type="line"/>
			<point x="358" y="66"/>
			<point x="323" y="44"/>
			<point x="274" y="44" type="curve" smooth="yes"/>
			<point x="195" y="44"/>
			<point x="135" y="107"/>
			<point x="135" y="232" type="curve" smooth="yes"/>
			<point x="135" y="372"/>
			<point x="201" y="431"/>
			<point x="282" y="431" type="curve" smooth="yes"/>
			<point x="323" y="431"/>
			<point x="357" y="417"/>
			<point x="406" y="361" type="curve"/>
			<point x="419" y="387" type="line"/>
			<point x="417" y="387" type="line"/>
			<point x="376" y="462"/>
			<point x="324" y="488"/>
			<point x="273" y="488" type="curve" smooth="yes"/>
			<point x="138" y="488"/>
			<point x="45" y="383"/>
			<point x="45" y="226" type="curve" smooth="yes"/>
			<point x="45" y="74"/>
			<point x="127" y="-13"/>
		</contour>
		<contour>
			<point x="390" y="93" type="line"/>
			<point x="394" y="78" type="line"/>
			<point x="404" y="26"/>
			<point x="431" y="-10"/>
			<point x="482" y="-10" type="curve" smooth="yes"/>
			<point x="518" y="-10"/>
			<point x="545" y="3"/>
			<point x="569" y="42" type="curve"/>
			<point x="549" y="64" type="line"/>
			<point x="538" y="51"/>
			<point x="527" y="42"/>
			<point x="510" y="42" type="curve" smooth="yes"/>
			<point x="488" y="42"/>
			<point x="474" y="58"/>
			<point x="474" y="101" type="curve" smooth="yes"/>
			<point x="474" y="343" type="line"/>
			<point x="477" y="478" type="line"/>
			<point x="461" y="488" type="line"/>
			<point x="390" y="416" type="line"/>
			<point x="390" y="413" type="line"/>
		</contour>
	</outline>
	<anchor name="aboveLC" x="288" y="495"/>
	<anchor name="belowLC" x="287" y="-20"/>
</glyph>
<glyph name="schwa" format="2">
	<unicode hex="0259"/>
	<advance width="519"/>
	<outline>
		<contour>
			<point x="250" y="-13" type="curve" smooth="yes"/>
			<point x="367" y="-13"/>
			<point x="471" y="90"/>
			<point x="471" y="243" type="curve" smooth="yes"/>
			<point x="471" y="397"/>
			<point x="386" y="487"/>
			<point x="250" y="487" type="curve" smooth="yes"/>
			<point x="159" y="487"/>
			<point x="97" y="438"/>
			<point x="61" y="371" type="curve"/>
			<point x="84" y="353" type="line"/>
			<point x="120" y="395"/>
			<point x="169" y="424"/>
			<point x="224" y="424" type="curve" smooth="yes"/>
			<point x="323" y="424"/>
			<point x="386" y="348"/>
			<point x="386" y="223" type="curve" smooth="yes"/>
			<point x="386" y="84"/>
			<point x="312" y="32"/>
			<point x="248" y="32" type="curve" smooth="yes"/>
			<point x="179" y="32"/>
			<point x="127" y="96"/>
			<point x="127" y="169" type="curve" smooth="yes"/>
			<point x="127" y="202"/>
			<point x="137" y="220"/>
			<point x="186" y="220" type="curve" smooth="yes"/>
			<point x="424" y="220" type="line"/>
			<point x="424" y="262" type="line"/>
			<point x="55" y="262" type="line"/>
			<point x="51" y="249"/>
			<point x="48" y="229"/>
			<point x="48" y="206" type="curve" smooth="yes"/>
			<point x="48" y="62"/>
			<point x="131" y="-13"/>
		</contour>
	</outline>
	<anchor name="aboveLC" x="252" y="502"/>
	<anchor name="belowLC" x="254" y="-22"/>
</glyph>
<glyph name="h.sups" format="2">
	<unicode hex="02B0"/>
	<advance width="412"/>
	<outline>
		<contour>
			<point x="69" y="425" type="line"/>
			<point x="137" y="425" type="line"/>
			<point x="137" y="667" type="line"/>
			<point x="137" y="669" type="line"/>
			<point x="137" y="893" type="line"/>
			<point x="127" y="898" type="line"/>
			<point x="16" y="868" type="line"/>
			<point x="16" y="840" type="line"/>
			<point x="69" y="834" type="line"/>
		</contour>
		<contour>
			<point x="279" y="425" type="line"/>
			<point x="347" y="425" type="line"/>
			<point x="347" y="634" type="line" smooth="yes"/>
			<point x="347" y="713"/>
			<point x="315" y="749"/>
			<point x="255" y="749" type="curve" smooth="yes"/>
			<point x="211" y="749"/>
			<point x="170" y="730"/>
			<point x="135" y="684" type="curve"/>
			<point x="113" y="684" type="line"/>
			<point x="130" y="644" type="line"/>
			<point x="168" y="679"/>
			<point x="197" y="695"/>
			<point x="227" y="695" type="curve" smooth="yes"/>
			<point x="266" y="695"/>
			<point x="279" y="674"/>
			<point x="279" y="620" type="curve" smooth="yes"/>
		</contour>
		<contour>
			<point x="21" y="425" type="line"/>
			<point x="183" y="425" type="line"/>
			<point x="183" y="455" type="line"/>
			<point x="115" y="468" type="line"/>
			<point x="94" y="468" type="line"/>
			<point x="21" y="455" type="line"/>
		</contour>
		<contour>
			<point x="232" y="425" type="line"/>
			<point x="392" y="425" type="line"/>
			<point x="392" y="455" type="line"/>
			<point x="324" y="468" type="line"/>
			<point x="304" y="468" type="line"/>
			<point x="232" y="455" type="line"/>
		</contour>
	</outline>
</glyph>
<glyph name="j.sups" format="2">
	<unicode hex="02B2"/>
	<advance width="193"/>
	<outline>
		<contour>
			<point x="104" y="810" type="curve" smooth="yes"/>
			<point x="131" y="810"/>
			<point x="152" y="829"/>
			<point x="152" y="856" type="curve" smooth="yes"/>
			<point x="152" y="883"/>
			<point x="131" y="901"/>
			<point x="104" y="901" type="curve" smooth="yes"/>
			<point x="77" y="901"/>
			<point x="56" y="883"/>
			<point x="56" y="856" type="curve" smooth="yes"/>
			<point x="56" y="829"/>
			<point x="77" y="810"/>
		</contour>
		<contour>
			<point x="72" y="476" type="line" smooth="yes"/>
			<point x="72" y="379"/>
			<point x="69" y="344"/>
			<point x="51" y="313" type="curve" smooth="yes"/>
			<point x="45" y="303"/>
			<point x="32" y="290"/>
			<point x="16" y="290" type="curve"/>
			<point x="36" y="274" type="line"/>
			<point x="64" y="287" type="line"/>
			<point x="36" y="315" type="line" smooth="yes"/>
			<point x="17" y="335"/>
			<point x="1" y="343"/>
			<point x="-19" y="343" type="curve" smooth="yes"/>
			<point x="-41" y="343"/>
			<point x="-56" y="330"/>
			<point x="-62" y="307" type="curve"/>
			<point x="-59" y="287"/>
			<point x="-38" y="267"/>
			<point x="10" y="267" type="curve" smooth="yes"/>
			<point x="43" y="267"/>
			<point x="70" y="278"/>
			<point x="96" y="304" type="curve" smooth="yes"/>
			<point x="128" y="336"/>
			<point x="138" y="380"/>
			<point x="138" y="475" type="curve" smooth="yes"/>
			<point x="138" y="742" type="line"/>
			<point x="127" y="749" type="line"/>
			<point x="18" y="708" type="line"/>
			<point x="18" y="684" type="line"/>
			<point x="72" y="678" type="line"/>
		</contour>
	</outline>
</glyph>
<glyph name="r.sups" format="2">
	<unicode hex="02B3"/>
	<advance width="293"/>
	<outline>
		<contour>
			<point x="75" y="427" type="line"/>
			<point x="143" y="427" type="line"/>
			<point x="143" y="662" type="line"/>
			<point x="143" y="663" type="line"/>
			<point x="134" y="745" type="line"/>
			<point x="123" y="751" type="line"/>
			<point x="23" y="710" type="line"/>
			<point x="23" y="682" type="line"/>
			<point x="75" y="676" type="line"/>
		</contour>
		<contour>
			<point x="142" y="618" type="line"/>
			<point x="157" y="660"/>
			<point x="181" y="690"/>
			<point x="222" y="712" type="curve"/>
			<point x="186" y="709" type="line"/>
			<point x="202" y="692" type="line" smooth="yes"/>
			<point x="217" y="676"/>
			<point x="230" y="669"/>
			<point x="245" y="669" type="curve" smooth="yes"/>
			<point x="270" y="669"/>
			<point x="288" y="686"/>
			<point x="288" y="713" type="curve"/>
			<point x="283" y="742"/>
			<point x="261" y="751"/>
			<point x="242" y="751" type="curve" smooth="yes"/>
			<point x="200" y="751"/>
			<point x="157" y="709"/>
			<point x="135" y="644" type="curve"/>
			<point x="111" y="644" type="line"/>
		</contour>
		<contour>
			<point x="29" y="427" type="line"/>
			<point x="199" y="427" type="line"/>
			<point x="199" y="457" type="line"/>
			<point x="125" y="470" type="line"/>
			<point x="102" y="470" type="line"/>
			<point x="29" y="457" type="line"/>
		</contour>
	</outline>
</glyph>
<glyph name="w.sups" format="2">
	<unicode hex="02B7"/>
	<advance width="527"/>
	<outline>
		<contour>
			<point x="149" y="420" type="line"/>
			<point x="176" y="420" type="line"/>
			<point x="268" y="658" type="line"/>
			<point x="272" y="669" type="line"/>
			<point x="253" y="668" type="line"/>
			<point x="353" y="420" type="line"/>
			<point x="380" y="420" type="line"/>
			<point x="495" y="739" type="line"/>
			<point x="455" y="739" type="line"/>
			<point x="375" y="514" type="line"/>
			<point x="371" y="501" type="line"/>
			<point x="392" y="501" type="line"/>
			<point x="294" y="739" type="line"/>
			<point x="264" y="739" type="line"/>
			<point x="174" y="516" type="line"/>
			<point x="169" y="503" type="line"/>
			<point x="188" y="503" type="line"/>
			<point x="99" y="739" type="line"/>
			<point x="26" y="739" type="line"/>
		</contour>
		<contour>
			<point x="0" y="708" type="line"/>
			<point x="67" y="699" type="line"/>
			<point x="85" y="699" type="line"/>
			<point x="159" y="708" type="line"/>
			<point x="159" y="739" type="line"/>
			<point x="0" y="739" type="line"/>
		</contour>
		<contour>
			<point x="202" y="708" type="line"/>
			<point x="274" y="699" type="line"/>
			<point x="289" y="699" type="line"/>
			<point x="354" y="708" type="line"/>
			<point x="354" y="739" type="line"/>
			<point x="202" y="739" type="line"/>
		</contour>
		<contour>
			<point x="395" y="708" type="line"/>
			<point x="458" y="699" type="line"/>
			<point x="473" y="699" type="line"/>
			<point x="521" y="708" type="line"/>
			<point x="521" y="739" type="line"/>
			<point x="395" y="739" type="line"/>
		</contour>
	</outline>
</glyph>
<glyph name="y.sups" format="2">
	<unicode hex="02B8"/>
	<advance width="348"/>
	<outline>
		<contour>
			<point x="293" y="698" type="line"/>
			<point x="343" y="707" type="line"/>
			<point x="343" y="738" type="line"/>
			<point x="210" y="738" type="line"/>
			<point x="210" y="707" type="line"/>
			<point x="280" y="698" type="line"/>
		</contour>
		<contour>
			<point x="86" y="695" type="line"/>
			<point x="171" y="707" type="line"/>
			<point x="171" y="738" type="line"/>
			<point x="-1" y="738" type="line"/>
			<point x="-1" y="707" type="line"/>
			<point x="66" y="695" type="line"/>
		</contour>
		<contour>
			<point x="202" y="479" type="line"/>
			<point x="96" y="738" type="line"/>
			<point x="23" y="738" type="line"/>
			<point x="169" y="387" type="line"/>
		</contour>
		<contour>
			<point x="69" y="299" type="curve"/>
			<point x="89" y="288" type="line"/>
			<point x="115" y="299" type="line"/>
			<point x="93" y="324" type="line" smooth="yes"/>
			<point x="73" y="341"/>
			<point x="55" y="345"/>
			<point x="40" y="345" type="curve" smooth="yes"/>
			<point x="21" y="345"/>
			<point x="2" y="337"/>
			<point x="-3" y="316" type="curve"/>
			<point x="-3" y="288"/>
			<point x="26" y="270"/>
			<point x="61" y="270" type="curve" smooth="yes"/>
			<point x="117" y="270"/>
			<point x="162" y="314"/>
			<point x="199" y="415" type="curve" smooth="yes"/>
			<point x="317" y="738" type="line"/>
			<point x="279" y="738" type="line"/>
			<point x="171" y="428" type="line" smooth="yes"/>
			<point x="147" y="360"/>
			<point x="122" y="322"/>
		</contour>
	</outline>
</glyph>
<glyph name="ringhalfrightmod" format="2">
	<unicode hex="02BE"/>
	<advance width="166"/>
	<outline>
		<contour>
			<point x="26" y="550" type="line"/>
			<point x="98" y="550"/>
			<point x="140" y="586"/>
			<point x="140" y="651" type="curve" smooth="yes"/>
			<point x="140" y="713"/>
			<point x="98" y="751"/>
			<point x="26" y="751" type="curve"/>
			<point x="26" y="712" type="line"/>
			<point x="66" y="712"/>
			<point x="89" y="682"/>
			<point x="89" y="651" type="curve" smooth="yes"/>
			<point x="89" y="620"/>
			<point x="67" y="589"/>
			<point x="26" y="589" type="curve"/>
		</contour>
	</outline>
</glyph>
<glyph name="ringhalfleftmod" format="2">
	<unicode hex="02BF"/>
	<advance width="167"/>
	<outline>
		<contour>
			<point x="26" y="652" type="curve" smooth="yes"/>
			<point x="26" y="586"/>
			<point x="68" y="550"/>
			<point x="141" y="550" type="curve"/>
			<point x="141" y="589" type="line"/>
			<point x="100" y="589"/>
			<point x="78" y="621"/>
			<point x="78" y="652" type="curve" smooth="yes"/>
			<point x="78" y="683"/>
			<point x="101" y="713"/>
			<point x="141" y="713" type="curve"/>
			<point x="141" y="752" type="line"/>
			<point x="68" y="752"/>
			<point x="26" y="714"/>
		</contour>
	</outline>
</glyph>
<glyph name="verticallinemod" format="2">
	<unicode hex="02C8"/>
	<advance width="116"/>
	<outline>
		<contour>
			<point x="28" y="553" type="line"/>
			<point x="88" y="553" type="line"/>
			<point x="94" y="749" type="line"/>
			<point x="22" y="749" type="line"/>
		</contour>
	</outline>
</glyph>
<glyph name="colontriangularmod" format="2">
	<unicode hex="02D0"/>
	<advance width="300"/>
	<outline>
		<contour>
			<point x="71" y="480" type="line"/>
			<point x="146" y="350" type="line"/>
			<point x="154" y="350" type="line"/>
			<point x="229" y="480" type="line"/>
			<point x="225" y="488" type="line"/>
			<point x="75" y="488" type="line"/>
		</contour>
		<contour>
			<point x="71" y="7" type="line"/>
			<point x="75" y="0" type="line"/>
			<point x="225" y="0" type="line"/>
			<point x="229" y="7" type="line"/>
			<point x="154" y="137" type="line"/>
			<point x="146" y="137" type="line"/>
		</contour>
	</outline>
</glyph>
<glyph name="dotaccent" format="2">
	<unicode hex="02D9"/>
	<advance width="400"/>
	<outline>
		<contour>
			<point x="200" y="589" type="curve" smooth="yes"/>
			<point x="238" y="589"/>
			<point x="267" y="615"/>
			<point x="267" y="653" type="curve" smooth="yes"/>
			<point x="267" y="690"/>
			<point x="238" y="717"/>
			<point x="200" y="717" type="curve" smooth="yes"/>
			<point x="162" y="717"/>
			<point x="133" y="690"/>
			<point x="133" y="653" type="curve" smooth="yes"/>
			<point x="133" y="615"/>
			<point x="162" y="589"/>
		</contour>
	</outline>
</glyph>
<glyph name="ogonek" format="2">
	<unicode hex="02DB"/>
	<advance width="400"/>
	<outline>
		<contour>
			<point x="182" y="-221" type="curve" smooth="yes"/>
			<point x="223" y="-221"/>
			<point x="252" y="-209"/>
			<point x="278" y="-177" type="curve"/>
			<point x="265" y="-152" type="line"/>
			<point x="247" y="-162"/>
			<point x="232" y="-165"/>
			<point x="216" y="-165" type="curve" smooth="yes"/>
			<point x="186" y="-165"/>
			<point x="162" y="-141"/>
			<point x="162" y="-102" type="curve" smooth="yes"/>
			<point x="162" y="-60"/>
			<point x="185" y="-14"/>
			<point x="228" y="13" type="curve"/>
			<point x="199" y="13" type="line"/>
			<point x="199" y="12" type="line"/>
			<point x="143" y="-16"/>
			<point x="98" y="-75"/>
			<point x="98" y="-138" type="curve" smooth="yes"/>
			<point x="98" y="-189"/>
			<point x="133" y="-221"/>
		</contour>
	</outline>
</glyph>
<glyph name="tilde" format="2">
	<unicode hex="02DC"/>
	<advance width="400"/>
	<outline>
		<contour>
			<point x="39" y="586" type="curve"/>
			<point x="66" y="577" type="line"/>
			<point x="80" y="626"/>
			<point x="98" y="656"/>
			<point x="128" y="656" type="curve" smooth="yes"/>
			<point x="155" y="656"/>
			<point x="175" y="630"/>
			<point x="197" y="608" type="curve" smooth="yes"/>
			<point x="217" y="589"/>
			<point x="237" y="575"/>
			<point x="270" y="575" type="curve" smooth="yes"/>
			<point x="326" y="575"/>
			<point x="353" y="626"/>
			<point x="365" y="703" type="curve"/>
			<point x="338" y="713" type="line"/>
			<point x="324" y="664"/>
			<point x="306" y="633"/>
			<point x="276" y="633" type="curve" smooth="yes"/>
			<point x="249" y="633"/>
			<point x="231" y="658"/>
			<point x="207" y="681" type="curve" smooth="yes"/>
			<point x="188" y="700"/>
			<point x="167" y="715"/>
			<point x="134" y="715" type="curve" smooth="yes"/>
			<point x="79" y="715"/>
			<point x="50" y="664"/>
		</contour>
	</outline>
</glyph>
<glyph name="hungarumlaut" format="2">
	<unicode hex="02DD"/>
	<advance width="400"/>
	<outline>
		<contour>
			<point x="69" y="567" type="line"/>
			<point x="97" y="551" type="line"/>
			<point x="190" y="668" type="line" smooth="yes"/>
			<point x="209" y="692"/>
			<point x="212" y="709"/>
			<point x="212" y="719" type="curve" smooth="yes"/>
			<point x="212" y="742"/>
			<point x="196" y="756"/>
			<point x="177" y="756" type="curve" smooth="yes"/>
			<point x="159" y="756"/>
			<point x="137" y="745"/>
			<point x="124" y="709" type="curve" smooth="yes"/>
		</contour>
		<contour>
			<point x="211" y="567" type="line"/>
			<point x="239" y="551" type="line"/>
			<point x="332" y="668" type="line" smooth="yes"/>
			<point x="351" y="692"/>
			<point x="355" y="709"/>
			<point x="355" y="719" type="curve" smooth="yes"/>
			<point x="355" y="742"/>
			<point x="339" y="756"/>
			<point x="319" y="756" type="curve" smooth="yes"/>
			<point x="301" y="756"/>
			<point x="279" y="745"/>
			<point x="266" y="709" type="curve" smooth="yes"/>
		</contour>
	</outline>
</glyph>
